<?xml version="1.0" encoding="UTF-8" standalone="no"?>
<svg
   xmlns:dc="http://purl.org/dc/elements/1.1/"
   xmlns:cc="http://creativecommons.org/ns#"
   xmlns:rdf="http://www.w3.org/1999/02/22-rdf-syntax-ns#"
   xmlns:svg="http://www.w3.org/2000/svg"
   xmlns="http://www.w3.org/2000/svg"
   xmlns:sodipodi="http://sodipodi.sourceforge.net/DTD/sodipodi-0.dtd"
   xmlns:inkscape="http://www.inkscape.org/namespaces/inkscape"
   width="36pt"
   height="36pt"
   version="1.1"
   viewBox="0 0 36 36"
   id="svg16"
   sodipodi:docname="application-x-msdos-program.svg"
   inkscape:version="0.92.4 5da689c313, 2019-01-14">
  <metadata
     id="metadata22">
    <rdf:RDF>
      <cc:Work
         rdf:about="">
        <dc:format>image/svg+xml</dc:format>
        <dc:type
           rdf:resource="http://purl.org/dc/dcmitype/StillImage" />
        <dc:title></dc:title>
      </cc:Work>
    </rdf:RDF>
  </metadata>
  <defs
     id="defs20" />
  <sodipodi:namedview
     pagecolor="#ffffff"
     bordercolor="#666666"
     borderopacity="1"
     objecttolerance="10"
     gridtolerance="10"
     guidetolerance="10"
     inkscape:pageopacity="0"
     inkscape:pageshadow="2"
     inkscape:window-width="1366"
     inkscape:window-height="693"
     id="namedview18"
     showgrid="false"
     inkscape:zoom="4.9166667"
     inkscape:cx="0.10169492"
     inkscape:cy="24"
     inkscape:window-x="0"
     inkscape:window-y="0"
     inkscape:window-maximized="1"
     inkscape:current-layer="g14" />
  <g
     id="g14">
    <path
       style="fill:rgb(90.196%,90.196%,90.196%)"
       d="M 4.714844 3 C 3.855469 3 3 3.855469 3 4.714844 L 3 31.332031 C 3 32.144531 3.855469 33 4.667969 33 L 31.332031 33 C 32.144531 33 33 32.144531 33 31.332031 L 33 4.667969 C 33 3.855469 32.140625 3 31.332031 3 Z M 4.714844 3"
       id="path2" />
    <path
       style="fill:rgb(70.196%,70.196%,70.196%)"
       d="M 5.082031 3 C 4.527344 3 4.027344 3.273438 3.652344 3.652344 C 3.273438 4.027344 3 4.527344 3 5.082031 L 3 30.96875 C 3 31.507812 3.253906 32.003906 3.625 32.375 C 3.996094 32.746094 4.492188 33 5.03125 33 L 30.96875 33 C 31.507812 33 32.003906 32.746094 32.375 32.375 C 32.746094 32.003906 33 31.507812 33 30.96875 L 33 5.03125 C 33 4.492188 32.746094 3.996094 32.375 3.625 C 32.003906 3.253906 31.507812 3 30.96875 3 Z M 5.082031 3.832031 L 30.96875 3.832031 C 31.214844 3.832031 31.53125 3.980469 31.773438 4.222656 C 32.019531 4.46875 32.167969 4.785156 32.167969 5.03125 L 32.167969 30.96875 C 32.167969 31.214844 32.019531 31.53125 31.777344 31.777344 C 31.53125 32.019531 31.214844 32.167969 30.96875 32.167969 L 5.03125 32.167969 C 4.785156 32.167969 4.46875 32.019531 4.222656 31.777344 C 3.980469 31.53125 3.832031 31.214844 3.832031 30.96875 L 3.832031 5.082031 C 3.832031 4.804688 3.976562 4.472656 4.222656 4.222656 C 4.472656 3.976562 4.804688 3.832031 5.082031 3.832031 Z M 5.082031 3.832031"
       id="path4" />
    <path
       inkscape:connector-curvature="0"
       style="fill:#4700c0;fill-opacity:1;stroke-width:0.17150709"
       d="m 10.5,12.92375 6.130029,-0.83227 0.003,5.89468 -6.12711,0.0348 z m 6.1271,5.7416 0.005,5.89982 -6.12711,-0.83979 -2.1e-4,-5.09961 z M 17.370209,11.9826 25.498114,10.8 v 7.11119 l -8.127905,0.0643 z M 25.5,18.72083 25.498,25.8 l -8.127905,-1.14363 -0.01143,-5.9488 z"
       id="path2-0" />
  </g>
</svg>
