<?xml version="1.0" encoding="UTF-8" standalone="no"?>
<svg
   xmlns:dc="http://purl.org/dc/elements/1.1/"
   xmlns:cc="http://creativecommons.org/ns#"
   xmlns:rdf="http://www.w3.org/1999/02/22-rdf-syntax-ns#"
   xmlns:svg="http://www.w3.org/2000/svg"
   xmlns="http://www.w3.org/2000/svg"
   xmlns:xlink="http://www.w3.org/1999/xlink"
   xmlns:sodipodi="http://sodipodi.sourceforge.net/DTD/sodipodi-0.dtd"
   xmlns:inkscape="http://www.inkscape.org/namespaces/inkscape"
   id="svg4569"
   height="512"
   width="512"
   version="1.0"
   sodipodi:docname="laptopconnected.svg"
   inkscape:version="0.92.4 5da689c313, 2019-01-14">
  <sodipodi:namedview
     pagecolor="#ffffff"
     bordercolor="#666666"
     borderopacity="1"
     objecttolerance="10"
     gridtolerance="10"
     guidetolerance="10"
     inkscape:pageopacity="0"
     inkscape:pageshadow="2"
     inkscape:window-width="1366"
     inkscape:window-height="710"
     id="namedview45"
     showgrid="false"
     inkscape:zoom="0.65186406"
     inkscape:cx="124.45365"
     inkscape:cy="314.55257"
     inkscape:window-x="0"
     inkscape:window-y="25"
     inkscape:window-maximized="1"
     inkscape:current-layer="svg4569" />
  <metadata
     id="metadata46">
    <rdf:RDF>
      <cc:Work
         rdf:about="">
        <dc:format>image/svg+xml</dc:format>
        <dc:type
           rdf:resource="http://purl.org/dc/dcmitype/StillImage" />
        <dc:title></dc:title>
      </cc:Work>
    </rdf:RDF>
  </metadata>
  <defs
     id="defs4571">
    <linearGradient
       id="linearGradient3912">
      <stop
         offset="0"
         style="stop-color:#787878;stop-opacity:1"
         id="stop3914" />
      <stop
         offset="0.35046947"
         style="stop-color:#b4b4b4;stop-opacity:1"
         id="stop3916" />
      <stop
         offset="0.49417919"
         style="stop-color:#c8c8c8;stop-opacity:1"
         id="stop3918" />
      <stop
         offset="0.58907253"
         style="stop-color:#e6e6e6;stop-opacity:1"
         id="stop3920" />
      <stop
         offset="1"
         style="stop-color:#8c8c8c;stop-opacity:1"
         id="stop3922" />
    </linearGradient>
    <linearGradient
       id="linearGradient6592-2-7">
      <stop
         offset="0"
         style="stop-color:#ffffff;stop-opacity:0.27450982"
         id="stop6594-0-2" />
      <stop
         offset="1"
         style="stop-color:#ffffff;stop-opacity:0"
         id="stop6596-2-5" />
    </linearGradient>
    <linearGradient
       id="linearGradient10691-1">
      <stop
         offset="0"
         style="stop-color:#000000;stop-opacity:1"
         id="stop10693-3" />
      <stop
         offset="1"
         style="stop-color:#000000;stop-opacity:0"
         id="stop10695-1" />
    </linearGradient>
    <linearGradient
       gradientTransform="matrix(9.9769127,0,0,9.4968745,-3317.4131,-461.47489)"
       gradientUnits="userSpaceOnUse"
       xlink:href="#linearGradient3912"
       id="linearGradient3221"
       y2="94.396416"
       x2="361.10583"
       y1="87.050117"
       x1="361.10583" />
    <radialGradient
       gradientTransform="matrix(19.609558,0,0,4.1283273,124.56278,120.73303)"
       gradientUnits="userSpaceOnUse"
       xlink:href="#linearGradient10691-1"
       id="radialGradient3226"
       fy="73.615715"
       fx="6.702713"
       r="7.228416"
       cy="73.615715"
       cx="6.702713" />
    <linearGradient
       id="linearGradient4084">
      <stop
         offset="0"
         style="stop-color:#ffffff;stop-opacity:1"
         id="stop4086" />
      <stop
         offset="0.01596775"
         style="stop-color:#ffffff;stop-opacity:0.23529412"
         id="stop4088" />
      <stop
         offset="0.99257565"
         style="stop-color:#ffffff;stop-opacity:0.15686275"
         id="stop4090" />
      <stop
         offset="1"
         style="stop-color:#ffffff;stop-opacity:0.39215687"
         id="stop4092" />
    </linearGradient>
    <linearGradient
       id="outerBackgroundGradient-5-0">
      <stop
         id="stop3864-8-6-4"
         offset="0"
         style="stop-color:#0036cb;stop-opacity:1" />
      <stop
         id="stop3866-9-1-86"
         offset="1"
         style="stop-color:#0fdb00;stop-opacity:1" />
    </linearGradient>
    <linearGradient
       xlink:href="#linearGradient6592-2-7"
       id="linearGradient3141"
       gradientUnits="userSpaceOnUse"
       gradientTransform="matrix(11.563494,0,0,11.697807,13.166596,124.82849)"
       x1="10"
       y1="-3"
       x2="20"
       y2="12" />
    <linearGradient
       xlink:href="#linearGradient4084"
       id="linearGradient3144"
       gradientUnits="userSpaceOnUse"
       gradientTransform="matrix(12.400257,0,0,8.6700979,-41.606263,-14.574369)"
       x1="23.99999"
       y1="5.7531762"
       x2="23.99999"
       y2="42.121033" />
    <linearGradient
       xlink:href="#outerBackgroundGradient-5-0"
       id="linearGradient3148"
       gradientUnits="userSpaceOnUse"
       gradientTransform="matrix(8.5883745,0,0,10.285376,75.60682,166.62771)"
       x1="-2.5488214"
       y1="28.788479"
       x2="44.631618"
       y2="-12.349135" />
    <linearGradient
       id="linearGradient4054-5">
      <stop
         offset="0"
         style="stop-color:#ffffff;stop-opacity:1"
         id="stop4056-0" />
      <stop
         offset="0.01719457"
         style="stop-color:#ffffff;stop-opacity:0.23529412"
         id="stop4058-4" />
      <stop
         offset="1"
         style="stop-color:#ffffff;stop-opacity:0.15686275"
         id="stop4060-4" />
      <stop
         offset="1"
         style="stop-color:#ffffff;stop-opacity:0.39215687"
         id="stop4062-0" />
    </linearGradient>
    <linearGradient
       xlink:href="#linearGradient4054-5"
       id="linearGradient3152-7"
       gradientUnits="userSpaceOnUse"
       gradientTransform="matrix(4.5366797,0,0,3.1252681,27.212142,49.812456)"
       x1="47.546879"
       y1="121.84093"
       x2="47.546879"
       y2="99.079079" />
    <linearGradient
       xlink:href="#linearGradient10691-1"
       id="linearGradient3148-3"
       gradientUnits="userSpaceOnUse"
       gradientTransform="matrix(10.664852,0,0,12.508438,41.430903,566.40042)"
       x1="15"
       y1="24.618645"
       x2="15"
       y2="2" />
    <linearGradient
       xlink:href="#linearGradient4234"
       id="linearGradient4240"
       x1="31.00519"
       y1="47.55637"
       x2="31.00519"
       y2="58.500053"
       gradientUnits="userSpaceOnUse"
       gradientTransform="matrix(7.402059,0,0,7.3815406,19.153999,2.1512513)" />
    <linearGradient
       id="linearGradient4234">
      <stop
         style="stop-color:#d4d4d4;stop-opacity:1"
         offset="0"
         id="stop4236" />
      <stop
         id="stop4242"
         offset="0.7045455"
         style="stop-color:#fafafa;stop-opacity:1" />
      <stop
         style="stop-color:#d4d4d4;stop-opacity:1"
         offset="0.75000006"
         id="stop4248" />
      <stop
         style="stop-color:#fafafa;stop-opacity:1"
         offset="0.79545462"
         id="stop4244" />
      <stop
         id="stop4246"
         offset="0.88636369"
         style="stop-color:#d4d4d4;stop-opacity:1" />
      <stop
         style="stop-color:#abacae;stop-opacity:1"
         offset="1"
         id="stop4238" />
    </linearGradient>
  </defs>
  <path
     id="rect2722-0-5"
     d="M 64.457761,65.345223 H 447.27105 V 345.84495 H 64.457761 Z"
     style="display:inline;fill:#000000;fill-opacity:1;stroke:none;stroke-width:3.54386091"
     inkscape:connector-curvature="0" />
  <path
     id="rect2722-0"
     d="M 84.195181,84.344699 H 427.7301 V 320.90838 H 84.195181 Z"
     style="display:inline;fill:#f0f0f0;fill-opacity:1;stroke:none;stroke-width:3.08302045"
     inkscape:connector-curvature="0" />
  <path
     inkscape:connector-curvature="0"
     style="color:#000000;clip-rule:nonzero;display:inline;overflow:visible;visibility:visible;opacity:1;isolation:auto;mix-blend-mode:normal;color-interpolation:sRGB;color-interpolation-filters:linearRGB;solid-color:#000000;solid-opacity:1;fill:url(#linearGradient4240);fill-opacity:1;fill-rule:nonzero;stroke:none;stroke-width:3.67220545;stroke-linecap:round;stroke-linejoin:round;stroke-miterlimit:4;stroke-dasharray:none;stroke-dashoffset:0;stroke-opacity:1;marker:none;color-rendering:auto;image-rendering:auto;shape-rendering:auto;text-rendering:auto;enable-background:accumulate"
     d="M 66.898439,345.84495 H 445.10156 c 11.19114,19.38365 30.01171,47.71294 44.0625,69.76747 v 3.67187 c 0,8.17873 -36.98962,14.68709 -77.70091,14.68709 H 100.3526 c -40.487271,0 -77.558961,-6.50846 -77.516661,-14.68709 v -3.67187 c 13.37679,-23.16931 32.06233,-48.98256 44.0625,-69.76747 z"
     id="path4232" />
  <path
     inkscape:connector-curvature="0"
     style="opacity:0.3;fill:none;fill-rule:evenodd;stroke:#000000;stroke-width:3.671875px;stroke-linecap:butt;stroke-linejoin:miter;stroke-opacity:1"
     d="M 22.855029,415.61241 H 489.18474"
     id="path4228" />
  <path
     inkscape:connector-curvature="0"
     id="path4417"
     d="M 22.855029,419.28429 H 489.18474"
     style="opacity:1;fill:none;fill-rule:evenodd;stroke:#ffffff;stroke-width:3.671875px;stroke-linecap:butt;stroke-linejoin:miter;stroke-opacity:1" />
  <path
     inkscape:connector-curvature="0"
     style="color:#000000;clip-rule:nonzero;display:inline;overflow:visible;visibility:visible;opacity:0.9;isolation:auto;mix-blend-mode:normal;color-interpolation:sRGB;color-interpolation-filters:linearRGB;solid-color:#000000;solid-opacity:1;fill:#333333;fill-opacity:1;fill-rule:nonzero;stroke:none;stroke-width:3.67220497;stroke-linecap:butt;stroke-linejoin:miter;stroke-miterlimit:4;stroke-dasharray:none;stroke-dashoffset:0;stroke-opacity:1;marker:none;color-rendering:auto;image-rendering:auto;shape-rendering:auto;text-rendering:auto;enable-background:accumulate"
     d="M 87.093709,358.69835 H 424.90625 l 14.6875,33.04687 H 72.406249 Z"
     id="rect4393" />
  <path
     inkscape:connector-curvature="0"
     id="rect5505-21-3-8-9-1-1"
     d="M 66.898439,345.84675 H 445.10156 c 13.03835,22.5831 29.90698,46.32225 44.0625,69.76632 v 3.67122 c 0,8.17873 -36.39808,14.68709 -77.10937,14.68709 H 99.945313 c -40.487304,0 -77.109374,-6.50835 -77.109374,-14.68709 v -3.67122 c 13.78025,-23.86809 31.20161,-47.49063 44.0625,-69.76632 z"
     style="color:#000000;clip-rule:nonzero;display:inline;overflow:visible;visibility:visible;opacity:0.3;isolation:auto;mix-blend-mode:normal;color-interpolation:sRGB;color-interpolation-filters:linearRGB;solid-color:#000000;solid-opacity:1;fill:none;fill-opacity:1;fill-rule:nonzero;stroke:#000000;stroke-width:3.671875;stroke-linecap:round;stroke-linejoin:round;stroke-miterlimit:4;stroke-dasharray:none;stroke-dashoffset:0;stroke-opacity:1;marker:none;color-rendering:auto;image-rendering:auto;shape-rendering:auto;text-rendering:auto;enable-background:accumulate" />
  <rect
     style="color:#000000;clip-rule:nonzero;display:inline;overflow:visible;visibility:visible;opacity:0.3;isolation:auto;mix-blend-mode:normal;color-interpolation:sRGB;color-interpolation-filters:linearRGB;solid-color:#000000;solid-opacity:1;fill:#000000;fill-opacity:1;fill-rule:nonzero;stroke:none;stroke-width:3.67220545;stroke-linecap:round;stroke-linejoin:miter;stroke-miterlimit:4;stroke-dasharray:none;stroke-dashoffset:0;stroke-opacity:1;marker:none;color-rendering:auto;image-rendering:auto;shape-rendering:auto;text-rendering:auto;enable-background:accumulate"
     id="rect4264"
     width="88.125"
     height="7.34375"
     x="211.60754"
     y="417.44864"
     rx="3.6718631"
     ry="3.671875" />
  <path
     inkscape:connector-curvature="0"
     id="rect4218"
     d="m 211.9375,395.4171 h 88.125 l 3.67202,11.01562 h -95.46878 z"
     style="color:#000000;clip-rule:nonzero;display:inline;overflow:visible;visibility:visible;opacity:1;isolation:auto;mix-blend-mode:normal;color-interpolation:sRGB;color-interpolation-filters:linearRGB;solid-color:#000000;solid-opacity:1;fill:#ffffff;fill-opacity:1;fill-rule:nonzero;stroke:none;stroke-width:3.67220545;stroke-linecap:round;stroke-linejoin:round;stroke-miterlimit:4;stroke-dasharray:none;stroke-dashoffset:0;stroke-opacity:1;marker:none;color-rendering:auto;image-rendering:auto;shape-rendering:auto;text-rendering:auto;enable-background:accumulate" />
  <path
     inkscape:connector-curvature="0"
     id="rect4410"
     d="m 212.16699,422.95616 c -0.32349,0.54733 -0.55941,1.15161 -0.55941,1.83598 0,2.03421 1.63766,3.67183 3.67188,3.67183 h 80.78125 c 2.03422,0 3.67187,-1.63762 3.67187,-3.67183 0,-0.68437 -0.2361,-1.28865 -0.55937,-1.83598 -0.63799,1.07968 -1.76261,1.83598 -3.1125,1.83598 h -80.78125 c -1.34989,0 -2.47452,-0.7563 -3.11247,-1.83598 z"
     style="color:#000000;clip-rule:nonzero;display:inline;overflow:visible;visibility:visible;opacity:0.7;isolation:auto;mix-blend-mode:normal;color-interpolation:sRGB;color-interpolation-filters:linearRGB;solid-color:#000000;solid-opacity:1;fill:#ffffff;fill-opacity:1;fill-rule:nonzero;stroke:none;stroke-width:3.67220545;stroke-linecap:round;stroke-linejoin:miter;stroke-miterlimit:4;stroke-dasharray:none;stroke-dashoffset:0;stroke-opacity:1;marker:none;color-rendering:auto;image-rendering:auto;shape-rendering:auto;text-rendering:auto;enable-background:accumulate" />
  <path
     style="stroke-width:13.23265934"
     inkscape:connector-curvature="0"
     d="m 235.35468,132.299 -6.77637,3.91739 9.37775,16.25102 c -17.14111,8.28363 -17.21252,27.60531 -17.21252,27.60531 h 70.51291 c 0,0 -0.0794,-19.32423 -17.21251,-27.60531 l 9.37775,-16.25102 -6.77892,-3.91739 -10.14541,17.56702 c -3.11147,-0.6963 -6.54173,-1.13232 -10.48205,-1.13232 -3.95055,0 -7.39611,0.4335 -10.51522,1.13232 z m 4.99109,32.1042 c 2.17037,0 3.90207,1.74699 3.90207,3.90207 0,2.15506 -1.75465,3.93269 -3.90207,3.93269 -2.17038,0 -3.93269,-1.75466 -3.93269,-3.93269 0,-2.15508 1.76231,-3.90207 3.93269,-3.90207 z m 31.33906,0 c 2.17039,0 3.90209,1.74699 3.90209,3.90207 0,2.15506 -1.75467,3.93269 -3.90209,3.93269 -2.17037,0 -3.93269,-1.75466 -3.93269,-3.93269 0,-2.15508 1.76232,-3.90207 3.93269,-3.90207 z m 31.66806,19.57671 c -4.50396,0 -8.17905,4.152 -8.17905,9.26807 v 36.27915 c 0,5.11606 3.67509,9.29104 8.17905,9.29104 4.50652,0 7.49046,-4.17498 7.49046,-9.29104 v -36.27915 c 0,-5.12372 -2.97628,-9.27573 -7.49046,-9.27573 m -82.60935,0.008 -0.003,66.5955 c 0,1.84648 2.07091,3.91739 3.91994,3.91739 h 11.75215 v 14.69018 c 0,4.87379 3.10126,8.81411 7.83476,8.81411 4.70035,0 7.99033,-3.94543 7.83477,-8.81156 v -14.69018 h 7.83476 v 14.69018 c 0,4.87378 3.10127,8.81413 7.83477,8.81413 4.70034,0 7.83476,-4.00921 7.83476,-8.81413 V 254.49569 H 287.339 c 1.84903,0 3.91739,-2.06837 3.91739,-3.91738 V 183.9828 Z m -11.40785,0 c -4.50651,10e-6 -8.17906,4.15201 -8.17906,9.26808 v 36.27915 c 0,5.11606 3.67255,9.29104 8.17906,9.29104 4.50654,0 7.49047,-4.17498 7.49047,-9.29104 v -36.27915 c 0,-5.12372 -2.97629,-9.27573 -7.49047,-9.27573 m -3.60368,-3.60368"
     id="path92" />
  <g
     transform="matrix(0.44333542,0,0,0.44333542,170.8796,117.6921)"
     id="g102">
    <g
       transform="matrix(1.4726938,0,0,1.4726938,-582.34212,-46.494662)"
       id="g96">
      <path
         inkscape:connector-curvature="0"
         style="fill:#0aa15c"
         d="m 494.17872,47.358563 -10.37891,6 14.36328,24.890624 c -26.25391,12.6875 -26.36328,42.281253 -26.36328,42.281253 h 108 c 0,0 -0.1211,-29.597663 -26.36328,-42.281253 l 14.36328,-24.890624 -10.38281,-6 -15.53907,26.906254 c -4.76562,-1.06641 -10.01953,-1.73438 -16.05468,-1.73438 -6.05079,0 -11.32813,0.66406 -16.10547,1.73438 z m 7.64453,49.171874 c 3.32422,0 5.97656,2.67578 5.97656,5.976563 0,3.30078 -2.6875,6.02344 -5.97656,6.02344 -3.32422,0 -6.02344,-2.6875 -6.02344,-6.02344 0,-3.300783 2.69922,-5.976563 6.02344,-5.976563 z m 48,0 c 3.32422,0 5.97656,2.67578 5.97656,5.976563 0,3.30078 -2.6875,6.02344 -5.97656,6.02344 -3.32422,0 -6.02344,-2.6875 -6.02344,-6.02344 0,-3.300783 2.69922,-5.976563 6.02344,-5.976563 z m 48.50389,29.984373 c -6.89842,0 -12.52733,6.35938 -12.52733,14.19532 v 55.56639 c 0,7.83594 5.62891,14.23047 12.52733,14.23047 6.90236,0 11.47266,-6.39453 11.47266,-14.23047 v -55.56639 c 0,-7.84767 -4.55859,-14.20704 -11.47266,-14.20704 m -126.52733,0.0117 -0.004,101.99999 c 0,2.82813 3.17188,6 6.00391,6 h 18 v 22.5 c 0,7.46486 4.75,13.5 12,13.5 7.19922,0 12.23827,-6.04296 12,-13.49608 v -22.5 h 12 v 22.5 c 0,7.46484 4.74999,13.5 12,13.5 7.19922,0 12,-6.14063 12,-13.5 v -22.5 h 17.99999 c 2.83204,0 6,-3.16797 6,-6 v -102 z m -17.47266,0 c -6.90234,2e-5 -12.52734,6.3594 -12.52734,14.19534 v 55.56639 c 0,7.83594 5.625,14.23047 12.52734,14.23047 6.90235,0 11.47266,-6.39453 11.47266,-14.23047 v -55.56639 c 0,-7.84767 -4.55859,-14.20704 -11.47266,-14.20704 m -5.51953,-5.51953"
         id="path94" />
    </g>
    <g
       transform="matrix(1.4726938,0,0,1.4726938,-293.52855,-38.8137)"
       id="g100">
      <path
         inkscape:connector-curvature="0"
         style="opacity:0.3;fill:#0c264f"
         d="m 177.85547,40.279297 -4.32617,2.501953 23.75976,41.175781 c 1.4383,-0.793853 2.9163,-1.562812 4.44336,-2.300781 z m 156.28711,0.002 -23.875,41.375 c 1.52691,0.737998 3.0052,1.506835 4.44336,2.300781 L 338.4707,42.78125 Z M 208.91992,117.55278 c -6.52741,0 -11.82812,5.25495 -11.82812,11.73633 0,1.80062 0.41252,3.49841 1.1289,5.02344 1.88974,-3.98988 5.9661,-6.75977 10.69922,-6.75977 4.72228,0 8.74253,2.7573 10.61133,6.73243 0.71326,-1.52335 1.125,-3.21335 1.125,-4.9961 0,-6.48138 -5.20891,-11.73633 -11.73633,-11.73633 z m 94.25196,0 c -6.52742,0 -11.82813,5.25495 -11.82813,11.73633 0,1.80074 0.41438,3.49833 1.13086,5.02344 1.8898,-3.98971 5.96426,-6.75977 10.69727,-6.75977 4.72228,0 8.74253,2.7573 10.61132,6.73243 0.71327,-1.52335 1.125,-3.21335 1.125,-4.9961 0,-6.48138 -5.20891,-11.73633 -11.73632,-11.73633 z m -152.28516,47.12696 c -0.89879,6.13692 -0.91992,10 -0.91992,10 h 212.0664 c 0,0 -0.0215,-3.86371 -0.92187,-10 z M 91.058594,313.41406 v 10 c 0,15.38659 11.044276,27.94336 24.597656,27.94336 13.5534,0 22.52734,-12.55677 22.52734,-27.94336 v -10 c 0,15.38659 -8.97394,27.94336 -22.52734,27.94336 -13.55338,0 -24.597656,-12.55677 -24.597656,-27.94336 z m 282.757816,0 v 10 c 0,15.38659 11.05197,27.94336 24.59765,27.94336 13.55342,0 22.52735,-12.55677 22.52735,-27.94336 v -10 c 0,15.38659 -8.97393,27.94336 -22.52735,27.94336 -13.54568,0 -24.59765,-12.55677 -24.59765,-27.94336 z m -223.85743,63.3086 v 9.99414 c 0,5.55329 6.22812,11.78125 11.78907,11.78125 h 35.34375 v -10 h -35.34375 c -5.55901,0 -11.78473,-6.22357 -11.78907,-11.77539 z m 212.07422,0.002 c 0,5.56096 -6.22027,11.78125 -11.78125,11.78125 H 314.9082 v 10 h 35.34375 c 5.56097,0 11.78125,-6.2203 11.78125,-11.78125 z m -117.81445,11.78125 v 10 h 23.5625 v -10 z m -47.12695,44.17383 v 10 c 0,14.65793 9.32646,26.50781 23.5625,26.50781 14.13633,0 24.03232,-11.86512 23.56445,-26.5 v -8.24414 c -0.34427,13.81537 -9.99875,24.74414 -23.56445,24.74414 -14.23604,0 -23.5625,-11.84987 -23.5625,-26.50781 z m 70.68945,0.008 v 10 c 0,14.6579 9.32644,26.50781 23.5625,26.50781 14.13633,0 23.56445,-12.05701 23.56445,-26.50781 v -10 c 0,14.45079 -9.42813,26.50781 -23.56445,26.50781 -14.23607,0 -23.5625,-11.84992 -23.5625,-26.50781 z"
         transform="matrix(0.50927083,0,0,0.50927083,199.31404,26.355581)"
         id="path98" />
    </g>
  </g>
</svg>
