<?xml version="1.0" encoding="UTF-8" standalone="no"?>
<svg
   xmlns:dc="http://purl.org/dc/elements/1.1/"
   xmlns:cc="http://creativecommons.org/ns#"
   xmlns:rdf="http://www.w3.org/1999/02/22-rdf-syntax-ns#"
   xmlns:svg="http://www.w3.org/2000/svg"
   xmlns="http://www.w3.org/2000/svg"
   xmlns:sodipodi="http://sodipodi.sourceforge.net/DTD/sodipodi-0.dtd"
   xmlns:inkscape="http://www.inkscape.org/namespaces/inkscape"
   width="18pt"
   height="18pt"
   version="1.1"
   viewBox="0 0 18 18"
   id="svg8"
   sodipodi:docname="emblem-symbolic-link.svg"
   inkscape:version="0.92.4 5da689c313, 2019-01-14">
  <metadata
     id="metadata14">
    <rdf:RDF>
      <cc:Work
         rdf:about="">
        <dc:format>image/svg+xml</dc:format>
        <dc:type
           rdf:resource="http://purl.org/dc/dcmitype/StillImage" />
      </cc:Work>
    </rdf:RDF>
  </metadata>
  <defs
     id="defs12" />
  <sodipodi:namedview
     pagecolor="#ffffff"
     bordercolor="#666666"
     borderopacity="1"
     objecttolerance="10"
     gridtolerance="10"
     guidetolerance="10"
     inkscape:pageopacity="0"
     inkscape:pageshadow="2"
     inkscape:window-width="1366"
     inkscape:window-height="693"
     id="namedview10"
     showgrid="false"
     inkscape:zoom="9.8333333"
     inkscape:cx="0.050847458"
     inkscape:cy="12.050847"
     inkscape:window-x="0"
     inkscape:window-y="0"
     inkscape:window-maximized="1"
     inkscape:current-layer="g6" />
  <g
     id="g6">
    <path
       style="fill:rgb(6.666%,17.647%,36.078%)"
       d="M 16.5 9 C 16.5 13.140625 13.140625 16.5 9 16.5 C 4.859375 16.5 1.5 13.140625 1.5 9 C 1.5 4.859375 4.859375 1.5 9 1.5 C 13.140625 1.5 16.5 4.859375 16.5 9 Z M 16.5 9"
       id="path2" />
    <path
       style="fill-rule:evenodd;fill:rgb(100.000%,100.000%,100.000%)"
       d="M 10.125 5.25 L 10.125 7.125 L 7.875 7.125 C 6.804688 7.125 5.8125 7.695312 5.277344 8.625 C 4.742188 9.554688 4.742188 10.695312 5.277344 11.625 C 5.789062 12.503906 6.710938 13.066406 7.726562 13.117188 C 6.957031 13.039062 6.375 12.394531 6.375 11.625 C 6.375 10.796875 7.046875 10.125 7.875 10.125 L 10.125 10.125 L 10.125 12 L 14.25 8.625 Z M 10.125 5.25"
       id="path4" />
  </g>
</svg>
