<?xml version="1.0" encoding="UTF-8" standalone="no"?>
<svg
   xmlns:dc="http://purl.org/dc/elements/1.1/"
   xmlns:cc="http://creativecommons.org/ns#"
   xmlns:rdf="http://www.w3.org/1999/02/22-rdf-syntax-ns#"
   xmlns:svg="http://www.w3.org/2000/svg"
   xmlns="http://www.w3.org/2000/svg"
   xmlns:xlink="http://www.w3.org/1999/xlink"
   xmlns:sodipodi="http://sodipodi.sourceforge.net/DTD/sodipodi-0.dtd"
   xmlns:inkscape="http://www.inkscape.org/namespaces/inkscape"
   width="512"
   height="512"
   version="1.1"
   viewBox="0 0 384 384"
   id="svg16"
   sodipodi:docname="aptana.svg"
   inkscape:version="0.92.4 5da689c313, 2019-01-14">
  <metadata
     id="metadata20">
    <rdf:RDF>
      <cc:Work
         rdf:about="">
        <dc:format>image/svg+xml</dc:format>
        <dc:type
           rdf:resource="http://purl.org/dc/dcmitype/StillImage" />
      </cc:Work>
    </rdf:RDF>
  </metadata>
  <sodipodi:namedview
     pagecolor="#ffffff"
     bordercolor="#666666"
     borderopacity="1"
     objecttolerance="10"
     gridtolerance="10"
     guidetolerance="10"
     inkscape:pageopacity="0"
     inkscape:pageshadow="2"
     inkscape:window-width="1366"
     inkscape:window-height="711"
     id="namedview18"
     showgrid="false"
     inkscape:zoom="0.921875"
     inkscape:cx="170.57095"
     inkscape:cy="274.33044"
     inkscape:window-x="0"
     inkscape:window-y="25"
     inkscape:window-maximized="1"
     inkscape:current-layer="svg16" />
  <defs
     id="defs6">
    <linearGradient
       inkscape:collect="always"
       id="linearGradient901">
      <stop
         style="stop-color:#000000;stop-opacity:1;"
         offset="0"
         id="stop897" />
      <stop
         style="stop-color:#000000;stop-opacity:0;"
         offset="1"
         id="stop899" />
    </linearGradient>
    <linearGradient
       inkscape:collect="always"
       id="linearGradient869">
      <stop
         style="stop-color:#ffffff;stop-opacity:1;"
         offset="0"
         id="stop865" />
      <stop
         style="stop-color:#ffffff;stop-opacity:0;"
         offset="1"
         id="stop867" />
    </linearGradient>
    <linearGradient
       inkscape:collect="always"
       id="linearGradient837">
      <stop
         style="stop-color:#fc3900;stop-opacity:1;"
         offset="0"
         id="stop833" />
      <stop
         style="stop-color:#ff5625;stop-opacity:1"
         offset="1"
         id="stop835" />
    </linearGradient>
    <clipPath
       id="clipPath4">
      <rect
         width="384"
         height="384"
         id="rect2" />
    </clipPath>
    <linearGradient
       inkscape:collect="always"
       xlink:href="#linearGradient837"
       id="linearGradient839"
       x1="184.88036"
       y1="363.43146"
       x2="195.668"
       y2="28.622379"
       gradientUnits="userSpaceOnUse" />
    <linearGradient
       inkscape:collect="always"
       xlink:href="#linearGradient869"
       id="linearGradient871"
       x1="183.72981"
       y1="24.020193"
       x2="182.12659"
       y2="104.60224"
       gradientUnits="userSpaceOnUse" />
    <linearGradient
       inkscape:collect="always"
       xlink:href="#linearGradient901"
       id="linearGradient903"
       x1="202.05508"
       y1="362.84744"
       x2="201.47034"
       y2="340.88135"
       gradientUnits="userSpaceOnUse" />
  </defs>
  <rect
     style="opacity:1;fill:url(#linearGradient839);fill-opacity:1;fill-rule:evenodd;stroke:none;stroke-width:0.78492981;stroke-linejoin:round;stroke-miterlimit:4;stroke-dasharray:none;stroke-opacity:1;paint-order:stroke fill markers"
     id="rect831"
     width="352.5"
     height="352.5"
     x="15.75"
     y="15.75"
     rx="68.338982"
     ry="68.338982" />
  <path
     style="fill:#ffffff;stroke:none;stroke-width:10.21914482;fill-opacity:1"
     d="m 162.38323,79.518337 c -1.19702,0.09 -7.78385,2.4784 -14.6369,5.3055 -11.20293,4.6243 -12.61888,5.351 -14.01022,7.21181 -1.84365,2.4651 -2.45532,5.5207 -1.70241,8.518103 0.26873,1.0649 2.06498,6.42401 3.99373,11.91051 1.92875,5.4865 3.34063,10.36641 3.13844,10.84561 -0.20484,0.479 -1.71866,2.0203 -3.36808,3.4232 -1.64942,1.4029 -4.72208,4.3788 -6.82906,6.61491 -2.10433,2.2335 -4.19001,4.2087 -4.63163,4.3924 -0.50862,0.208 -4.98765,-1.1495 -12.22411,-3.7077 -12.78282,-4.51751 -14.150633,-4.70921 -18.143788,-2.54501 l -2.2607,1.2246 -5.590005,12.78771 c -3.075393,7.03331 -5.764214,13.56061 -5.971721,14.50831 -0.518732,2.33231 1.036995,6.54871 3.120074,8.47331 1.095991,1.009 5.355082,3.3682 11.825049,6.54411 5.562521,2.7286 10.389201,5.2918 10.721741,5.6937 0.33255,0.405 0.45444,3.029 0.27353,5.8375 -0.18356,2.80841 -0.20004,7.15591 -0.0378,9.66091 0.16228,2.5077 0.11222,4.9883 -0.11125,5.5181 -0.24178,0.57201 -4.58145,2.85371 -10.639077,5.59291 -5.626409,2.5476 -11.050696,5.3037 -12.05367,6.1289 -2.200064,1.8072 -3.942841,5.59171 -3.72735,8.10201 0.218082,2.5311 10.149826,26.58582 11.506611,27.86902 1.708227,1.6158 5.699195,3.1365 7.822128,2.9821 1.031889,-0.07 6.753818,-1.8722 12.712998,-3.9912 6.68527,-2.3746 11.21908,-3.6897 11.83628,-3.4262 0.55071,0.232 2.32746,1.9893 3.95291,3.9033 1.6228,1.9138 4.66393,5.0363 6.7576,6.9343 2.77475,2.52101 3.78789,3.76901 3.74266,4.62091 -0.0346,0.641 -1.76614,5.9448 -3.85186,11.78271 -2.46351,6.9056 -3.79323,11.314 -3.7988,12.6051 -0.016,2.50511 1.06886,5.48571 2.58526,7.11491 h 0.001 c 0.88,0.945 4.36742,2.6195 14.07248,6.7537 10.96361,4.66921 13.18278,5.47551 14.77367,5.36641 5.48831,-0.373 6.58111,-1.5709 12.94468,-14.18901 2.89445,-5.73691 5.55723,-10.83981 5.92171,-11.33761 0.50013,-0.687 1.70063,-0.817 5.00212,-0.543 2.38847,0.197 6.87902,0.269 9.97567,0.155 3.09664,-0.112 5.97841,-0.05 6.4014,0.128 0.42564,0.181 2.96066,5.1208 5.63696,10.97731 2.67628,5.8563 5.43454,11.24721 6.12889,11.97931 1.81448,1.9113 5.73919,3.4373 8.33041,3.2376 3.09915,-0.237 25.48379,-9.51211 27.3407,-11.32761 2.1044,-2.0575 3.10712,-4.7539 2.89962,-7.7886 -0.0984,-1.42941 -1.86742,-7.36011 -3.93454,-13.18201 -2.06713,-5.81881 -3.7006,-10.89801 -3.63142,-11.28671 0.0691,-0.389 1.89908,-2.2151 4.06723,-4.05991 2.17072,-1.8449 5.45331,-5.0076 7.29957,-7.0282 1.84359,-2.0204 3.51517,-3.7396 3.71203,-3.8194 0.19649,-0.08 5.76418,1.746 12.37517,4.054 13.52821,4.7251 14.26556,4.8131 18.41833,2.2256 l 2.32706,-1.4511 5.39812,-12.30371 c 5.6426,-12.86571 6.26247,-14.94201 5.50427,-18.38671 -0.80336,-3.6444 -2.50776,-4.94381 -14.05922,-10.71781 -5.82108,-2.9123 -10.93967,-5.6591 -11.37597,-6.109 -0.53739,-0.559 -0.65961,-2.09251 -0.37763,-4.84241 0.22613,-2.2095 0.28392,-6.7269 0.1296,-10.03321 -0.15165,-3.3089 -0.19702,-6.208 -0.096,-6.4422 0.0983,-0.234 5.12979,-2.699 11.18205,-5.4782 11.1256,-5.11091 13.195,-6.44731 14.40011,-9.31161 1.70795,-4.0464 1.44467,-5.364 -3.60997,-18.04331 -2.94239,-7.38431 -5.45939,-12.85771 -6.41978,-13.95451 -2.01912,-2.30791 -5.47143,-3.78491 -8.31,-3.55591 -1.2026,0.1 -7.12509,1.93461 -13.16411,4.08291 -6.03869,2.1482 -11.16556,3.8281 -11.39435,3.7296 -0.22881,-0.1 -1.91516,-1.9433 -3.75083,-4.1049 -1.83558,-2.15921 -5.03566,-5.47041 -7.11073,-7.35251 -2.91842,-2.654 -3.72692,-3.6822 -3.57529,-4.5499 0.1065,-0.617 1.9178,-6.09061 4.02742,-12.16001 4.35498,-12.541213 4.54155,-14.135913 2.06475,-17.878713 l -1.44012,-2.17471 -12.73238,-5.569 c -13.97734,-6.1147 -15.51185,-6.5142 -19.13789,-4.9542 -3.25919,1.4001 -4.36828,2.9759 -9.6358,13.67201 -2.74011,5.5608 -5.44303,10.525703 -6.00438,11.034203 -0.76622,0.68701 -2.16105,0.83401 -5.48385,0.58101 -2.45048,-0.186 -6.99696,-0.23101 -10.10428,-0.104 -3.27486,0.136 -5.84711,-0.03 -6.12378,-0.38901 -0.26073,-0.341 -2.55334,-5.1907 -5.09398,-10.775703 -2.54335,-5.58741 -5.23336,-10.88761 -5.98091,-11.77671 -1.77413,-2.1164 -5.40849,-3.6389 -8.18853,-3.4313 z m 29.58304,74.851153 c 1.4944,0 2.97114,0.08 4.42647,0.224 1.45534,0.148 2.88886,0.369 4.29789,0.658 1.40902,0.289 2.79339,0.647 4.14888,1.0699 1.35546,0.423 2.68272,0.91 3.97739,1.4592 1.29468,0.549 2.55685,1.1589 3.78349,1.8263 1.22663,0.668 2.41781,1.39201 3.56915,2.17081 1.15135,0.779 2.26254,1.6115 3.33135,2.494 1.06881,0.883 2.09511,1.8155 3.07415,2.7945 0.97903,0.979 1.91145,2.004 2.79346,3.0719 0.88202,1.068 1.71363,2.1789 2.49137,3.3285 0.77773,1.1495 1.50159,2.33721 2.16783,3.56091 0.66622,1.2237 1.27434,2.4831 1.82182,3.7736 0.54748,1.2904 1.03396,2.6124 1.45543,3.9621 0.42147,1.3498 0.77833,2.7272 1.06656,4.12891 0.28822,1.4016 0.50751,2.8274 0.65524,4.2735 0.14775,1.4461 0.22352,2.9122 0.22352,4.3953 0,1.4832 -0.0757,2.9503 -0.22352,4.3964 -0.14775,1.44611 -0.36702,2.87191 -0.65524,4.27351 -0.28823,1.4016 -0.64509,2.7791 -1.06656,4.1288 -0.42147,1.3498 -0.90795,2.6718 -1.45543,3.9622 -0.54748,1.2904 -1.1556,2.54891 -1.82182,3.77261 -0.66624,1.2237 -1.3901,2.4124 -2.16783,3.5619 -0.77774,1.1496 -1.60935,2.2605 -2.49137,3.3285 -0.88201,1.0679 -1.81443,2.0929 -2.79346,3.0719 -0.97904,0.979 -2.00534,1.91191 -3.07415,2.79451 -1.06881,0.883 -2.18,1.7153 -3.33135,2.494 -1.15134,0.779 -2.34252,1.5032 -3.56915,2.1707 -1.22664,0.668 -2.48881,1.2776 -3.78349,1.8264 -1.29467,0.549 -2.62193,1.0364 -3.97739,1.4591 -1.35549,0.423 -2.73986,0.781 -4.14888,1.0699 -1.40903,0.289 -2.84255,0.51 -4.29789,0.659 -1.45533,0.148 -2.93207,0.225 -4.42647,0.225 -1.49441,0 -2.97114,-0.08 -4.42649,-0.225 -1.45535,-0.148 -2.88884,-0.369 -4.29788,-0.659 -1.40905,-0.289 -2.79337,-0.647 -4.14888,-1.0699 -1.3555,-0.423 -2.68269,-0.91 -3.9774,-1.4591 -1.29471,-0.549 -2.55682,-1.1588 -3.78349,-1.8264 -1.22667,-0.668 -2.41776,-1.3919 -3.56915,-2.1707 -1.15139,-0.779 -2.26351,-1.6115 -3.33236,-2.494 -1.06886,-0.883 -2.09405,-1.81551 -3.07313,-2.79451 -0.97907,-0.979 -1.91244,-2.004 -2.79449,-3.0719 -0.88205,-1.068 -1.71358,-2.1789 -2.49136,-3.3285 -0.77779,-1.1495 -1.50156,-2.3382 -2.16783,-3.5619 -0.66627,-1.2237 -1.27432,-2.48211 -1.82183,-3.77261 -0.5475,-1.2904 -1.03392,-2.6124 -1.45542,-3.9622 -0.4215,-1.3497 -0.77831,-2.7271 -1.06656,-4.1288 -0.28825,-1.4016 -0.50852,-2.8274 -0.65627,-4.27351 -0.14775,-1.4462 -0.22352,-2.9132 -0.22352,-4.3964 0,-1.4831 0.0758,-2.9492 0.22352,-4.3953 0.14775,-1.4461 0.36802,-2.8719 0.65627,-4.2735 0.28825,-1.40171 0.64506,-2.77911 1.06656,-4.12891 0.4215,-1.3497 0.90792,-2.6717 1.45542,-3.9621 0.54751,-1.2905 1.15556,-2.5499 1.82183,-3.7736 0.66627,-1.2237 1.39004,-2.41141 2.16783,-3.56091 0.77778,-1.1496 1.60931,-2.2605 2.49136,-3.3285 0.88205,-1.0679 1.81542,-2.0929 2.79449,-3.0719 0.97908,-0.979 2.00427,-1.9119 3.07313,-2.7945 1.06885,-0.882 2.18097,-1.7143 3.33236,-2.493 1.15139,-0.779 2.34248,-1.50431 3.56915,-2.17181 1.22667,-0.667 2.48878,-1.2775 3.78349,-1.8263 1.29471,-0.549 2.6219,-1.0364 3.9774,-1.4592 1.35551,-0.423 2.73983,-0.781 4.14888,-1.0699 1.40904,-0.289 2.84253,-0.509 4.29788,-0.658 1.45535,-0.148 2.93208,-0.224 4.42649,-0.224 z"
     id="path10"
     inkscape:connector-curvature="0" />
  <rect
     style="opacity:0.4;fill:none;fill-opacity:1;fill-rule:evenodd;stroke:url(#linearGradient871);stroke-width:7.34375;stroke-linejoin:round;stroke-miterlimit:4;stroke-dasharray:none;stroke-opacity:1;paint-order:stroke fill markers"
     id="rect831-4"
     width="345.15625"
     height="345.15625"
     x="19.421875"
     y="19.421875"
     rx="66.915245"
     ry="66.915245" />
  <rect
     style="opacity:0.4;fill:none;fill-opacity:1;fill-rule:evenodd;stroke:url(#linearGradient903);stroke-width:7.34374952;stroke-linejoin:round;stroke-miterlimit:4;stroke-dasharray:none;stroke-opacity:1;paint-order:stroke fill markers"
     id="rect831-4-6"
     width="345.15625"
     height="345.15625"
     x="19.421875"
     y="19.421875"
     rx="66.915237"
     ry="66.915237" />
</svg>
