<?xml version="1.0" encoding="UTF-8" standalone="no"?>
<svg
   xmlns:dc="http://purl.org/dc/elements/1.1/"
   xmlns:cc="http://creativecommons.org/ns#"
   xmlns:rdf="http://www.w3.org/1999/02/22-rdf-syntax-ns#"
   xmlns:svg="http://www.w3.org/2000/svg"
   xmlns="http://www.w3.org/2000/svg"
   xmlns:xlink="http://www.w3.org/1999/xlink"
   xmlns:sodipodi="http://sodipodi.sourceforge.net/DTD/sodipodi-0.dtd"
   xmlns:inkscape="http://www.inkscape.org/namespaces/inkscape"
   width="512"
   height="512"
   version="1.1"
   viewBox="0 0 384 384"
   id="svg16"
   sodipodi:docname="chrome-lainlkmlgipednloilifbppmhdocjbda-Default.svg"
   inkscape:version="0.92.4 5da689c313, 2019-01-14">
  <metadata
     id="metadata22">
    <rdf:RDF>
      <cc:Work
         rdf:about="">
        <dc:format>image/svg+xml</dc:format>
        <dc:type
           rdf:resource="http://purl.org/dc/dcmitype/StillImage" />
      </cc:Work>
    </rdf:RDF>
  </metadata>
  <defs
     id="defs20">
    <linearGradient
       inkscape:collect="always"
       id="linearGradient905">
      <stop
         style="stop-color:#ffffff;stop-opacity:1;"
         offset="0"
         id="stop901" />
      <stop
         style="stop-color:#ffffff;stop-opacity:0;"
         offset="1"
         id="stop903" />
    </linearGradient>
    <linearGradient
       inkscape:collect="always"
       id="linearGradient873">
      <stop
         style="stop-color:#ffffff;stop-opacity:1;"
         offset="0"
         id="stop869" />
      <stop
         style="stop-color:#ffffff;stop-opacity:0;"
         offset="1"
         id="stop871" />
    </linearGradient>
    <linearGradient
       inkscape:collect="always"
       id="linearGradient841">
      <stop
         style="stop-color:#0099ff;stop-opacity:1;"
         offset="0"
         id="stop837" />
      <stop
         style="stop-color:#99ccff;stop-opacity:1"
         offset="1"
         id="stop839" />
    </linearGradient>
    <linearGradient
       inkscape:collect="always"
       id="linearGradient833">
      <stop
         style="stop-color:#0066cc;stop-opacity:1;"
         offset="0"
         id="stop829" />
      <stop
         style="stop-color:#0099ff;stop-opacity:1"
         offset="1"
         id="stop831" />
    </linearGradient>
    <linearGradient
       inkscape:collect="always"
       xlink:href="#linearGradient833"
       id="linearGradient835"
       x1="15.408502"
       y1="173.70858"
       x2="288.28237"
       y2="173.70858"
       gradientUnits="userSpaceOnUse" />
    <linearGradient
       inkscape:collect="always"
       xlink:href="#linearGradient841"
       id="linearGradient843"
       x1="144.17792"
       y1="236.35393"
       x2="367.37356"
       y2="236.35393"
       gradientUnits="userSpaceOnUse" />
    <linearGradient
       inkscape:collect="always"
       xlink:href="#linearGradient873"
       id="linearGradient875"
       x1="248.63132"
       y1="109.43867"
       x2="248.27611"
       y2="133.03189"
       gradientUnits="userSpaceOnUse"
       gradientTransform="translate(0,4.5)" />
    <linearGradient
       inkscape:collect="always"
       xlink:href="#linearGradient905"
       id="linearGradient907"
       x1="149.94994"
       y1="32.890244"
       x2="150.45332"
       y2="59.640453"
       gradientUnits="userSpaceOnUse" />
  </defs>
  <sodipodi:namedview
     pagecolor="#ffffff"
     bordercolor="#666666"
     borderopacity="1"
     objecttolerance="10"
     gridtolerance="10"
     guidetolerance="10"
     inkscape:pageopacity="0"
     inkscape:pageshadow="2"
     inkscape:window-width="1366"
     inkscape:window-height="710"
     id="namedview18"
     showgrid="false"
     inkscape:zoom="0.65186406"
     inkscape:cx="52.033507"
     inkscape:cy="238.70523"
     inkscape:window-x="0"
     inkscape:window-y="25"
     inkscape:window-maximized="1"
     inkscape:current-layer="svg16" />
  <path
     d="m 288.28237,48.336851 c 0,-4.437777 -1.70269,-8.258369 -5.07968,-11.405361 -3.37698,-3.146604 -7.47732,-4.733137 -12.24043,-4.733137 H 32.728609 c -4.762697,0 -8.86302,1.586533 -12.240424,4.733137 -3.376989,3.146604 -5.079683,6.967196 -5.079683,11.405361 V 240.92712 c 0,4.43777 1.702694,8.25836 5.079683,11.40536 3.376988,3.1466 7.477311,4.73313 12.240424,4.73313 h 18.790289 v 45.18815 c 0,3.57825 1.357308,6.64537 4.071923,9.17469 2.714615,2.52564 6.002136,3.79035 9.84238,3.79035 3.840243,0 7.131924,-1.26471 9.842378,-3.79035 L 133.6189,257.06542 h 18.29925 V 135.51874 c 0,-4.43777 1.7027,-8.25836 5.08375,-11.40536 3.37699,-3.1466 7.47325,-4.73691 12.23626,-4.73691 h 119.04401 z"
     id="path2"
     style="fill:url(#linearGradient835);stroke-width:1.00420856;fill-opacity:1"
     inkscape:connector-curvature="0" />
  <path
     d="m 286.78237,51.336854 c 0,-4.43777 -1.70269,-8.25837 -5.07968,-11.40536 -3.37698,-3.1466 -7.47732,-4.73313 -12.24043,-4.73313 H 31.22862 c -4.762696,0 -8.863019,1.58653 -12.240423,4.73313 -3.376989,3.14661 -5.079683,6.9672 -5.079683,11.40536 V 243.92712 c 0,4.43777 1.702694,8.25836 5.079683,11.40536 3.376988,3.1466 7.47731,4.73313 12.240423,4.73313 h 18.790289 v 45.18815 c 0,3.57825 1.357308,6.64537 4.071923,9.17469 2.714615,2.52564 6.002136,3.79035 9.84238,3.79035 3.840243,0 7.131924,-1.26471 9.842377,-3.79035 L 132.1189,260.06542 h 18.29925 V 138.51874 c 0,-4.43776 1.70271,-8.25835 5.08375,-11.40535 3.377,-3.1466 7.47326,-4.73691 12.23627,-4.73691 h 119.044 z"
     id="path2-4"
     style="fill:none;fill-opacity:1;stroke:url(#linearGradient907);stroke-width:7.5;stroke-miterlimit:4;stroke-dasharray:none;stroke-opacity:1;opacity:0.4"
     inkscape:connector-curvature="0" />
  <path
     d="m362.06 134.33c0-4.5781-1.6367-8.5195-4.8828-11.766-3.2461-3.2461-7.1875-4.8867-11.766-4.8867h-184.61c-4.5781 0-8.5156 1.6406-11.762 4.8867-3.25 3.2461-4.8867 7.1875-4.8867 11.766v154.28c0 4.5781 1.6367 8.5195 4.8867 11.766 3.2461 3.2461 7.1836 4.8828 11.762 4.8828h87.629l56.082 56.078c2.6055 2.6094 5.7695 3.9141 9.4609 3.9141s6.8516-1.3047 9.4609-3.9141c2.6094-2.6055 3.9141-5.7695 3.9141-9.4609v-46.617h18.062c4.5781 0 8.5195-1.6367 11.766-4.8828 3.2461-3.2461 4.8828-7.1875 4.8828-11.766zm-163.13 93.648c-5.3008 0-9.7969-1.8867-13.543-5.6328s-5.6055-8.2422-5.6055-13.543c0-5.2695 1.8594-9.793 5.6055-13.539 3.7461-3.7461 8.2422-5.6055 13.543-5.6055 5.2969 0 9.793 1.8594 13.539 5.6055 3.7461 3.7461 5.6055 8.2695 5.6055 13.539 0 5.3008-1.8594 9.7969-5.6055 13.543s-8.2422 5.6328-13.539 5.6328zm73.531-19.176c0 5.3008-1.8867 9.7969-5.6328 13.543s-8.2422 5.6328-13.512 5.6328c-5.3008 0-9.8242-1.8867-13.57-5.6328-3.7461-3.7461-5.6055-8.2422-5.6055-13.543 0-5.2695 1.8594-9.793 5.6055-13.539 3.7461-3.7461 8.2695-5.6055 13.57-5.6055 5.2695 0 9.7656 1.8594 13.512 5.6055 3.7461 3.7461 5.6328 8.2695 5.6328 13.539zm54.387 0c0 5.3008-1.8867 9.7969-5.6328 13.543s-8.2422 5.6328-13.543 5.6328c-5.2695 0-9.793-1.8867-13.539-5.6328-3.7461-3.7461-5.6055-8.2422-5.6055-13.543 0-5.2695 1.8594-9.793 5.6055-13.539 3.7461-3.7461 8.2695-5.6055 13.539-5.6055 5.3008 0 9.7969 1.8594 13.543 5.6055s5.6328 8.2695 5.6328 13.539z"
     opacity=".3"
     id="path4" />
  <path
     d="m 367.37356,128.69175 c 0,-4.60067 -1.67642,-8.5615 -5.00129,-11.824 -3.32488,-3.2621 -7.36194,-4.91079 -12.05154,-4.91079 H 161.23065 c -4.68919,0 -8.72226,1.64869 -12.04744,4.91079 -3.32887,3.2621 -5.00529,7.22293 -5.00529,11.824 v 155.04047 c 0,4.60067 1.67642,8.5615 5.00529,11.824 3.32487,3.2621 7.35793,4.90687 12.04744,4.90687 h 89.75556 l 57.44299,56.35442 c 2.66873,2.62226 5.90951,3.93339 9.6905,3.93339 3.78098,0 7.01787,-1.31113 9.69049,-3.93339 2.67272,-2.61835 4.00909,-5.79794 4.00909,-9.50754 v -46.84678 h 18.50033 c 4.68919,0 8.72624,-1.64477 12.05153,-4.90687 3.32487,-3.2621 5.0013,-7.22293 5.0013,-11.824 z m -167.08881,94.1096 c -5.42944,0 -10.03464,-1.896 -13.87165,-5.66056 -3.83702,-3.76457 -5.74154,-8.28283 -5.74154,-13.60976 0,-5.29547 1.90452,-9.84127 5.74154,-13.60573 3.83701,-3.76457 8.44221,-5.63313 13.87165,-5.63313 5.42545,0 10.03065,1.86856 13.86756,5.63313 3.83702,3.76456 5.74154,8.31026 5.74154,13.60573 0,5.32693 -1.90452,9.84519 -5.74154,13.60976 -3.83701,3.76456 -8.44221,5.66056 -13.86756,5.66056 z m 75.31544,-19.27052 c 0,5.32693 -1.93248,9.84519 -5.7695,13.60976 -3.83701,3.76456 -8.44222,5.66056 -13.83991,5.66056 -5.42944,0 -10.06261,-1.896 -13.89931,-5.66056 -3.83701,-3.76457 -5.74153,-8.28283 -5.74153,-13.60976 0,-5.29547 1.90452,-9.84127 5.74153,-13.60573 3.83702,-3.76457 8.47018,-5.63313 13.89931,-5.63313 5.39739,0 10.00259,1.86856 13.83991,5.63313 3.83702,3.76456 5.7695,8.31026 5.7695,13.60573 z m 55.70686,0 c 0,5.32693 -1.9325,9.84519 -5.76951,13.60976 -3.837,3.76456 -8.44222,5.66056 -13.87166,5.66056 -5.39737,0 -10.03065,-1.896 -13.86756,-5.66056 -3.837,-3.76457 -5.74152,-8.28283 -5.74152,-13.60976 0,-5.29547 1.90452,-9.84127 5.74152,-13.60573 3.83701,-3.76457 8.47019,-5.63313 13.86756,-5.63313 5.42944,0 10.03466,1.86856 13.87166,5.63313 3.83701,3.76456 5.76951,8.31026 5.76951,13.60573 z"
     id="path8"
     style="fill:url(#linearGradient843);stroke-width:1.01455247;fill-opacity:1"
     inkscape:connector-curvature="0" />
  <path
     d="m203.43 189.66c-5.3008 0-9.7969 1.8594-13.543 5.6055s-5.6055 8.2695-5.6055 13.539c0 5.3008 1.8594 9.7969 5.6055 13.543s8.2422 5.6328 13.543 5.6328c5.2969 0 9.793-1.8867 13.539-5.6328 3.7461-3.7461 5.6055-8.2422 5.6055-13.543 0-5.2695-1.8594-9.793-5.6055-13.539-3.7461-3.7461-8.2422-5.6055-13.539-5.6055zm54.383 0c-5.2969 0-9.8203 1.8594-13.566 5.6055-3.7461 3.7461-5.6055 8.2695-5.6055 13.539 0 5.3008 1.8594 9.7969 5.6055 13.543s8.2695 5.6328 13.566 5.6328c5.2734 0 9.7695-1.8867 13.516-5.6328 3.7461-3.7461 5.6328-8.2422 5.6328-13.543 0-5.2695-1.8867-9.793-5.6328-13.539-3.7461-3.7461-8.2422-5.6055-13.516-5.6055zm54.359 0c-5.2695 0-9.793 1.8594-13.539 5.6055-3.7461 3.7461-5.6055 8.2695-5.6055 13.539 0 5.3008 1.8594 9.7969 5.6055 13.543s8.2695 5.6328 13.539 5.6328c5.3008 0 9.7969-1.8867 13.543-5.6328s5.6328-8.2422 5.6328-13.543c0-5.2695-1.8867-9.793-5.6328-13.539-3.7461-3.7461-8.2422-5.6055-13.543-5.6055z"
     opacity=".1"
     id="path10" />
  <path
     d="m203.43 185.16c-5.3008 0-9.7969 1.8594-13.543 5.6055s-5.6055 8.2695-5.6055 13.539c0 5.3008 1.8594 9.7969 5.6055 13.543s8.2422 5.6328 13.543 5.6328c5.2969 0 9.793-1.8867 13.539-5.6328 3.7461-3.7461 5.6055-8.2422 5.6055-13.543 0-5.2695-1.8594-9.793-5.6055-13.539-3.7461-3.7461-8.2422-5.6055-13.539-5.6055zm54.383 0c-5.2969 0-9.8203 1.8594-13.566 5.6055-3.7461 3.7461-5.6055 8.2695-5.6055 13.539 0 5.3008 1.8594 9.7969 5.6055 13.543s8.2695 5.6328 13.566 5.6328c5.2734 0 9.7695-1.8867 13.516-5.6328 3.7461-3.7461 5.6328-8.2422 5.6328-13.543 0-5.2695-1.8867-9.793-5.6328-13.539-3.7461-3.7461-8.2422-5.6055-13.516-5.6055zm54.359 0c-5.2695 0-9.793 1.8594-13.539 5.6055-3.7461 3.7461-5.6055 8.2695-5.6055 13.539 0 5.3008 1.8594 9.7969 5.6055 13.543s8.2695 5.6328 13.539 5.6328c5.3008 0 9.7969-1.8867 13.543-5.6328s5.6328-8.2422 5.6328-13.543c0-5.2695-1.8867-9.793-5.6328-13.539-3.7461-3.7461-8.2422-5.6055-13.543-5.6055z"
     fill="#ccc"
     id="path12"
     style="fill:#ffffff;fill-opacity:1" />
  <path
     d="m 15.9375,232.575 v 7.5 c 0,4.57815 1.6362,8.51925 4.88235,11.766 3.246075,3.24608 7.187475,4.88235 11.766,4.88235 h 18.063 v -7.5 h -18.063 c -4.57815,-1e-5 -8.51925,-1.63627 -11.766,-4.88235 -3.246075,-3.24608 -4.88235,-7.18748 -4.88235,-11.766 z M 129.57,249.22275 73.48725,305.304 c -2.605425,2.6055 -5.76855,3.9111 -9.45975,3.9111 -3.691425,0 -6.852075,-1.30568 -9.46125,-3.9111 -2.6094,-2.6094 -3.9141,-5.77298 -3.9141,-9.46425 v 7.5 c 0,3.69142 1.3047,6.855 3.9141,9.46425 2.6094,2.6055 5.77005,3.9111 9.46125,3.9111 3.691425,0 6.854475,-1.30568 9.45975,-3.9111 L 129.57,256.72275 h 17.58975 v -7.5 z"
     id="path14"
     inkscape:connector-curvature="0"
     style="opacity:0.3;stroke-width:0.75" />
  <path
     d="m 367.37356,133.19175 c 0,-4.60067 -1.67642,-8.5615 -5.00129,-11.824 -3.32488,-3.2621 -7.36194,-4.91079 -12.05154,-4.91079 H 161.23066 c -4.68919,0 -8.72226,1.64869 -12.04744,4.91079 -3.32887,3.2621 -5.00529,7.22293 -5.00529,11.824 v 155.04046 c 0,4.60067 1.67642,8.56151 5.00529,11.82401 3.32487,3.26209 7.35793,4.90686 12.04744,4.90686 h 89.75556 l 57.44298,56.35443 c 2.66874,2.62225 5.90952,3.93339 9.69051,3.93339 3.78097,0 7.01787,-1.31114 9.69048,-3.93339 2.67273,-2.61836 4.00909,-5.79795 4.00909,-9.50754 v -46.84679 h 18.50033 c 4.68919,0 8.72625,-1.64476 12.05154,-4.90687 3.32487,-3.2621 5.0013,-7.22292 5.0013,-11.82399 z m -167.08881,94.1096 c -5.42944,0 -10.03464,-1.896 -13.87165,-5.66056 -3.83702,-3.76457 -5.74154,-8.28283 -5.74154,-13.60976 0,-5.29547 1.90452,-9.84128 5.74154,-13.60574 3.83701,-3.76456 8.44221,-5.63312 13.87165,-5.63312 5.42545,0 10.03065,1.86856 13.86756,5.63312 3.83702,3.76457 5.74154,8.31027 5.74154,13.60574 0,5.32693 -1.90452,9.84519 -5.74154,13.60976 -3.83701,3.76456 -8.44221,5.66056 -13.86756,5.66056 z m 75.31545,-19.27052 c 0,5.32692 -1.93248,9.84519 -5.7695,13.60976 -3.83701,3.76456 -8.44222,5.66056 -13.83991,5.66056 -5.42944,0 -10.06261,-1.896 -13.89931,-5.66056 -3.83702,-3.76457 -5.74154,-8.28284 -5.74154,-13.60976 0,-5.29548 1.90452,-9.84127 5.74154,-13.60573 3.83702,-3.76457 8.47018,-5.63313 13.89931,-5.63313 5.39739,0 10.00259,1.86856 13.83991,5.63313 3.83702,3.76455 5.7695,8.31025 5.7695,13.60573 z m 55.70686,0 c 0,5.32692 -1.93251,9.84519 -5.76951,13.60976 -3.83701,3.76456 -8.44222,5.66056 -13.87167,5.66056 -5.39737,0 -10.03065,-1.896 -13.86756,-5.66056 -3.83699,-3.76457 -5.74151,-8.28284 -5.74151,-13.60976 0,-5.29548 1.90452,-9.84127 5.74151,-13.60573 3.83702,-3.76457 8.47019,-5.63313 13.86756,-5.63313 5.42945,0 10.03466,1.86856 13.87167,5.63313 3.837,3.76455 5.76951,8.31025 5.76951,13.60573 z"
     id="path8-9"
     style="fill:none;fill-opacity:1;stroke:url(#linearGradient875);stroke-width:7.5;stroke-miterlimit:4;stroke-dasharray:none;stroke-opacity:1;opacity:0.4"
     inkscape:connector-curvature="0" />
</svg>
