<?xml version="1.0" encoding="UTF-8" standalone="no"?>
<svg
   xmlns:dc="http://purl.org/dc/elements/1.1/"
   xmlns:cc="http://creativecommons.org/ns#"
   xmlns:rdf="http://www.w3.org/1999/02/22-rdf-syntax-ns#"
   xmlns:svg="http://www.w3.org/2000/svg"
   xmlns="http://www.w3.org/2000/svg"
   xmlns:xlink="http://www.w3.org/1999/xlink"
   xmlns:sodipodi="http://sodipodi.sourceforge.net/DTD/sodipodi-0.dtd"
   xmlns:inkscape="http://www.inkscape.org/namespaces/inkscape"
   width="512"
   height="512"
   version="1.1"
   viewBox="0 0 384 384"
   id="svg6"
   sodipodi:docname="goa-panel.svg"
   inkscape:version="0.92.4 5da689c313, 2019-01-14">
  <metadata
     id="metadata12">
    <rdf:RDF>
      <cc:Work
         rdf:about="">
        <dc:format>image/svg+xml</dc:format>
        <dc:type
           rdf:resource="http://purl.org/dc/dcmitype/StillImage" />
      </cc:Work>
    </rdf:RDF>
  </metadata>
  <defs
     id="defs10">
    <linearGradient
       id="linearGradient858"
       inkscape:collect="always">
      <stop
         id="stop854"
         offset="0"
         style="stop-color:#000000;stop-opacity:1" />
      <stop
         id="stop856"
         offset="1"
         style="stop-color:#000000;stop-opacity:0" />
    </linearGradient>
    <linearGradient
       inkscape:collect="always"
       id="linearGradient879">
      <stop
         style="stop-color:#ffffff;stop-opacity:1;"
         offset="0"
         id="stop875" />
      <stop
         style="stop-color:#ffffff;stop-opacity:0;"
         offset="1"
         id="stop877" />
    </linearGradient>
    <linearGradient
       inkscape:collect="always"
       id="linearGradient832">
      <stop
         style="stop-color:#0099ff;stop-opacity:1"
         offset="0"
         id="stop828" />
      <stop
         style="stop-color:#0083d7;stop-opacity:1"
         offset="1"
         id="stop830" />
    </linearGradient>
    <linearGradient
       inkscape:collect="always"
       xlink:href="#linearGradient832"
       id="linearGradient834"
       x1="364.57812"
       y1="364.57812"
       x2="41.568302"
       y2="15.350208"
       gradientUnits="userSpaceOnUse" />
    <linearGradient
       inkscape:collect="always"
       xlink:href="#linearGradient879"
       id="linearGradient881"
       x1="196.38582"
       y1="24.020193"
       x2="194.79659"
       y2="115.81351"
       gradientUnits="userSpaceOnUse" />
    <linearGradient
       gradientTransform="translate(9.1406251e-7,-384)"
       inkscape:collect="always"
       xlink:href="#linearGradient858"
       id="linearGradient881-5"
       x1="196.38582"
       y1="24.020193"
       x2="197.05684"
       y2="137.9693"
       gradientUnits="userSpaceOnUse" />
  </defs>
  <sodipodi:namedview
     pagecolor="#ffffff"
     bordercolor="#666666"
     borderopacity="1"
     objecttolerance="10"
     gridtolerance="10"
     guidetolerance="10"
     inkscape:pageopacity="0"
     inkscape:pageshadow="2"
     inkscape:window-width="1366"
     inkscape:window-height="713"
     id="namedview8"
     showgrid="false"
     inkscape:zoom="0.92187499"
     inkscape:cx="238.92569"
     inkscape:cy="253.45044"
     inkscape:window-x="0"
     inkscape:window-y="25"
     inkscape:window-maximized="1"
     inkscape:current-layer="svg6" />
  <rect
     style="opacity:1;fill:url(#linearGradient834);fill-opacity:1;stroke:none;stroke-width:8.92507362;stroke-linejoin:round;stroke-miterlimit:4;stroke-dasharray:none;stroke-opacity:0.58823529;paint-order:normal"
     id="rect826"
     width="352.5"
     height="352.5"
     x="15.75"
     y="15.75"
     rx="176.25"
     ry="176.25" />
  <rect
     style="opacity:0.4;fill:none;fill-opacity:1;stroke:url(#linearGradient881-5);stroke-width:7.34374952;stroke-linejoin:round;stroke-miterlimit:4;stroke-dasharray:none;stroke-opacity:1;paint-order:normal"
     id="rect826-2-3-2"
     width="345.15625"
     height="345.15625"
     x="19.421875"
     y="-364.57812"
     rx="172.57812"
     ry="172.57812"
     transform="scale(1,-1)" />
  <rect
     style="opacity:0.4;fill:none;fill-opacity:1;stroke:url(#linearGradient881);stroke-width:7.34374952;stroke-linejoin:round;stroke-miterlimit:4;stroke-dasharray:none;stroke-opacity:1;paint-order:normal"
     id="rect826-2-3"
     width="345.15625"
     height="345.15625"
     x="19.421875"
     y="19.421875"
     rx="172.57812"
     ry="172.57812" />
  <path
     sodipodi:type="inkscape:offset"
     inkscape:radius="0"
     inkscape:original="M 147.2207 222.94531 C 145.375 222.94531 143.62695 223.27734 141.97656 223.94141 C 140.32617 224.5957 138.87109 225.54297 137.61133 226.7832 C 136.38086 228.00391 135.43359 229.41992 134.76953 231.03125 C 134.10547 232.64258 133.77344 234.33594 133.77344 236.11328 C 133.77344 237.95898 134.10156 239.6875 134.75586 241.29883 C 135.41016 242.90039 136.36133 244.3125 137.61133 245.5332 C 138.86133 246.75391 140.28711 247.68164 141.88867 248.31641 C 143.49023 248.96094 145.19531 249.2832 147.00195 249.2832 C 148.48633 249.2832 149.94531 249.0293 151.38086 248.52148 C 152.82617 248.02344 154.16016 247.30078 155.38086 246.35352 L 154.0625 244.72656 C 153.04688 245.51758 151.92773 246.12305 150.70703 246.54297 C 149.49609 246.97266 148.26172 247.1875 147.00195 247.1875 C 145.46875 247.1875 144.02734 246.91992 142.67969 246.38281 C 141.33203 245.85547 140.14648 245.08398 139.12109 244.06836 C 138.05664 243.0332 137.24023 241.83594 136.67383 240.47852 C 136.11719 239.12109 135.83984 237.66602 135.83984 236.11328 C 135.83984 234.22852 136.26953 232.48047 137.12891 230.86914 C 137.99805 229.24805 139.19922 227.93945 140.73242 226.94336 C 141.66992 226.31836 142.68945 225.84961 143.79297 225.53711 C 144.89648 225.21484 146.04883 225.05469 147.25 225.05469 C 148.96875 225.05469 150.55664 225.39648 152.01172 226.08008 C 153.47656 226.75391 154.7168 227.73047 155.73242 229.00977 C 156.35742 229.79102 156.82031 230.64062 157.12305 231.55859 C 157.43555 232.47656 157.5918 233.45703 157.5918 234.50195 C 157.5918 236.23047 157.1875 237.64258 156.37695 238.73633 C 155.57617 239.82031 154.46289 240.46875 153.03711 240.68359 L 153.03711 229.90234 L 150.94141 229.90234 L 150.94141 231.82227 C 150.36523 231.08008 149.69727 230.52734 148.93555 230.16602 C 148.17383 229.79492 147.28906 229.60938 146.2832 229.60938 C 144.61328 229.60938 143.25195 230.2207 142.19727 231.44141 C 141.14258 232.66211 140.61523 234.24805 140.61523 236.20117 C 140.61523 238.1543 141.13672 239.74219 142.18164 240.96289 C 143.23633 242.17383 144.60352 242.7793 146.2832 242.7793 C 147.28906 242.7793 148.16797 242.60352 148.91992 242.25195 C 149.68164 241.89062 150.35547 241.33398 150.94141 240.58203 L 150.94141 242.83789 C 153.67578 242.7793 155.82031 242.00781 157.37305 240.52344 C 158.92578 239.03906 159.70117 237.01172 159.70117 234.44336 C 159.70117 233.24219 159.50586 232.08008 159.11523 230.95703 C 158.73438 229.83398 158.17773 228.79492 157.44531 227.83789 C 156.24414 226.27539 154.75586 225.06836 152.97852 224.21875 C 151.21094 223.36914 149.29102 222.94531 147.2207 222.94531 z M 146.82617 231.73438 C 148.01758 231.73438 148.96484 232.13867 149.66797 232.94922 C 150.37109 233.75 150.72266 234.83398 150.72266 236.20117 C 150.72266 237.58789 150.375 238.68164 149.68164 239.48242 C 148.99805 240.2832 148.05664 240.68359 146.85547 240.68359 C 145.64453 240.68359 144.69141 240.28906 143.99805 239.49805 C 143.30469 238.69727 142.95898 237.59766 142.95898 236.20117 C 142.95898 234.82422 143.30469 233.73633 143.99805 232.93555 C 144.70117 232.13477 145.64453 231.73438 146.82617 231.73438 z "
     style="font-style:normal;font-weight:normal;font-size:30px;line-height:1.25;font-family:sans-serif;letter-spacing:0px;word-spacing:0px;fill:#000000;fill-opacity:0.58823532;stroke:none;stroke-width:0.75"
     id="text830-6"
     d="m 147.2207,222.94531 c -1.8457,0 -3.59375,0.33203 -5.24414,0.9961 -1.65039,0.65429 -3.10547,1.60156 -4.36523,2.84179 -1.23047,1.22071 -2.17774,2.63672 -2.8418,4.24805 -0.66406,1.61133 -0.99609,3.30469 -0.99609,5.08203 0,1.8457 0.32812,3.57422 0.98242,5.18555 0.6543,1.60156 1.60547,3.01367 2.85547,4.23437 1.25,1.22071 2.67578,2.14844 4.27734,2.78321 1.60156,0.64453 3.30664,0.96679 5.11328,0.96679 1.48438,0 2.94336,-0.2539 4.37891,-0.76172 1.44531,-0.49804 2.7793,-1.2207 4,-2.16796 l -1.31836,-1.62696 c -1.01562,0.79102 -2.13477,1.39649 -3.35547,1.81641 -1.21094,0.42969 -2.44531,0.64453 -3.70508,0.64453 -1.5332,0 -2.97461,-0.26758 -4.32226,-0.80469 -1.34766,-0.52734 -2.53321,-1.29883 -3.5586,-2.31445 -1.06445,-1.03516 -1.88086,-2.23242 -2.44726,-3.58984 -0.55664,-1.35743 -0.83399,-2.8125 -0.83399,-4.36524 0,-1.88476 0.42969,-3.63281 1.28907,-5.24414 0.86914,-1.62109 2.07031,-2.92969 3.60351,-3.92578 0.9375,-0.625 1.95703,-1.09375 3.06055,-1.40625 1.10351,-0.32227 2.25586,-0.48242 3.45703,-0.48242 1.71875,0 3.30664,0.34179 4.76172,1.02539 1.46484,0.67383 2.70508,1.65039 3.7207,2.92969 0.625,0.78125 1.08789,1.63085 1.39063,2.54882 0.3125,0.91797 0.46875,1.89844 0.46875,2.94336 0,1.72852 -0.4043,3.14063 -1.21485,4.23438 -0.80078,1.08398 -1.91406,1.73242 -3.33984,1.94726 v -10.78125 h -2.0957 v 1.91993 c -0.57618,-0.74219 -1.24414,-1.29493 -2.00586,-1.65625 -0.76172,-0.3711 -1.64649,-0.55664 -2.65235,-0.55664 -1.66992,0 -3.03125,0.61132 -4.08593,1.83203 -1.05469,1.2207 -1.58204,2.80664 -1.58204,4.75976 0,1.95313 0.52149,3.54102 1.56641,4.76172 1.05469,1.21094 2.42188,1.81641 4.10156,1.81641 1.00586,0 1.88477,-0.17578 2.63672,-0.52735 0.76172,-0.36133 1.43555,-0.91797 2.02149,-1.66992 v 2.25586 c 2.73437,-0.0586 4.8789,-0.83008 6.43164,-2.31445 1.55273,-1.48438 2.32812,-3.51172 2.32812,-6.08008 0,-1.20117 -0.19531,-2.36328 -0.58594,-3.48633 -0.38085,-1.12305 -0.9375,-2.16211 -1.66992,-3.11914 -1.20117,-1.5625 -2.68945,-2.76953 -4.46679,-3.61914 -1.76758,-0.84961 -3.6875,-1.27344 -5.75782,-1.27344 z m -0.39453,8.78907 c 1.19141,0 2.13867,0.40429 2.8418,1.21484 0.70312,0.80078 1.05469,1.88476 1.05469,3.25195 0,1.38672 -0.34766,2.48047 -1.04102,3.28125 -0.68359,0.80078 -1.625,1.20117 -2.82617,1.20117 -1.21094,0 -2.16406,-0.39453 -2.85742,-1.18554 -0.69336,-0.80078 -1.03907,-1.90039 -1.03907,-3.29688 0,-1.37695 0.34571,-2.46484 1.03907,-3.26562 0.70312,-0.80078 1.64648,-1.20117 2.82812,-1.20117 z"
     transform="matrix(5.7853117,0,0,5.7853117,-656.92105,-1169.4946)" />
  <path
     sodipodi:type="inkscape:offset"
     inkscape:radius="0"
     inkscape:original="M 147.2207 222.94531 C 145.375 222.94531 143.62695 223.27734 141.97656 223.94141 C 140.32617 224.5957 138.87109 225.54297 137.61133 226.7832 C 136.38086 228.00391 135.43359 229.41992 134.76953 231.03125 C 134.10547 232.64258 133.77344 234.33594 133.77344 236.11328 C 133.77344 237.95898 134.10156 239.6875 134.75586 241.29883 C 135.41016 242.90039 136.36133 244.3125 137.61133 245.5332 C 138.86133 246.75391 140.28711 247.68164 141.88867 248.31641 C 143.49023 248.96094 145.19531 249.2832 147.00195 249.2832 C 148.48633 249.2832 149.94531 249.0293 151.38086 248.52148 C 152.82617 248.02344 154.16016 247.30078 155.38086 246.35352 L 154.0625 244.72656 C 153.04688 245.51758 151.92773 246.12305 150.70703 246.54297 C 149.49609 246.97266 148.26172 247.1875 147.00195 247.1875 C 145.46875 247.1875 144.02734 246.91992 142.67969 246.38281 C 141.33203 245.85547 140.14648 245.08398 139.12109 244.06836 C 138.05664 243.0332 137.24023 241.83594 136.67383 240.47852 C 136.11719 239.12109 135.83984 237.66602 135.83984 236.11328 C 135.83984 234.22852 136.26953 232.48047 137.12891 230.86914 C 137.99805 229.24805 139.19922 227.93945 140.73242 226.94336 C 141.66992 226.31836 142.68945 225.84961 143.79297 225.53711 C 144.89648 225.21484 146.04883 225.05469 147.25 225.05469 C 148.96875 225.05469 150.55664 225.39648 152.01172 226.08008 C 153.47656 226.75391 154.7168 227.73047 155.73242 229.00977 C 156.35742 229.79102 156.82031 230.64062 157.12305 231.55859 C 157.43555 232.47656 157.5918 233.45703 157.5918 234.50195 C 157.5918 236.23047 157.1875 237.64258 156.37695 238.73633 C 155.57617 239.82031 154.46289 240.46875 153.03711 240.68359 L 153.03711 229.90234 L 150.94141 229.90234 L 150.94141 231.82227 C 150.36523 231.08008 149.69727 230.52734 148.93555 230.16602 C 148.17383 229.79492 147.28906 229.60938 146.2832 229.60938 C 144.61328 229.60938 143.25195 230.2207 142.19727 231.44141 C 141.14258 232.66211 140.61523 234.24805 140.61523 236.20117 C 140.61523 238.1543 141.13672 239.74219 142.18164 240.96289 C 143.23633 242.17383 144.60352 242.7793 146.2832 242.7793 C 147.28906 242.7793 148.16797 242.60352 148.91992 242.25195 C 149.68164 241.89062 150.35547 241.33398 150.94141 240.58203 L 150.94141 242.83789 C 153.67578 242.7793 155.82031 242.00781 157.37305 240.52344 C 158.92578 239.03906 159.70117 237.01172 159.70117 234.44336 C 159.70117 233.24219 159.50586 232.08008 159.11523 230.95703 C 158.73438 229.83398 158.17773 228.79492 157.44531 227.83789 C 156.24414 226.27539 154.75586 225.06836 152.97852 224.21875 C 151.21094 223.36914 149.29102 222.94531 147.2207 222.94531 z M 146.82617 231.73438 C 148.01758 231.73438 148.96484 232.13867 149.66797 232.94922 C 150.37109 233.75 150.72266 234.83398 150.72266 236.20117 C 150.72266 237.58789 150.375 238.68164 149.68164 239.48242 C 148.99805 240.2832 148.05664 240.68359 146.85547 240.68359 C 145.64453 240.68359 144.69141 240.28906 143.99805 239.49805 C 143.30469 238.69727 142.95898 237.59766 142.95898 236.20117 C 142.95898 234.82422 143.30469 233.73633 143.99805 232.93555 C 144.70117 232.13477 145.64453 231.73438 146.82617 231.73438 z "
     style="font-style:normal;font-weight:normal;font-size:30px;line-height:1.25;font-family:sans-serif;letter-spacing:0px;word-spacing:0px;fill:#ffffff;fill-opacity:1;stroke:none;stroke-width:0.75"
     id="text830"
     d="m 147.2207,222.94531 c -1.8457,0 -3.59375,0.33203 -5.24414,0.9961 -1.65039,0.65429 -3.10547,1.60156 -4.36523,2.84179 -1.23047,1.22071 -2.17774,2.63672 -2.8418,4.24805 -0.66406,1.61133 -0.99609,3.30469 -0.99609,5.08203 0,1.8457 0.32812,3.57422 0.98242,5.18555 0.6543,1.60156 1.60547,3.01367 2.85547,4.23437 1.25,1.22071 2.67578,2.14844 4.27734,2.78321 1.60156,0.64453 3.30664,0.96679 5.11328,0.96679 1.48438,0 2.94336,-0.2539 4.37891,-0.76172 1.44531,-0.49804 2.7793,-1.2207 4,-2.16796 l -1.31836,-1.62696 c -1.01562,0.79102 -2.13477,1.39649 -3.35547,1.81641 -1.21094,0.42969 -2.44531,0.64453 -3.70508,0.64453 -1.5332,0 -2.97461,-0.26758 -4.32226,-0.80469 -1.34766,-0.52734 -2.53321,-1.29883 -3.5586,-2.31445 -1.06445,-1.03516 -1.88086,-2.23242 -2.44726,-3.58984 -0.55664,-1.35743 -0.83399,-2.8125 -0.83399,-4.36524 0,-1.88476 0.42969,-3.63281 1.28907,-5.24414 0.86914,-1.62109 2.07031,-2.92969 3.60351,-3.92578 0.9375,-0.625 1.95703,-1.09375 3.06055,-1.40625 1.10351,-0.32227 2.25586,-0.48242 3.45703,-0.48242 1.71875,0 3.30664,0.34179 4.76172,1.02539 1.46484,0.67383 2.70508,1.65039 3.7207,2.92969 0.625,0.78125 1.08789,1.63085 1.39063,2.54882 0.3125,0.91797 0.46875,1.89844 0.46875,2.94336 0,1.72852 -0.4043,3.14063 -1.21485,4.23438 -0.80078,1.08398 -1.91406,1.73242 -3.33984,1.94726 v -10.78125 h -2.0957 v 1.91993 c -0.57618,-0.74219 -1.24414,-1.29493 -2.00586,-1.65625 -0.76172,-0.3711 -1.64649,-0.55664 -2.65235,-0.55664 -1.66992,0 -3.03125,0.61132 -4.08593,1.83203 -1.05469,1.2207 -1.58204,2.80664 -1.58204,4.75976 0,1.95313 0.52149,3.54102 1.56641,4.76172 1.05469,1.21094 2.42188,1.81641 4.10156,1.81641 1.00586,0 1.88477,-0.17578 2.63672,-0.52735 0.76172,-0.36133 1.43555,-0.91797 2.02149,-1.66992 v 2.25586 c 2.73437,-0.0586 4.8789,-0.83008 6.43164,-2.31445 1.55273,-1.48438 2.32812,-3.51172 2.32812,-6.08008 0,-1.20117 -0.19531,-2.36328 -0.58594,-3.48633 -0.38085,-1.12305 -0.9375,-2.16211 -1.66992,-3.11914 -1.20117,-1.5625 -2.68945,-2.76953 -4.46679,-3.61914 -1.76758,-0.84961 -3.6875,-1.27344 -5.75782,-1.27344 z m -0.39453,8.78907 c 1.19141,0 2.13867,0.40429 2.8418,1.21484 0.70312,0.80078 1.05469,1.88476 1.05469,3.25195 0,1.38672 -0.34766,2.48047 -1.04102,3.28125 -0.68359,0.80078 -1.625,1.20117 -2.82617,1.20117 -1.21094,0 -2.16406,-0.39453 -2.85742,-1.18554 -0.69336,-0.80078 -1.03907,-1.90039 -1.03907,-3.29688 0,-1.37695 0.34571,-2.46484 1.03907,-3.26562 0.70312,-0.80078 1.64648,-1.20117 2.82812,-1.20117 z"
     transform="matrix(5.7853117,0,0,5.7853117,-656.92105,-1173.9946)" />
</svg>
