<?xml version="1.0" encoding="UTF-8" standalone="no"?>
<svg
   xmlns:dc="http://purl.org/dc/elements/1.1/"
   xmlns:cc="http://creativecommons.org/ns#"
   xmlns:rdf="http://www.w3.org/1999/02/22-rdf-syntax-ns#"
   xmlns:svg="http://www.w3.org/2000/svg"
   xmlns="http://www.w3.org/2000/svg"
   xmlns:sodipodi="http://sodipodi.sourceforge.net/DTD/sodipodi-0.dtd"
   xmlns:inkscape="http://www.inkscape.org/namespaces/inkscape"
   width="512"
   height="512"
   version="1.1"
   viewBox="0 0 384 384"
   id="svg12"
   sodipodi:docname="gtk3-demo.svg"
   inkscape:version="0.92.4 5da689c313, 2019-01-14">
  <metadata
     id="metadata18">
    <rdf:RDF>
      <cc:Work
         rdf:about="">
        <dc:format>image/svg+xml</dc:format>
        <dc:type
           rdf:resource="http://purl.org/dc/dcmitype/StillImage" />
      </cc:Work>
    </rdf:RDF>
  </metadata>
  <defs
     id="defs16" />
  <sodipodi:namedview
     pagecolor="#ffffff"
     bordercolor="#666666"
     borderopacity="1"
     objecttolerance="10"
     gridtolerance="10"
     guidetolerance="10"
     inkscape:pageopacity="0"
     inkscape:pageshadow="2"
     inkscape:window-width="1366"
     inkscape:window-height="710"
     id="namedview14"
     showgrid="false"
     inkscape:zoom="0.4609375"
     inkscape:cx="27.118644"
     inkscape:cy="256"
     inkscape:window-x="0"
     inkscape:window-y="25"
     inkscape:window-maximized="1"
     inkscape:current-layer="svg12" />
  <path
     d="m192.39 18.91c-3.1055-0.12109-6.1758 0.73047-8.8711 2.3242l-127.05 75.297c-5.2422 3.1055-8.4727 8.8516-8.4727 15.07v150.59c0 6.2148 3.2305 11.961 8.4727 15.066l127.05 75.297c5.2461 3.1055 11.707 3.1055 16.949 0l127.05-75.297c5.2461-3.1055 8.4766-8.8516 8.4766-15.066v-150.59c0-6.2188-3.2305-11.965-8.4766-15.07l-127.05-75.297c-2.4609-1.457-5.2383-2.2578-8.0781-2.3242z"
     fill="#357aef"
     id="path2"
     style="fill:#0066cc;fill-opacity:1" />
  <path
     d="m192 354.89c-2.9258 0-5.8477-0.78906-8.4688-2.3398l-127.06-75.281c-5.2422-3.1055-8.4688-8.8594-8.4688-15.074v-150.59c0-2.5273 0.53516-4.9766 1.5195-7.2031l142.48 83.996z"
     fill="#d31818"
     id="path4"
     style="fill:#ff0505;fill-opacity:1" />
  <path
     d="m192 354.89c2.9258 0 5.8477-0.78906 8.4688-2.3398l127.06-75.281c5.2461-3.1055 8.4688-8.8594 8.4688-15.074v-150.59c0-2.5273-0.53516-4.9766-1.5195-7.2031l-142.48 83.996z"
     fill="#0ba05d"
     id="path6"
     style="fill:#00c800;fill-opacity:1" />
  <path
     transform="scale(.75)"
     d="m254.98 25.213c-3.6066 0.13821-7.1348 1.2402-10.279 3.0996l-169.4 100.4c-6.9896 4.1406-11.297 11.802-11.297 20.094v10c0-8.2917 4.3073-15.953 11.297-20.094l169.4-100.4c3.5937-2.125 7.6875-3.2611 11.828-3.0996 3.7864 0.088533 7.4902 1.1569 10.771 3.0996l169.4 100.4c6.9948 4.1406 11.303 11.802 11.303 20.094v-10c0-8.2917-4.308-15.953-11.303-20.094l-169.4-100.4c-3.2813-1.9427-6.985-3.0111-10.771-3.0996-0.51758-0.020184-1.0336-0.019745-1.5488 0z"
     fill="#fff"
     opacity=".2"
     stroke-width="1.3333"
     id="path8" />
  <path
     transform="scale(.75)"
     d="m64 339.59v10c0 8.2865 4.3073 15.947 11.297 20.088l169.4 100.4c6.9948 4.1406 15.61 4.1406 22.6 0l169.4-100.4c6.9948-4.1406 11.303-11.801 11.303-20.088v-10c0 8.2865-4.308 15.947-11.303 20.088l-169.4 100.4c-6.9896 4.1406-15.605 4.1406-22.6 0l-169.4-100.4c-6.9896-4.1406-11.297-11.801-11.297-20.088z"
     opacity=".3"
     stroke-width="1.3333"
     id="path10" />
</svg>
