<?xml version="1.0" encoding="UTF-8" standalone="no"?>
<svg
   xmlns:dc="http://purl.org/dc/elements/1.1/"
   xmlns:cc="http://creativecommons.org/ns#"
   xmlns:rdf="http://www.w3.org/1999/02/22-rdf-syntax-ns#"
   xmlns:svg="http://www.w3.org/2000/svg"
   xmlns="http://www.w3.org/2000/svg"
   xmlns:xlink="http://www.w3.org/1999/xlink"
   xmlns:sodipodi="http://sodipodi.sourceforge.net/DTD/sodipodi-0.dtd"
   xmlns:inkscape="http://www.inkscape.org/namespaces/inkscape"
   width="512"
   height="512"
   version="1.1"
   viewBox="0 0 384 384"
   id="svg18"
   sodipodi:docname="gmusicbrowser.svg"
   inkscape:version="0.92.4 5da689c313, 2019-01-14">
  <metadata
     id="metadata22">
    <rdf:RDF>
      <cc:Work
         rdf:about="">
        <dc:format>image/svg+xml</dc:format>
        <dc:type
           rdf:resource="http://purl.org/dc/dcmitype/StillImage" />
      </cc:Work>
    </rdf:RDF>
  </metadata>
  <sodipodi:namedview
     pagecolor="#ffffff"
     bordercolor="#666666"
     borderopacity="1"
     objecttolerance="10"
     gridtolerance="10"
     guidetolerance="10"
     inkscape:pageopacity="0"
     inkscape:pageshadow="2"
     inkscape:window-width="1366"
     inkscape:window-height="713"
     id="namedview20"
     showgrid="false"
     inkscape:zoom="0.4609375"
     inkscape:cx="28.20339"
     inkscape:cy="256"
     inkscape:window-x="0"
     inkscape:window-y="25"
     inkscape:window-maximized="1"
     inkscape:current-layer="svg18" />
  <defs
     id="defs10">
    <linearGradient
       inkscape:collect="always"
       id="linearGradient833">
      <stop
         style="stop-color:#00d50e;stop-opacity:1"
         offset="0"
         id="stop829" />
      <stop
         style="stop-color:#0f6ee3;stop-opacity:1"
         offset="1"
         id="stop831" />
    </linearGradient>
    <clipPath
       id="clipPath4">
      <rect
         width="384"
         height="384"
         id="rect2" />
    </clipPath>
    <clipPath
       id="clipPath8">
      <rect
         width="384"
         height="384"
         id="rect6" />
    </clipPath>
    <linearGradient
       inkscape:collect="always"
       xlink:href="#linearGradient833"
       id="linearGradient835"
       x1="444.22772"
       y1="-209.89388"
       x2="4.8451362"
       y2="384.00439"
       gradientUnits="userSpaceOnUse" />
  </defs>
  <path
     d="m335.23 23.932-194.9 44.933c-27.47 3.4612-26.423 31.592-26.423 31.592v119.93c-6.3463-1.8302-12.917-2.7707-19.522-2.7961-39.531 0-71.581 32.049-71.581 71.581 0 39.531 32.049 71.581 71.581 71.581 36.998-0.0173 67.886-28.228 71.25-65.073h0.33045v-180.15l143.16-34.049v99.86c-6.3464-1.8302-12.917-2.7707-19.522-2.7961-39.531 0-71.581 32.049-71.581 71.581s32.049 71.581 71.581 71.581c36.998-0.0174 67.886-28.228 71.25-65.073h0.33044v-208.23s0.33893-30.003-25.957-24.466z"
     fill="#357af0"
     stroke-width="1.0846"
     id="path12"
     style="fill-opacity:1;fill:url(#linearGradient835)" />
  <path
     transform="scale(.75)"
     d="m412.18 98.641-190.88 45.4v10l190.88-45.4v-10zm-121.34 229.86c-0.08552 1.6563-0.13086 3.3224-0.13086 5 0 52.708 42.733 95.441 95.441 95.441 49.33-0.0232 90.515-37.637 95-86.764h0.44141v-10h-0.44141c-4.4851 49.127-45.67 86.741-95 86.764-51.031 0-92.71-40.057-95.311-90.441zm-260.29 52.059c-0.085519 1.6563-0.13086 3.3224-0.13086 5 0 52.708 42.733 95.441 95.441 95.441 49.33-0.02307 90.515-37.637 95-86.764h0.4414v-10h-0.4414c-4.4851 49.127-45.67 86.74-95 86.764-51.031 0-92.71-40.057-95.311-90.441z"
     opacity=".3"
     stroke-width="1.4461"
     id="path14"
     style="opacity:0.4" />
  <path
     transform="scale(.75)"
     d="m454.56 31.004c-2.3228 0.040003-4.8448 0.32946-7.584 0.90625l-259.87 59.91c-36.626 4.615-35.23 42.121-35.23 42.121v10s-1.3959-37.506 35.23-42.121l259.87-59.91c35.062-7.3829 34.609 32.621 34.609 32.621v-10s0.38395-33.999-27.025-33.527zm-68.416 207.05c-52.708 0-95.441 42.733-95.441 95.441 0 1.6769 0.04541 3.3443 0.13086 5 2.6014-50.384 44.28-90.441 95.311-90.441 8.8064 0.03384 17.568 1.2883 26.029 3.7285v-10c-8.4618-2.4402-17.223-3.6946-26.029-3.7285zm-260.29 52.059c-52.708 0-95.441 42.733-95.441 95.441 0 1.6769 0.045408 3.3443 0.13086 5 2.6014-50.384 44.28-90.439 95.311-90.439 8.8063 0.03384 17.568 1.2863 26.029 3.7266v-10c-8.4618-2.4402-17.223-3.6945-26.029-3.7285z"
     fill="#fff"
     opacity=".2"
     stroke-width="1.4461"
     id="path16"
     style="opacity:0.4" />
</svg>
