<?xml version="1.0" encoding="UTF-8" standalone="no"?>
<svg
   xmlns:dc="http://purl.org/dc/elements/1.1/"
   xmlns:cc="http://creativecommons.org/ns#"
   xmlns:rdf="http://www.w3.org/1999/02/22-rdf-syntax-ns#"
   xmlns:svg="http://www.w3.org/2000/svg"
   xmlns="http://www.w3.org/2000/svg"
   xmlns:xlink="http://www.w3.org/1999/xlink"
   xmlns:sodipodi="http://sodipodi.sourceforge.net/DTD/sodipodi-0.dtd"
   xmlns:inkscape="http://www.inkscape.org/namespaces/inkscape"
   width="512"
   height="512"
   version="1.1"
   viewBox="0 0 384 384"
   id="svg66"
   sodipodi:docname="preferences-color.svg"
   inkscape:version="0.92.4 5da689c313, 2019-01-14">
  <metadata
     id="metadata70">
    <rdf:RDF>
      <cc:Work
         rdf:about="">
        <dc:format>image/svg+xml</dc:format>
        <dc:type
           rdf:resource="http://purl.org/dc/dcmitype/StillImage" />
        <dc:title />
      </cc:Work>
    </rdf:RDF>
  </metadata>
  <sodipodi:namedview
     pagecolor="#ffffff"
     bordercolor="#666666"
     borderopacity="1"
     objecttolerance="10"
     gridtolerance="10"
     guidetolerance="10"
     inkscape:pageopacity="0"
     inkscape:pageshadow="2"
     inkscape:window-width="1366"
     inkscape:window-height="713"
     id="namedview68"
     showgrid="false"
     inkscape:zoom="0.94146954"
     inkscape:cx="326.5405"
     inkscape:cy="215.30055"
     inkscape:window-x="0"
     inkscape:window-y="25"
     inkscape:window-maximized="1"
     inkscape:current-layer="g64" />
  <defs
     id="defs38">
    <linearGradient
       id="linearGradient896"
       inkscape:collect="always">
      <stop
         id="stop892"
         offset="0"
         style="stop-color:#000000;stop-opacity:1" />
      <stop
         id="stop894"
         offset="1"
         style="stop-color:#000000;stop-opacity:0" />
    </linearGradient>
    <linearGradient
       inkscape:collect="always"
       id="linearGradient864">
      <stop
         style="stop-color:#ffffff;stop-opacity:1;"
         offset="0"
         id="stop860" />
      <stop
         style="stop-color:#ffffff;stop-opacity:0;"
         offset="1"
         id="stop862" />
    </linearGradient>
    <linearGradient
       inkscape:collect="always"
       id="linearGradient916">
      <stop
         style="stop-color:#ffffff;stop-opacity:1;"
         offset="0"
         id="stop912" />
      <stop
         style="stop-color:#ffffff;stop-opacity:0;"
         offset="1"
         id="stop914" />
    </linearGradient>
    <filter
       id="alpha"
       width="100%"
       height="100%"
       x="0%"
       y="0%"
       filterUnits="objectBoundingBox">
      <feColorMatrix
         in="SourceGraphic"
         type="matrix"
         values="0 0 0 0 1 0 0 0 0 1 0 0 0 0 1 0 0 0 1 0"
         id="feColorMatrix2" />
    </filter>
    <mask
       id="mask0">
      <g
         filter="url(#alpha)"
         id="g7">
        <rect
           width="384"
           height="384"
           x="0"
           y="0"
           style="fill:rgb(0%,0%,0%);fill-opacity:0.2"
           id="rect5" />
      </g>
    </mask>
    <clipPath
       id="clip1">
      <rect
         width="384"
         height="384"
         x="0"
         y="0"
         id="rect10" />
    </clipPath>
    <g
       id="surface5"
       clip-path="url(#clip1)">
      <path
         style="fill:rgb(0%,0%,0%)"
         d="M 276 198 C 276 244.390625 238.390625 282 192 282 C 145.609375 282 108 244.390625 108 198 C 108 151.609375 145.609375 114 192 114 C 238.390625 114 276 151.609375 276 198 Z M 276 198"
         id="path13" />
    </g>
    <mask
       id="mask1">
      <g
         filter="url(#alpha)"
         id="g18">
        <rect
           width="384"
           height="384"
           x="0"
           y="0"
           style="fill:rgb(0%,0%,0%);fill-opacity:0.2"
           id="rect16" />
      </g>
    </mask>
    <clipPath
       id="clip2">
      <rect
         width="384"
         height="384"
         x="0"
         y="0"
         id="rect21" />
    </clipPath>
    <g
       id="surface8"
       clip-path="url(#clip2)">
      <path
         style="fill:rgb(100.000%,100.000%,100.000%)"
         d="M 192 24 C 99.214844 24 24 99.277344 24 192.132812 C 24.035156 192.945312 24.078125 193.757812 24.128906 194.570312 C 26.0625 103.15625 100.636719 30.050781 192 30 C 283.757812 30.0625 358.492188 103.785156 359.871094 195.601562 C 359.925781 194.445312 359.96875 193.289062 360 192.132812 C 360 99.277344 284.785156 24 192 24 Z M 192 24"
         id="path24" />
    </g>
    <mask
       id="mask2">
      <g
         filter="url(#alpha)"
         id="g29">
        <rect
           width="384"
           height="384"
           x="0"
           y="0"
           style="fill:rgb(0%,0%,0%);fill-opacity:0.2"
           id="rect27" />
      </g>
    </mask>
    <clipPath
       id="clip3">
      <rect
         width="384"
         height="384"
         x="0"
         y="0"
         id="rect32" />
    </clipPath>
    <g
       id="surface11"
       clip-path="url(#clip3)">
      <path
         style="fill:rgb(0%,0%,0%)"
         d="M 24.128906 194.367188 C 24.074219 195.523438 24.03125 196.679688 24 197.835938 C 24 290.710938 99.214844 366 192 366 C 284.785156 366 360 290.710938 360 197.835938 C 359.964844 197.023438 359.921875 196.210938 359.871094 195.398438 C 357.9375 286.828125 283.363281 359.949219 192 360 C 100.242188 359.941406 25.507812 286.199219 24.128906 194.367188 Z M 24.128906 194.367188"
         id="path35" />
    </g>
    <linearGradient
       inkscape:collect="always"
       xlink:href="#linearGradient916"
       id="linearGradient918"
       x1="191.78363"
       y1="28.622379"
       x2="188.11018"
       y2="99.548141"
       gradientUnits="userSpaceOnUse" />
    <linearGradient
       inkscape:collect="always"
       xlink:href="#linearGradient916"
       id="linearGradient968"
       gradientUnits="userSpaceOnUse"
       x1="191.78363"
       y1="28.622379"
       x2="188.11018"
       y2="99.548141" />
    <linearGradient
       inkscape:collect="always"
       xlink:href="#linearGradient864"
       id="linearGradient866"
       x1="192"
       y1="15.75"
       x2="188.11018"
       y2="99.548141"
       gradientUnits="userSpaceOnUse"
       gradientTransform="translate(0,1.5)" />
    <linearGradient
       inkscape:collect="always"
       xlink:href="#linearGradient896"
       id="linearGradient866-1"
       x1="192"
       y1="15.75"
       x2="190.37283"
       y2="148.06686"
       gradientUnits="userSpaceOnUse"
       gradientTransform="matrix(0.97916667,0,0,0.97916667,4.0000021,-380)" />
  </defs>
  <g
     id="g64">
    <g
       id="g4220"
       transform="matrix(8.5830803,0,0,8.5471903,-13.994056,-11.799743)">
      <path
         style="fill:#f2ec39;fill-opacity:1;stroke:none;stroke-width:0.34900001;stroke-linecap:round;stroke-linejoin:miter;stroke-miterlimit:4;stroke-dasharray:none;stroke-opacity:1"
         d="M 29.314755,43.762237 A 20.534583,20.62081 0 0 0 43.834902,18.507005 20.534583,20.62081 0 0 0 18.685271,3.9258899 20.534583,20.62081 0 0 0 4.1651283,29.181122 20.534583,20.62081 0 0 0 29.314755,43.762237 Z"
         id="path8272-96-8-29-8"
         inkscape:connector-curvature="0" />
      <path
         style="fill:#f9ba13;fill-opacity:1;stroke:none;stroke-width:0.34900001;stroke-linecap:round;stroke-linejoin:miter;stroke-miterlimit:4;stroke-dasharray:none;stroke-opacity:1"
         d="m 8.9819695,37.907423 a 20.534583,20.62081 0 0 0 9.7033025,5.854814 l 5.314741,-19.918173 z"
         id="path8272-5-7-5-1-4"
         inkscape:connector-curvature="0" />
      <path
         style="fill:#f89a22;fill-opacity:1;stroke:none;stroke-width:0.34900001;stroke-linecap:round;stroke-linejoin:miter;stroke-miterlimit:4;stroke-dasharray:none;stroke-opacity:1"
         d="m 3.9917301,28.482736 a 20.534583,20.62081 0 0 0 5.488141,9.942443 L 24.000013,23.844064 Z"
         id="path8272-5-6-6-4-2-5"
         inkscape:connector-curvature="0" />
      <path
         style="fill:#ef5725;fill-opacity:1;stroke:none;stroke-width:0.34900001;stroke-linecap:round;stroke-linejoin:miter;stroke-miterlimit:4;stroke-dasharray:none;stroke-opacity:1"
         d="M 4.362693,17.815121 A 20.534583,20.62081 0 0 0 4.1651283,29.181122 L 24.000013,23.844064 Z"
         id="path8272-5-6-9-29-5-7-0"
         inkscape:connector-curvature="0" />
      <path
         style="fill:#ec3425;fill-opacity:1;stroke:none;stroke-width:0.34900001;stroke-linecap:round;stroke-linejoin:miter;stroke-miterlimit:4;stroke-dasharray:none;stroke-opacity:1"
         d="M 9.9954605,8.7629571 A 20.534583,20.62081 0 0 0 4.1651279,18.507005 l 19.8348851,5.337059 z"
         id="path8272-5-6-9-6-82-5-0-3"
         inkscape:connector-curvature="0" />
      <path
         style="fill:#a61d4c;fill-opacity:1;stroke:none;stroke-width:0.34900001;stroke-linecap:round;stroke-linejoin:miter;stroke-miterlimit:4;stroke-dasharray:none;stroke-opacity:1"
         d="M 19.380736,3.7517639 A 20.534583,20.62081 0 0 0 9.4798692,9.2629482 L 24.000013,23.844064 Z"
         id="path8272-5-6-9-6-3-9-2-9-6"
         inkscape:connector-curvature="0" />
      <path
         style="fill:#7d3693;fill-opacity:1;stroke:none;stroke-width:0.34900001;stroke-linecap:round;stroke-linejoin:miter;stroke-miterlimit:4;stroke-dasharray:none;stroke-opacity:1"
         d="M 30.003744,4.124285 A 20.534583,20.62081 0 0 0 18.68527,3.9258902 l 5.314743,19.9181738 z"
         id="path8272-5-6-9-6-3-0-15-5-3-1"
         inkscape:connector-curvature="0" />
      <path
         style="fill:#47318f;fill-opacity:1;stroke:none;stroke-width:0.34900001;stroke-linecap:round;stroke-linejoin:miter;stroke-miterlimit:4;stroke-dasharray:none;stroke-opacity:1"
         d="M 39.018054,9.7807062 A 20.534583,20.62081 0 0 0 29.314753,3.9258903 l -5.31474,19.9181737 z"
         id="path8272-5-6-9-6-3-0-8-6-7-6-0"
         inkscape:connector-curvature="0" />
      <path
         style="fill:#3e5daa;fill-opacity:1;stroke:none;stroke-width:0.34900001;stroke-linecap:round;stroke-linejoin:miter;stroke-miterlimit:4;stroke-dasharray:none;stroke-opacity:1"
         d="M 44.008298,19.205392 A 20.534583,20.62081 0 0 0 38.520152,9.2629502 L 24.000013,23.844064 Z"
         id="path8272-5-6-9-6-3-0-8-5-1-5-0-6"
         inkscape:connector-curvature="0" />
      <path
         style="fill:#1892cd;fill-opacity:1;stroke:none;stroke-width:0.34900001;stroke-linecap:round;stroke-linejoin:miter;stroke-miterlimit:4;stroke-dasharray:none;stroke-opacity:1"
         d="M 43.637328,29.873006 A 20.534583,20.62081 0 0 0 43.834902,18.507005 L 24.000013,23.844064 Z"
         id="path8272-5-6-9-6-3-0-8-5-4-9-4-62-3"
         inkscape:connector-curvature="0" />
      <path
         style="fill:#63ae45;fill-opacity:1;stroke:none;stroke-width:0.34900001;stroke-linecap:round;stroke-linejoin:miter;stroke-miterlimit:4;stroke-dasharray:none;stroke-opacity:1"
         d="m 38.004566,38.92517 a 20.534583,20.62081 0 0 0 5.830328,-9.744047 L 24.000013,23.844064 Z"
         id="path8272-5-6-9-6-3-0-8-5-4-4-9-8-61-2"
         inkscape:connector-curvature="0" />
      <path
         style="fill:#cedd38;fill-opacity:1;stroke:none;stroke-width:0.34900001;stroke-linecap:round;stroke-linejoin:miter;stroke-miterlimit:4;stroke-dasharray:none;stroke-opacity:1"
         d="m 29.314755,43.762237 a 20.534583,20.62081 0 0 0 9.205401,-5.337058 L 24.000013,23.844064 Z"
         id="path8272-5-6-9-6-3-0-8-5-4-4-3-69-0-8-0"
         inkscape:connector-curvature="0" />
    </g>
    <g
       transform="matrix(-1.0804387,0,0,-1.0766588,396.83473,397.20073)"
       id="g127"
       style="stroke-width:0.08510639">
      <path
         d="m 136.39679,185.8643 a 13.523888,13.523888 0 0 1 13.524,13.52397 13.523888,13.523888 0 0 1 -13.524,13.52379 13.523888,13.523888 0 0 1 -13.52386,-13.52379 13.523888,13.523888 0 0 1 13.52386,-13.52397 m 27.04787,36.06382 a 13.523888,13.523888 0 0 1 13.5239,13.52386 13.523888,13.523888 0 0 1 -13.5239,13.5238 13.523888,13.523888 0 0 1 -13.52387,-13.5238 13.523888,13.523888 0 0 1 13.52387,-13.52386 m 45.0796,0 a 13.523888,13.523888 0 0 1 13.52386,13.52386 13.523888,13.523888 0 0 1 -13.52386,13.5238 13.523888,13.523888 0 0 1 -13.5239,-13.5238 13.523888,13.523888 0 0 1 13.5239,-13.52386 m 27.0478,-36.06382 a 13.523888,13.523888 0 0 1 13.52379,13.52397 13.523888,13.523888 0 0 1 -13.52379,13.52379 13.523888,13.523888 0 0 1 -13.52394,-13.52379 13.523888,13.523888 0 0 1 13.52394,-13.52397 m -49.58769,81.14339 a 81.143328,81.143328 0 0 0 81.14346,-81.14339 81.143328,81.143328 0 0 0 -81.14346,-81.14321 13.523888,13.523888 0 0 0 -13.52372,13.52379 c 0,3.51623 1.35204,6.67186 3.51609,9.01599 2.07386,2.43408 3.42624,5.58981 3.42624,9.01592 a 13.523888,13.523888 0 0 1 -13.52386,13.5238 h -15.95819 a 45.079626,45.079626 0 0 0 -45.07984,45.0797 c 0,39.85042 36.33423,72.1274 81.14328,72.1274 z"
         id="path14"
         style="fill:#000000;fill-opacity:0.53781517;stroke-width:0.62780178"
         inkscape:connector-curvature="0" />
      <path
         d="m 143.59741,195.31613 a 13.523888,13.523888 0 0 1 13.524,13.52397 13.523888,13.523888 0 0 1 -13.524,13.52379 13.523888,13.523888 0 0 1 -13.52386,-13.52379 13.523888,13.523888 0 0 1 13.52386,-13.52397 m 27.04788,36.06382 a 13.523888,13.523888 0 0 1 13.5239,13.52386 13.523888,13.523888 0 0 1 -13.5239,13.5238 13.523888,13.523888 0 0 1 -13.52388,-13.5238 13.523888,13.523888 0 0 1 13.52388,-13.52386 m 45.0796,0 a 13.523888,13.523888 0 0 1 13.52386,13.52386 13.523888,13.523888 0 0 1 -13.52386,13.5238 13.523888,13.523888 0 0 1 -13.5239,-13.5238 13.523888,13.523888 0 0 1 13.5239,-13.52386 m 27.0478,-36.06382 a 13.523888,13.523888 0 0 1 13.52379,13.52397 13.523888,13.523888 0 0 1 -13.52379,13.52379 13.523888,13.523888 0 0 1 -13.52394,-13.52379 13.523888,13.523888 0 0 1 13.52394,-13.52397 m -49.58769,81.1434 a 81.14333,81.14333 0 0 0 81.14346,-81.1434 81.14333,81.14333 0 0 0 -81.14346,-81.14321 13.523888,13.523888 0 0 0 -13.52372,13.52379 c 0,3.51623 1.35204,6.67186 3.51609,9.01599 2.07386,2.43408 3.42624,5.58981 3.42624,9.01592 a 13.523888,13.523888 0 0 1 -13.52386,13.52381 h -15.95819 a 45.079627,45.079627 0 0 0 -45.07985,45.07969 c 0,39.85042 36.33424,72.12741 81.14329,72.12741 z"
         id="path14-5"
         style="fill:#ffffff;fill-opacity:1;stroke-width:0.62780178"
         inkscape:connector-curvature="0" />
    </g>
    <ellipse
       style="opacity:0.4;fill:none;fill-opacity:1;fill-rule:nonzero;stroke:url(#linearGradient918);stroke-width:7.62760067;stroke-linejoin:round;stroke-miterlimit:4;stroke-dasharray:none;stroke-opacity:1;paint-order:fill markers stroke"
       id="path910"
       cx="192"
       cy="192"
       r="172.4362" />
    <circle
       style="opacity:0.4;fill:none;fill-opacity:1;fill-rule:nonzero;stroke:url(#linearGradient968);stroke-width:7.62760067;stroke-linejoin:round;stroke-miterlimit:4;stroke-dasharray:none;stroke-opacity:1;paint-order:fill markers stroke"
       id="path910-5"
       cx="192"
       cy="192"
       r="0" />
    <circle
       style="opacity:0.4;fill:none;fill-opacity:1;fill-rule:nonzero;stroke:#161616;stroke-width:7.62760067;stroke-linejoin:round;stroke-miterlimit:4;stroke-dasharray:none;stroke-opacity:1;paint-order:fill markers stroke"
       id="path910-0"
       cx="192"
       cy="192"
       r="0" />
    <circle
       style="opacity:0.4;fill:none;fill-opacity:1;fill-rule:evenodd;stroke:url(#linearGradient866);stroke-width:7.5;stroke-linejoin:round;stroke-miterlimit:4;stroke-dasharray:none;stroke-opacity:1;paint-order:fill markers stroke"
       id="path858"
       cx="192"
       cy="193.5"
       r="176.25" />
    <circle
       style="opacity:0.4;fill:none;fill-opacity:0;fill-rule:evenodd;stroke:url(#linearGradient866-1);stroke-width:7.34375;stroke-linejoin:round;stroke-miterlimit:4;stroke-dasharray:none;stroke-opacity:1;paint-order:fill markers stroke"
       id="path858-6"
       cx="192"
       cy="-192"
       r="172.57812"
       transform="scale(1,-1)" />
  </g>
</svg>
