<?xml version="1.0" encoding="UTF-8" standalone="no"?>
<svg
   xmlns:dc="http://purl.org/dc/elements/1.1/"
   xmlns:cc="http://creativecommons.org/ns#"
   xmlns:rdf="http://www.w3.org/1999/02/22-rdf-syntax-ns#"
   xmlns:svg="http://www.w3.org/2000/svg"
   xmlns="http://www.w3.org/2000/svg"
   xmlns:xlink="http://www.w3.org/1999/xlink"
   xmlns:sodipodi="http://sodipodi.sourceforge.net/DTD/sodipodi-0.dtd"
   xmlns:inkscape="http://www.inkscape.org/namespaces/inkscape"
   width="512"
   height="512"
   version="1.1"
   viewBox="0 0 384 384"
   id="svg38"
   sodipodi:docname="preferences-system-notifications.svg"
   inkscape:version="0.92.4 5da689c313, 2019-01-14">
  <metadata
     id="metadata42">
    <rdf:RDF>
      <cc:Work
         rdf:about="">
        <dc:format>image/svg+xml</dc:format>
        <dc:type
           rdf:resource="http://purl.org/dc/dcmitype/StillImage" />
      </cc:Work>
    </rdf:RDF>
  </metadata>
  <sodipodi:namedview
     pagecolor="#ffffff"
     bordercolor="#666666"
     borderopacity="1"
     objecttolerance="10"
     gridtolerance="10"
     guidetolerance="10"
     inkscape:pageopacity="0"
     inkscape:pageshadow="2"
     inkscape:window-width="1366"
     inkscape:window-height="713"
     id="namedview40"
     showgrid="false"
     inkscape:zoom="0.4609375"
     inkscape:cx="28.20339"
     inkscape:cy="256"
     inkscape:window-x="0"
     inkscape:window-y="25"
     inkscape:window-maximized="1"
     inkscape:current-layer="svg38" />
  <defs
     id="defs24">
    <linearGradient
       inkscape:collect="always"
       id="linearGradient853">
      <stop
         style="stop-color:#e30f0f;stop-opacity:1;"
         offset="0"
         id="stop849" />
      <stop
         style="stop-color:#e3880f;stop-opacity:1"
         offset="1"
         id="stop851" />
    </linearGradient>
    <clipPath
       id="a">
      <path
         d="m110 117h173v173h-173z"
         id="path2" />
    </clipPath>
    <clipPath
       id="clipPath7">
      <path
         d="m361.66 196.5c0 91.25-73.992 165.16-165.16 165.16s-165.16-73.91-165.16-165.16 73.992-165.16 165.16-165.16 165.16 73.91 165.16 165.16z"
         id="path5" />
    </clipPath>
    <clipPath
       id="b">
      <rect
         width="384"
         height="384"
         id="rect9" />
    </clipPath>
    <g
       clip-path="url(#b)"
       id="g14">
      <g
         clip-path="url(#a)"
         id="g12" />
    </g>
    <clipPath
       id="clipPath18">
      <rect
         width="384"
         height="384"
         id="rect16" />
    </clipPath>
    <clipPath
       id="clipPath22">
      <rect
         width="384"
         height="384"
         id="rect20" />
    </clipPath>
    <linearGradient
       inkscape:collect="always"
       xlink:href="#linearGradient853"
       id="linearGradient855"
       x1="26.883751"
       y1="188.25"
       x2="357.11438"
       y2="195.74776"
       gradientUnits="userSpaceOnUse" />
  </defs>
  <path
     d="m192 26.84c91.219 0 165.16 73.941 165.16 165.16s-73.941 165.16-165.16 165.16-165.16-73.941-165.16-165.16 73.941-165.16 165.16-165.16z"
     fill="#d41717"
     id="path26"
     style="fill:url(#linearGradient855);fill-opacity:1" />
  <g
     id="g34">
    <path
       d="m116.26 120.51c-5.8086 0-10.434 4.6289-10.434 10.434v113.77c0 5.8086 4.6328 12.535 10.434 12.227h32.652v35.906l43.086-35.906h75.738c5.8086 0 10.434-6.4258 10.434-12.227v-113.77c0-5.8086-4.6328-10.434-10.434-10.434m-82.918 28.723h14.359v28.723l21.543-14.359 7.1797 10.77-21.539 14.363 21.539 14.359-7.1797 10.773-21.543-14.363v28.723h-14.359l-0.0586-28.937-21.484 14.582-7.1797-10.77 21.539-14.363-21.539-14.359 7.1797-10.773 21.543 14.363"
       opacity=".3"
       id="path28" />
    <path
       transform="scale(.75)"
       d="m35.85 251c-0.037059 1.6629-0.0625 3.3282-0.0625 5 0 121.62 98.588 220.21 220.21 220.21s220.21-98.588 220.21-220.21c0-1.6718-0.02544-3.3371-0.0625-5-2.659 119.31-100.2 215.21-220.15 215.21s-217.49-95.898-220.15-215.21z"
       opacity=".3"
       stroke-width="1.3333"
       id="path30" />
    <path
       transform="scale(.75)"
       d="m256 35.787c-121.63 0-220.21 98.588-220.21 220.21 0 1.6718 0.025441 3.3371 0.0625 5 2.659-119.31 100.2-215.21 220.15-215.21 119.95 0 217.49 95.898 220.15 215.21 0.03706-1.6629 0.0625-3.3282 0.0625-5 0-121.62-98.588-220.21-220.21-220.21z"
       fill="#fff"
       opacity=".3"
       stroke-width="1.3333"
       id="path32" />
  </g>
  <path
     d="m116.26 113.01c-5.8086 0-10.434 4.6289-10.434 10.434v113.77c0 5.8086 4.6328 12.535 10.434 12.227h32.652v35.906l43.086-35.906h75.738c5.8086 0 10.434-6.4258 10.434-12.227v-113.77c0-5.8086-4.6328-10.434-10.434-10.434m-82.918 28.723h14.359v28.723l21.543-14.359 7.1797 10.77-21.539 14.363 21.539 14.359-7.1797 10.773-21.543-14.363v28.723h-14.359l-0.0586-28.938-21.484 14.582-7.1797-10.77 21.539-14.363-21.539-14.359 7.1797-10.773 21.543 14.363"
     fill="#fff"
     id="path36" />
</svg>
