<?xml version="1.0" encoding="UTF-8" standalone="no"?>
<svg
   xmlns:dc="http://purl.org/dc/elements/1.1/"
   xmlns:cc="http://creativecommons.org/ns#"
   xmlns:rdf="http://www.w3.org/1999/02/22-rdf-syntax-ns#"
   xmlns:svg="http://www.w3.org/2000/svg"
   xmlns="http://www.w3.org/2000/svg"
   xmlns:sodipodi="http://sodipodi.sourceforge.net/DTD/sodipodi-0.dtd"
   xmlns:inkscape="http://www.inkscape.org/namespaces/inkscape"
   width="512"
   height="512"
   version="1.1"
   viewBox="0 0 384 384"
   id="svg587"
   sodipodi:docname="rambox.svg"
   inkscape:version="0.92.4 5da689c313, 2019-01-14">
  <metadata
     id="metadata591">
    <rdf:RDF>
      <cc:Work
         rdf:about="">
        <dc:format>image/svg+xml</dc:format>
        <dc:type
           rdf:resource="http://purl.org/dc/dcmitype/StillImage" />
      </cc:Work>
    </rdf:RDF>
  </metadata>
  <sodipodi:namedview
     pagecolor="#ffffff"
     bordercolor="#666666"
     borderopacity="1"
     objecttolerance="10"
     gridtolerance="10"
     guidetolerance="10"
     inkscape:pageopacity="0"
     inkscape:pageshadow="2"
     inkscape:window-width="1366"
     inkscape:window-height="711"
     id="namedview589"
     showgrid="false"
     inkscape:zoom="0.4609375"
     inkscape:cx="46.644068"
     inkscape:cy="256"
     inkscape:window-x="0"
     inkscape:window-y="25"
     inkscape:window-maximized="1"
     inkscape:current-layer="svg587" />
  <defs
     id="defs571">
    <clipPath
       id="clipPath4">
      <rect
         width="384"
         height="384"
         id="rect2" />
    </clipPath>
    <clipPath
       id="clipPath8">
      <rect
         width="384"
         height="384"
         id="rect6" />
    </clipPath>
    <clipPath
       id="clipPath12">
      <rect
         width="384"
         height="384"
         id="rect10" />
    </clipPath>
    <clipPath
       id="clipPath16">
      <rect
         width="384"
         height="384"
         id="rect14" />
    </clipPath>
    <clipPath
       id="clipPath20">
      <rect
         width="384"
         height="384"
         id="rect18" />
    </clipPath>
    <clipPath
       id="clipPath24">
      <rect
         width="384"
         height="384"
         id="rect22" />
    </clipPath>
    <clipPath
       id="clipPath28">
      <rect
         width="384"
         height="384"
         id="rect26" />
    </clipPath>
    <clipPath
       id="clipPath32">
      <rect
         width="384"
         height="384"
         id="rect30" />
    </clipPath>
    <clipPath
       id="clipPath36">
      <rect
         width="384"
         height="384"
         id="rect34" />
    </clipPath>
    <clipPath
       id="clipPath40">
      <rect
         width="384"
         height="384"
         id="rect38" />
    </clipPath>
    <clipPath
       id="clipPath44">
      <rect
         width="384"
         height="384"
         id="rect42" />
    </clipPath>
    <clipPath
       id="clipPath48">
      <rect
         width="384"
         height="384"
         id="rect46" />
    </clipPath>
    <clipPath
       id="clipPath52">
      <rect
         width="384"
         height="384"
         id="rect50" />
    </clipPath>
    <clipPath
       id="clipPath56">
      <rect
         width="384"
         height="384"
         id="rect54" />
    </clipPath>
    <clipPath
       id="clipPath60">
      <rect
         width="384"
         height="384"
         id="rect58" />
    </clipPath>
    <clipPath
       id="clipPath64">
      <rect
         width="384"
         height="384"
         id="rect62" />
    </clipPath>
    <clipPath
       id="clipPath68">
      <rect
         width="384"
         height="384"
         id="rect66" />
    </clipPath>
    <clipPath
       id="clipPath72">
      <rect
         width="384"
         height="384"
         id="rect70" />
    </clipPath>
    <clipPath
       id="clipPath76">
      <rect
         width="384"
         height="384"
         id="rect74" />
    </clipPath>
    <clipPath
       id="clipPath80">
      <rect
         width="384"
         height="384"
         id="rect78" />
    </clipPath>
    <clipPath
       id="clipPath84">
      <rect
         width="384"
         height="384"
         id="rect82" />
    </clipPath>
    <clipPath
       id="clipPath88">
      <rect
         width="384"
         height="384"
         id="rect86" />
    </clipPath>
    <clipPath
       id="clipPath92">
      <rect
         width="384"
         height="384"
         id="rect90" />
    </clipPath>
    <clipPath
       id="clipPath96">
      <rect
         width="384"
         height="384"
         id="rect94" />
    </clipPath>
    <clipPath
       id="clipPath100">
      <rect
         width="384"
         height="384"
         id="rect98" />
    </clipPath>
    <clipPath
       id="clipPath104">
      <rect
         width="384"
         height="384"
         id="rect102" />
    </clipPath>
    <clipPath
       id="clipPath108">
      <rect
         width="384"
         height="384"
         id="rect106" />
    </clipPath>
    <clipPath
       id="clipPath112">
      <rect
         width="384"
         height="384"
         id="rect110" />
    </clipPath>
    <clipPath
       id="clipPath116">
      <rect
         width="384"
         height="384"
         id="rect114" />
    </clipPath>
    <clipPath
       id="clipPath120">
      <rect
         width="384"
         height="384"
         id="rect118" />
    </clipPath>
    <clipPath
       id="clipPath124">
      <rect
         width="384"
         height="384"
         id="rect122" />
    </clipPath>
    <clipPath
       id="clipPath128">
      <rect
         width="384"
         height="384"
         id="rect126" />
    </clipPath>
    <clipPath
       id="clipPath132">
      <rect
         width="384"
         height="384"
         id="rect130" />
    </clipPath>
    <clipPath
       id="clipPath136">
      <rect
         width="384"
         height="384"
         id="rect134" />
    </clipPath>
    <clipPath
       id="clipPath140">
      <rect
         width="384"
         height="384"
         id="rect138" />
    </clipPath>
    <clipPath
       id="clipPath144">
      <rect
         width="384"
         height="384"
         id="rect142" />
    </clipPath>
    <clipPath
       id="clipPath148">
      <rect
         width="384"
         height="384"
         id="rect146" />
    </clipPath>
    <clipPath
       id="clipPath152">
      <rect
         width="384"
         height="384"
         id="rect150" />
    </clipPath>
    <clipPath
       id="clipPath156">
      <rect
         width="384"
         height="384"
         id="rect154" />
    </clipPath>
    <clipPath
       id="clipPath160">
      <rect
         width="384"
         height="384"
         id="rect158" />
    </clipPath>
    <clipPath
       id="clipPath164">
      <rect
         width="384"
         height="384"
         id="rect162" />
    </clipPath>
    <clipPath
       id="clipPath168">
      <rect
         width="384"
         height="384"
         id="rect166" />
    </clipPath>
    <clipPath
       id="clipPath172">
      <rect
         width="384"
         height="384"
         id="rect170" />
    </clipPath>
    <clipPath
       id="clipPath176">
      <rect
         width="384"
         height="384"
         id="rect174" />
    </clipPath>
    <clipPath
       id="clipPath180">
      <rect
         width="384"
         height="384"
         id="rect178" />
    </clipPath>
    <clipPath
       id="clipPath184">
      <rect
         width="384"
         height="384"
         id="rect182" />
    </clipPath>
    <clipPath
       id="clipPath188">
      <rect
         width="384"
         height="384"
         id="rect186" />
    </clipPath>
    <clipPath
       id="clipPath192">
      <rect
         width="384"
         height="384"
         id="rect190" />
    </clipPath>
    <clipPath
       id="clipPath196">
      <rect
         width="384"
         height="384"
         id="rect194" />
    </clipPath>
    <clipPath
       id="clipPath200">
      <rect
         width="384"
         height="384"
         id="rect198" />
    </clipPath>
    <clipPath
       id="clipPath204">
      <rect
         width="384"
         height="384"
         id="rect202" />
    </clipPath>
    <clipPath
       id="clipPath208">
      <rect
         width="384"
         height="384"
         id="rect206" />
    </clipPath>
    <clipPath
       id="clipPath212">
      <rect
         width="384"
         height="384"
         id="rect210" />
    </clipPath>
    <clipPath
       id="g">
      <path
         d="m111 119h177v23h-177z"
         id="path214" />
    </clipPath>
    <clipPath
       id="clipPath219">
      <path
         d="m368.64 199.88c0-93.234-75.602-168.75-168.75-168.75-93.152 0-168.75 75.516-168.75 168.75s75.598 168.75 168.75 168.75c93.148 0 168.75-75.516 168.75-168.75z"
         id="path217" />
    </clipPath>
    <clipPath
       id="e">
      <path
         d="m177 130h45v89h-45z"
         id="path221" />
    </clipPath>
    <clipPath
       id="clipPath226">
      <path
         d="m368.64 199.88c0-93.234-75.602-168.75-168.75-168.75-93.152 0-168.75 75.516-168.75 168.75s75.598 168.75 168.75 168.75c93.148 0 168.75-75.516 168.75-168.75z"
         id="path224" />
    </clipPath>
    <clipPath
       id="c">
      <path
         d="m111 207h177v89h-177z"
         id="path228" />
    </clipPath>
    <clipPath
       id="clipPath233">
      <path
         d="m368.64 199.88c0-93.234-75.602-168.75-168.75-168.75-93.152 0-168.75 75.516-168.75 168.75s75.598 168.75 168.75 168.75c93.148 0 168.75-75.516 168.75-168.75z"
         id="path231" />
    </clipPath>
    <clipPath
       id="i">
      <rect
         width="384"
         height="384"
         id="rect235" />
    </clipPath>
    <g
       clip-path="url(#i)"
       id="g244">
      <g
         clip-path="url(#g)"
         id="g238" />
      <g
         clip-path="url(#e)"
         id="g240" />
      <g
         clip-path="url(#c)"
         id="g242" />
    </g>
    <clipPath
       id="clipPath248">
      <rect
         width="384"
         height="384"
         id="rect246" />
    </clipPath>
    <clipPath
       id="clipPath252">
      <rect
         width="384"
         height="384"
         id="rect250" />
    </clipPath>
    <clipPath
       id="clipPath256">
      <rect
         width="384"
         height="384"
         id="rect254" />
    </clipPath>
    <clipPath
       id="clipPath260">
      <rect
         width="384"
         height="384"
         id="rect258" />
    </clipPath>
    <clipPath
       id="clipPath264">
      <rect
         width="384"
         height="384"
         id="rect262" />
    </clipPath>
    <clipPath
       id="clipPath268">
      <rect
         width="384"
         height="384"
         id="rect266" />
    </clipPath>
    <clipPath
       id="clipPath272">
      <rect
         width="384"
         height="384"
         id="rect270" />
    </clipPath>
    <clipPath
       id="clipPath276">
      <rect
         width="384"
         height="384"
         id="rect274" />
    </clipPath>
    <clipPath
       id="clipPath280">
      <rect
         width="384"
         height="384"
         id="rect278" />
    </clipPath>
    <clipPath
       id="clipPath284">
      <rect
         width="384"
         height="384"
         id="rect282" />
    </clipPath>
    <clipPath
       id="clipPath288">
      <rect
         width="384"
         height="384"
         id="rect286" />
    </clipPath>
    <linearGradient
       id="a"
       x1="310.63519"
       x2="13.139576"
       y1="76.612137"
       y2="373.90945"
       gradientUnits="userSpaceOnUse">
      <stop
         stop-color="#4cc7cc"
         offset="0"
         id="stop290"
         style="stop-color:#0099ff;stop-opacity:1" />
      <stop
         stop-color="#367bf0"
         offset="1"
         id="stop292"
         style="stop-color:#003399;stop-opacity:1" />
    </linearGradient>
    <clipPath
       id="clipPath297">
      <rect
         width="384"
         height="384"
         id="rect295" />
    </clipPath>
    <clipPath
       id="clipPath301">
      <rect
         width="384"
         height="384"
         id="rect299" />
    </clipPath>
    <clipPath
       id="clipPath305">
      <rect
         width="384"
         height="384"
         id="rect303" />
    </clipPath>
    <clipPath
       id="clipPath309">
      <rect
         width="384"
         height="384"
         id="rect307" />
    </clipPath>
    <clipPath
       id="clipPath313">
      <rect
         width="384"
         height="384"
         id="rect311" />
    </clipPath>
    <clipPath
       id="clipPath317">
      <rect
         width="384"
         height="384"
         id="rect315" />
    </clipPath>
    <clipPath
       id="clipPath321">
      <rect
         width="384"
         height="384"
         id="rect319" />
    </clipPath>
    <clipPath
       id="clipPath325">
      <rect
         width="384"
         height="384"
         id="rect323" />
    </clipPath>
    <clipPath
       id="clipPath329">
      <rect
         width="384"
         height="384"
         id="rect327" />
    </clipPath>
    <clipPath
       id="clipPath333">
      <rect
         width="384"
         height="384"
         id="rect331" />
    </clipPath>
    <clipPath
       id="clipPath337">
      <rect
         width="384"
         height="384"
         id="rect335" />
    </clipPath>
    <clipPath
       id="clipPath341">
      <rect
         width="384"
         height="384"
         id="rect339" />
    </clipPath>
    <clipPath
       id="clipPath345">
      <rect
         width="384"
         height="384"
         id="rect343" />
    </clipPath>
    <clipPath
       id="clipPath349">
      <rect
         width="384"
         height="384"
         id="rect347" />
    </clipPath>
    <clipPath
       id="clipPath353">
      <rect
         width="384"
         height="384"
         id="rect351" />
    </clipPath>
    <clipPath
       id="clipPath357">
      <rect
         width="384"
         height="384"
         id="rect355" />
    </clipPath>
    <clipPath
       id="clipPath361">
      <rect
         width="384"
         height="384"
         id="rect359" />
    </clipPath>
    <clipPath
       id="clipPath365">
      <rect
         width="384"
         height="384"
         id="rect363" />
    </clipPath>
    <clipPath
       id="clipPath369">
      <rect
         width="384"
         height="384"
         id="rect367" />
    </clipPath>
    <clipPath
       id="clipPath373">
      <rect
         width="384"
         height="384"
         id="rect371" />
    </clipPath>
    <clipPath
       id="clipPath377">
      <rect
         width="384"
         height="384"
         id="rect375" />
    </clipPath>
    <clipPath
       id="clipPath381">
      <rect
         width="384"
         height="384"
         id="rect379" />
    </clipPath>
    <clipPath
       id="clipPath385">
      <rect
         width="384"
         height="384"
         id="rect383" />
    </clipPath>
    <clipPath
       id="clipPath389">
      <rect
         width="384"
         height="384"
         id="rect387" />
    </clipPath>
    <clipPath
       id="clipPath393">
      <rect
         width="384"
         height="384"
         id="rect391" />
    </clipPath>
    <clipPath
       id="clipPath397">
      <rect
         width="384"
         height="384"
         id="rect395" />
    </clipPath>
    <clipPath
       id="clipPath401">
      <rect
         width="384"
         height="384"
         id="rect399" />
    </clipPath>
    <clipPath
       id="clipPath405">
      <rect
         width="384"
         height="384"
         id="rect403" />
    </clipPath>
    <clipPath
       id="clipPath409">
      <rect
         width="384"
         height="384"
         id="rect407" />
    </clipPath>
    <clipPath
       id="clipPath413">
      <rect
         width="384"
         height="384"
         id="rect411" />
    </clipPath>
    <clipPath
       id="clipPath417">
      <rect
         width="384"
         height="384"
         id="rect415" />
    </clipPath>
    <clipPath
       id="clipPath421">
      <rect
         width="384"
         height="384"
         id="rect419" />
    </clipPath>
    <clipPath
       id="clipPath425">
      <rect
         width="384"
         height="384"
         id="rect423" />
    </clipPath>
    <clipPath
       id="clipPath429">
      <rect
         width="384"
         height="384"
         id="rect427" />
    </clipPath>
    <clipPath
       id="clipPath433">
      <rect
         width="384"
         height="384"
         id="rect431" />
    </clipPath>
    <clipPath
       id="clipPath437">
      <rect
         width="384"
         height="384"
         id="rect435" />
    </clipPath>
    <clipPath
       id="clipPath441">
      <rect
         width="384"
         height="384"
         id="rect439" />
    </clipPath>
    <clipPath
       id="clipPath445">
      <rect
         width="384"
         height="384"
         id="rect443" />
    </clipPath>
    <clipPath
       id="clipPath449">
      <rect
         width="384"
         height="384"
         id="rect447" />
    </clipPath>
    <clipPath
       id="clipPath453">
      <rect
         width="384"
         height="384"
         id="rect451" />
    </clipPath>
    <clipPath
       id="clipPath457">
      <rect
         width="384"
         height="384"
         id="rect455" />
    </clipPath>
    <clipPath
       id="clipPath461">
      <rect
         width="384"
         height="384"
         id="rect459" />
    </clipPath>
    <clipPath
       id="clipPath465">
      <rect
         width="384"
         height="384"
         id="rect463" />
    </clipPath>
    <clipPath
       id="clipPath469">
      <rect
         width="384"
         height="384"
         id="rect467" />
    </clipPath>
    <clipPath
       id="clipPath473">
      <rect
         width="384"
         height="384"
         id="rect471" />
    </clipPath>
    <clipPath
       id="clipPath477">
      <rect
         width="384"
         height="384"
         id="rect475" />
    </clipPath>
    <clipPath
       id="clipPath481">
      <rect
         width="384"
         height="384"
         id="rect479" />
    </clipPath>
    <clipPath
       id="clipPath485">
      <rect
         width="384"
         height="384"
         id="rect483" />
    </clipPath>
    <clipPath
       id="clipPath489">
      <rect
         width="384"
         height="384"
         id="rect487" />
    </clipPath>
    <clipPath
       id="clipPath493">
      <rect
         width="384"
         height="384"
         id="rect491" />
    </clipPath>
    <clipPath
       id="f">
      <path
         d="m111 119h177v23h-177z"
         id="path495" />
    </clipPath>
    <clipPath
       id="clipPath500">
      <path
         d="m368.64 199.88c0-93.234-75.602-168.75-168.75-168.75-93.152 0-168.75 75.516-168.75 168.75s75.598 168.75 168.75 168.75c93.148 0 168.75-75.516 168.75-168.75z"
         id="path498" />
    </clipPath>
    <clipPath
       id="d">
      <path
         d="m177 130h45v89h-45z"
         id="path502" />
    </clipPath>
    <clipPath
       id="clipPath507">
      <path
         d="m368.64 199.88c0-93.234-75.602-168.75-168.75-168.75-93.152 0-168.75 75.516-168.75 168.75s75.598 168.75 168.75 168.75c93.148 0 168.75-75.516 168.75-168.75z"
         id="path505" />
    </clipPath>
    <clipPath
       id="b">
      <path
         d="m111 207h177v89h-177z"
         id="path509" />
    </clipPath>
    <clipPath
       id="clipPath514">
      <path
         d="m368.64 199.88c0-93.234-75.602-168.75-168.75-168.75-93.152 0-168.75 75.516-168.75 168.75s75.598 168.75 168.75 168.75c93.148 0 168.75-75.516 168.75-168.75z"
         id="path512" />
    </clipPath>
    <clipPath
       id="h">
      <rect
         width="384"
         height="384"
         id="rect516" />
    </clipPath>
    <g
       clip-path="url(#h)"
       id="g525">
      <g
         clip-path="url(#f)"
         id="g519" />
      <g
         clip-path="url(#d)"
         id="g521" />
      <g
         clip-path="url(#b)"
         id="g523" />
    </g>
    <clipPath
       id="clipPath529">
      <rect
         width="384"
         height="384"
         id="rect527" />
    </clipPath>
    <clipPath
       id="clipPath533">
      <rect
         width="384"
         height="384"
         id="rect531" />
    </clipPath>
    <clipPath
       id="clipPath537">
      <rect
         width="384"
         height="384"
         id="rect535" />
    </clipPath>
    <clipPath
       id="clipPath541">
      <rect
         width="384"
         height="384"
         id="rect539" />
    </clipPath>
    <clipPath
       id="clipPath545">
      <rect
         width="384"
         height="384"
         id="rect543" />
    </clipPath>
    <clipPath
       id="clipPath549">
      <rect
         width="384"
         height="384"
         id="rect547" />
    </clipPath>
    <clipPath
       id="clipPath553">
      <rect
         width="384"
         height="384"
         id="rect551" />
    </clipPath>
    <clipPath
       id="clipPath557">
      <rect
         width="384"
         height="384"
         id="rect555" />
    </clipPath>
    <clipPath
       id="clipPath561">
      <rect
         width="384"
         height="384"
         id="rect559" />
    </clipPath>
    <clipPath
       id="clipPath565">
      <rect
         width="384"
         height="384"
         id="rect563" />
    </clipPath>
    <clipPath
       id="clipPath569">
      <rect
         width="384"
         height="384"
         id="rect567" />
    </clipPath>
  </defs>
  <g
     id="g577"
     transform="matrix(1.0490943,0,0,1.0490943,-9.4278759,-9.4265777)">
    <path
       d="M 360,192 C 360,99.215 284.785,24 192,24 99.215,24 24,99.215 24,192 c 0,92.785 75.215,168 168,168 92.785,0 168,-75.215 168,-168 z"
       id="path573"
       style="fill:url(#a)"
       inkscape:connector-curvature="0" />
  </g>
  <g
     id="g585"
     transform="matrix(1.0490943,0,0,1.0490943,-9.4278759,-9.4265777)">
    <path
       d="m 191.96,91.512 c -17.75,9.3086 -27.898,32.145 -35.926,48 -5.1016,-6.9141 -4.0078,-21.406 -5.9883,-30 -15.684,20.695 -22.594,56.277 -28.906,76.969 -8.9453,29.414 -20.34,47.465 -36.605,57.98 -9.6641,6.2461 -18.324,1.9609 -37.047,6.2109 -4.2891,1.2734 -9.0117,2.3164 -11.488,2.8789 24.426,62.41 84.812,106.45 155.95,106.45 3.2226,0 6.3672,-0.3125 9.543,-0.49218 7.7305,-15.117 8.6602,-28.609 5.6601,-41.414 -2,-7.8828 -7.1719,-22.043 -6.8398,-22.594 0.34375,-0.55468 8.7852,0.3047 15.953,0.3047 8.4648,0 14.672,0.30468 19.152,-1.0547 3.7969,-1.1523 8.3281,-3.0195 11.02,-2.8828 11.965,0.60547 27.105,-4.8516 31.105,-15.516 1.2422,-3.3125 6.4609,-7.5898 7.8359,-9.4922 2.25,-3.1133 3.4336,-5.6758 1.9883,-10.57 -2.0352,-6.9101 -10.371,-10.98 -19.195,-19.043 -6.6836,-6.1211 -10.023,-6.7539 -10.359,-13.297 -0.24609,-4.8086 1.0352,-8.1602 -1.5664,-10.613 -2.9492,-2.7852 -10.414,-1.0039 -10.898,-1.0547 -3.0977,-3.6133 -6.0508,-7.375 -0.35157,-12.586 4.3086,-3.9492 6.8242,-5.7109 6.8242,-10.031 0,-4.2461 -2.5039,-5.4844 -6.2461,-8.7656 -2.4688,-2.168 -5.1055,-3.9375 -5.8906,-3.9375 -0.78906,0 -4.7656,-3.1641 -8.8203,-7.0312 -7.8555,-7.5 -13.387,-6.4336 -19.504,-6.4336 -4.9492,0 -7.4375,-4.8242 -7.4375,-12 6.586,-23.891 26.043,-42.48 35.926,-47.996 -25.031,-3.5508 -43.266,8.8945 -59.875,24 -0.78124,-8.7773 11.039,-30.332 11.973,-36 z"
       id="path579"
       inkscape:connector-curvature="0"
       style="opacity:1;fill:#ffffff;fill-opacity:1" />
    <path
       transform="scale(0.75)"
       d="m 32.062,251 c -0.03644,1.6631 -0.0625,3.3282 -0.0625,5 0,123.71 100.29,224 224,224 123.71,0 224,-100.29 224,-224 0,-1.6718 -0.0261,-3.3369 -0.0625,-5 -2.66,121.4 -101.9,219 -223.94,219 -122.04,0 -221.28,-97.597 -223.94,-219 z"
       id="path581"
       inkscape:connector-curvature="0"
       style="opacity:0.3;fill:#193132;stroke-width:1.33329999" />
    <path
       transform="scale(0.75)"
       d="M 256,32 C 132.29,32 32,132.29 32,256 c 0,1.6718 0.02606,3.3369 0.0625,5 2.66,-121.4 101.9,-219 223.94,-219 122.04,0 221.28,97.597 223.94,219 0.0364,-1.6631 0.0625,-3.3282 0.0625,-5 0,-123.71 -100.29,-224 -224,-224 z"
       id="path583"
       inkscape:connector-curvature="0"
       style="opacity:0.3;fill:#ffffff;stroke-width:1.33329999" />
  </g>
</svg>
