<?xml version="1.0" encoding="UTF-8" standalone="no"?>
<svg
   xmlns:dc="http://purl.org/dc/elements/1.1/"
   xmlns:cc="http://creativecommons.org/ns#"
   xmlns:rdf="http://www.w3.org/1999/02/22-rdf-syntax-ns#"
   xmlns:svg="http://www.w3.org/2000/svg"
   xmlns="http://www.w3.org/2000/svg"
   xmlns:xlink="http://www.w3.org/1999/xlink"
   xmlns:sodipodi="http://sodipodi.sourceforge.net/DTD/sodipodi-0.dtd"
   xmlns:inkscape="http://www.inkscape.org/namespaces/inkscape"
   width="512"
   height="512"
   version="1.1"
   viewBox="0 0 384 384"
   id="svg44"
   sodipodi:docname="spotify.svg"
   inkscape:version="0.92.4 5da689c313, 2019-01-14">
  <metadata
     id="metadata48">
    <rdf:RDF>
      <cc:Work
         rdf:about="">
        <dc:format>image/svg+xml</dc:format>
        <dc:type
           rdf:resource="http://purl.org/dc/dcmitype/StillImage" />
      </cc:Work>
    </rdf:RDF>
  </metadata>
  <sodipodi:namedview
     pagecolor="#ffffff"
     bordercolor="#666666"
     borderopacity="1"
     objecttolerance="10"
     gridtolerance="10"
     guidetolerance="10"
     inkscape:pageopacity="0"
     inkscape:pageshadow="2"
     inkscape:window-width="1366"
     inkscape:window-height="713"
     id="namedview46"
     showgrid="false"
     inkscape:zoom="0.4609375"
     inkscape:cx="263.44248"
     inkscape:cy="106.68606"
     inkscape:window-x="0"
     inkscape:window-y="25"
     inkscape:window-maximized="1"
     inkscape:current-layer="svg44" />
  <defs
     id="defs30">
    <linearGradient
       id="linearGradient1530"
       inkscape:collect="always">
      <stop
         id="stop1526"
         offset="0"
         style="stop-color:#000000;stop-opacity:1" />
      <stop
         id="stop1528"
         offset="1"
         style="stop-color:#000000;stop-opacity:0" />
    </linearGradient>
    <linearGradient
       inkscape:collect="always"
       id="linearGradient1498">
      <stop
         style="stop-color:#ffffff;stop-opacity:1;"
         offset="0"
         id="stop1494" />
      <stop
         style="stop-color:#ffffff;stop-opacity:0;"
         offset="1"
         id="stop1496" />
    </linearGradient>
    <clipPath
       id="f">
      <path
         d="m111 119h177v23h-177z"
         id="path2" />
    </clipPath>
    <clipPath
       id="d">
      <path
         d="m177 130h45v89h-45z"
         id="path5" />
    </clipPath>
    <clipPath
       id="b">
      <path
         d="m111 207h177v89h-177z"
         id="path8" />
    </clipPath>
    <clipPath
       id="h">
      <rect
         width="384"
         height="384"
         id="rect11" />
    </clipPath>
    <g
       clip-path="url(#h)"
       id="g14" />
    <clipPath
       id="e">
      <path
         d="m111 119h177v23h-177z"
         id="path16" />
    </clipPath>
    <clipPath
       id="c">
      <path
         d="m177 130h45v89h-45z"
         id="path19" />
    </clipPath>
    <clipPath
       id="a">
      <path
         d="m111 207h177v89h-177z"
         id="path22" />
    </clipPath>
    <clipPath
       id="g">
      <rect
         width="384"
         height="384"
         id="rect25" />
    </clipPath>
    <g
       clip-path="url(#g)"
       id="g28" />
    <linearGradient
       inkscape:collect="always"
       xlink:href="#linearGradient1498"
       id="linearGradient1500"
       x1="192.80475"
       y1="25.220339"
       x2="184.6868"
       y2="115.52542"
       gradientUnits="userSpaceOnUse" />
    <linearGradient
       gradientTransform="translate(1.5429688e-6,-383.99999)"
       inkscape:collect="always"
       xlink:href="#linearGradient1530"
       id="linearGradient1500-9"
       x1="192.80475"
       y1="25.220339"
       x2="184.6868"
       y2="115.52542"
       gradientUnits="userSpaceOnUse" />
  </defs>
  <circle
     style="opacity:1;fill:#1b1b1b;fill-opacity:1;fill-rule:evenodd;stroke:none;stroke-width:8.45789433;stroke-linejoin:round;stroke-miterlimit:4;stroke-dasharray:none;stroke-opacity:1;paint-order:normal"
     id="path1481"
     cx="192"
     cy="192"
     r="142.5" />
  <path
     inkscape:connector-curvature="0"
     style="fill:#1ed760;stroke-width:2.10466599"
     d="m 191.99894,15.750001 c -97.337534,0 -176.248942,78.91118 -176.248942,176.251049 0,97.34407 78.911409,176.24895 176.248942,176.24895 C 289.34701,368.25 368.25,289.34512 368.25,192.00105 368.25,94.667501 289.34701,15.758421 191.99684,15.758421 Z M 272.82557,269.9546 c -3.15696,5.17754 -9.9339,6.8192 -15.11132,3.64112 -41.38145,-25.27734 -93.47552,-31.0021 -154.8258,-16.98486 -5.911939,1.347 -11.804934,-2.35725 -13.151904,-8.27144 -1.353284,-5.91418 2.336151,-11.80731 8.26282,-13.15432 67.138044,-15.3453 124.727334,-8.73447 171.185184,19.65782 5.17741,3.17808 6.81903,9.93414 3.64102,15.11168 z m 21.57257,-47.99748 c -3.97777,6.47192 -12.43842,8.51347 -18.89967,4.53561 C 228.123,197.36591 155.90645,188.93241 99.870392,205.94252 c -7.267325,2.1952 -14.942951,-1.90053 -17.148615,-9.1554 -2.188826,-7.2675 1.90891,-14.92858 9.163607,-17.13851 64.008446,-19.42209 143.582816,-10.01412 197.987786,23.4189 6.46124,3.97787 8.50275,12.43873 4.52497,18.89171 z m 1.85209,-49.97379 C 239.44597,138.24302 145.72631,135.14071 91.491816,151.6015 c -8.709004,2.64139 -17.918913,-2.27517 -20.558133,-10.98438 -2.639219,-8.71343 2.273013,-17.91724 10.988331,-20.56494 62.257386,-18.90013 165.753096,-15.24849 231.152716,23.57675 7.85031,4.64926 10.41797,14.76651 5.76671,22.58965 -4.63021,7.83366 -14.77458,10.41612 -22.58279,5.76475 z"
     id="path913" />
  <circle
     style="opacity:0.4;fill:none;fill-opacity:1;fill-rule:evenodd;stroke:url(#linearGradient1500);stroke-width:7.5;stroke-linejoin:round;stroke-miterlimit:4;stroke-dasharray:none;stroke-opacity:1;paint-order:normal"
     id="path1492"
     cx="192"
     cy="192"
     r="171.98763" />
  <circle
     style="opacity:0.4;fill:none;fill-opacity:1;fill-rule:evenodd;stroke:url(#linearGradient1500-9);stroke-width:7.5;stroke-linejoin:round;stroke-miterlimit:4;stroke-dasharray:none;stroke-opacity:1;paint-order:normal"
     id="path1492-8"
     cx="192"
     cy="-192"
     r="171.98763"
     transform="scale(1,-1)" />
</svg>
