<?xml version="1.0" encoding="UTF-8" standalone="no"?>
<svg
   xmlns:dc="http://purl.org/dc/elements/1.1/"
   xmlns:cc="http://creativecommons.org/ns#"
   xmlns:rdf="http://www.w3.org/1999/02/22-rdf-syntax-ns#"
   xmlns:svg="http://www.w3.org/2000/svg"
   xmlns="http://www.w3.org/2000/svg"
   xmlns:xlink="http://www.w3.org/1999/xlink"
   xmlns:sodipodi="http://sodipodi.sourceforge.net/DTD/sodipodi-0.dtd"
   xmlns:inkscape="http://www.inkscape.org/namespaces/inkscape"
   width="512"
   height="512"
   version="1.1"
   viewBox="0 0 384 384"
   id="svg14"
   sodipodi:docname="utilities-terminal.svg"
   inkscape:version="0.92.4 5da689c313, 2019-01-14">
  <metadata
     id="metadata20">
    <rdf:RDF>
      <cc:Work
         rdf:about="">
        <dc:format>image/svg+xml</dc:format>
        <dc:type
           rdf:resource="http://purl.org/dc/dcmitype/StillImage" />
      </cc:Work>
    </rdf:RDF>
  </metadata>
  <defs
     id="defs18">
    <linearGradient
       id="linearGradient896"
       inkscape:collect="always">
      <stop
         id="stop892"
         offset="0"
         style="stop-color:#ffffff;stop-opacity:1" />
      <stop
         id="stop894"
         offset="1"
         style="stop-color:#ffffff;stop-opacity:0" />
    </linearGradient>
    <linearGradient
       inkscape:collect="always"
       id="linearGradient864">
      <stop
         style="stop-color:#000000;stop-opacity:1;"
         offset="0"
         id="stop860" />
      <stop
         style="stop-color:#000000;stop-opacity:0;"
         offset="1"
         id="stop862" />
    </linearGradient>
    <linearGradient
       inkscape:collect="always"
       id="linearGradient878">
      <stop
         style="stop-color:#282828;stop-opacity:1;"
         offset="0"
         id="stop874" />
      <stop
         style="stop-color:#141414;stop-opacity:1"
         offset="1"
         id="stop876" />
    </linearGradient>
    <linearGradient
       inkscape:collect="always"
       xlink:href="#linearGradient878"
       id="linearGradient880"
       x1="191.965"
       y1="58.296616"
       x2="178.96399"
       y2="335.04663"
       gradientUnits="userSpaceOnUse"
       gradientTransform="matrix(1.003941,0,0,1.0455936,-0.75667631,-1.236456)" />
    <linearGradient
       inkscape:collect="always"
       xlink:href="#linearGradient864"
       id="linearGradient866"
       x1="193.9409"
       y1="359.58432"
       x2="194.30173"
       y2="343.67441"
       gradientUnits="userSpaceOnUse" />
    <linearGradient
       gradientTransform="matrix(1,0,0,-1,5e-6,384)"
       inkscape:collect="always"
       xlink:href="#linearGradient896"
       id="linearGradient866-2"
       x1="193.9409"
       y1="359.58432"
       x2="194.30173"
       y2="343.67441"
       gradientUnits="userSpaceOnUse" />
  </defs>
  <sodipodi:namedview
     pagecolor="#ffffff"
     bordercolor="#666666"
     borderopacity="1"
     objecttolerance="10"
     gridtolerance="10"
     guidetolerance="10"
     inkscape:pageopacity="0"
     inkscape:pageshadow="2"
     inkscape:window-width="1366"
     inkscape:window-height="713"
     id="namedview16"
     showgrid="false"
     inkscape:zoom="1"
     inkscape:cx="222.74128"
     inkscape:cy="443.10905"
     inkscape:window-x="0"
     inkscape:window-y="25"
     inkscape:window-maximized="1"
     inkscape:current-layer="g8"
     showguides="false" />
  <g
     fill-rule="evenodd"
     id="g8">
    <path
       d="M 31.362569,15.75 H 352.64137 c 8.62142,0 15.60863,8.902726 15.60863,19.886935 V 348.35807 c 0,10.98452 -6.98745,19.89193 -15.60863,19.89193 H 31.362569 c -8.621412,0 -15.61257,-8.90792 -15.61257,-19.89193 V 35.636935 C 15.749999,24.652426 22.741548,15.75 31.362569,15.75 Z"
       id="path6"
       style="fill:url(#linearGradient880);fill-opacity:1;stroke:none;stroke-width:15.36833763;stroke-linejoin:round;stroke-miterlimit:4;stroke-dasharray:none"
       inkscape:connector-curvature="0" />
    <path
       d="M 34.709184,19.42187 H 349.29467 c 8.44181,0 15.28345,8.717253 15.28345,19.472625 V 345.10062 c 0,10.75568 -6.84188,19.47751 -15.28345,19.47751 H 34.709184 c -8.441799,0 -15.287308,-8.72233 -15.287308,-19.47751 V 38.894495 c 0,-10.755665 6.845892,-19.472625 15.287308,-19.472625 z"
       id="path6-2"
       style="fill:none;fill-opacity:1;stroke:url(#linearGradient866);stroke-width:7.34375048;stroke-linejoin:round;stroke-miterlimit:4;stroke-dasharray:none;stroke-opacity:1"
       inkscape:connector-curvature="0" />
    <path
       d="M 34.709195,364.57813 H 349.29466 c 8.44182,0 15.28346,-8.71725 15.28346,-19.47263 V 38.899382 c 0,-10.75567 -6.84188,-19.47751 -15.28346,-19.47751 H 34.709195 c -8.4418,0 -15.28731,8.72233 -15.28731,19.47751 V 345.1055 c 0,10.75567 6.84589,19.47263 15.28731,19.47263 z"
       id="path6-2-1"
       style="fill:none;fill-opacity:1;stroke:url(#linearGradient866-2);stroke-width:7.34375;stroke-linejoin:round;stroke-miterlimit:4;stroke-dasharray:none;stroke-opacity:1;opacity:0.4"
       inkscape:connector-curvature="0" />
  </g>
  <path
     d="m 140.82,135.07 v 5.4141 H 100.523 V 135.07 Z"
     id="path10"
     inkscape:connector-curvature="0"
     style="fill:#ffffff" />
  <path
     d="m 72.859,63.62 v 9.043 c -4.418,0.5 -7.875,1.8086 -10.355,3.9453 -2.75,2.375 -4.1289,5.6211 -4.1289,9.7344 0,3.7891 1.2656,6.7695 3.7891,8.9414 2.3125,1.9688 5.8906,3.4141 10.695,4.3438 v 17.48 c -2.2773,-0.13672 -4.5039,-0.52344 -6.6797,-1.1836 -2.625,-0.83593 -5.2266,-2.0586 -7.8047,-3.6758 v 6.8203 c 2.6797,1.1367 5.3438,1.9922 7.9922,2.5742 2.1641,0.45313 4.3281,0.73047 6.4922,0.84766 v 11.461 h 6.7891 v -11.621 c 4.668,-0.51953 8.3047,-1.8789 10.887,-4.0938 2.8789,-2.4766 4.3164,-5.8476 4.3164,-10.113 0,-3.9414 -1.3516,-7.0469 -4.0508,-9.3203 -2.4609,-2.0664 -6.1875,-3.5508 -11.152,-4.4688 v -16.332 c 1.7969,0.16016 3.5586,0.46094 5.2812,0.91797 2.2188,0.58203 4.3789,1.3984 6.4727,2.4609 v -6.6289 c -2.0938,-0.68359 -4.2383,-1.2109 -6.4375,-1.5898 -1.7227,-0.31641 -3.4961,-0.53907 -5.3164,-0.66797 v -8.875 z m 0,14.469 v 15.004 c -2.3906,-0.53906 -4.1914,-1.3086 -5.3906,-2.3164 -1.4141,-1.2148 -2.1211,-2.9062 -2.1211,-5.0781 0,-2.2188 0.76953,-4 2.3086,-5.3398 1.2656,-1.0977 3.0039,-1.8516 5.2031,-2.2695 z m 6.7891,22.887 c 2.5938,0.60156 4.5469,1.457 5.8477,2.5625 1.5664,1.3125 2.3477,3.082 2.3477,5.3047 0,2.2695 -0.82031,4.1016 -2.4609,5.4922 -1.3516,1.1602 -3.2695,1.9805 -5.7344,2.4727 z"
     id="path12"
     inkscape:connector-curvature="0"
     style="fill:#ffffff" />
</svg>
