<?xml version="1.0" encoding="UTF-8" standalone="no"?>
<svg
   xmlns:dc="http://purl.org/dc/elements/1.1/"
   xmlns:cc="http://creativecommons.org/ns#"
   xmlns:rdf="http://www.w3.org/1999/02/22-rdf-syntax-ns#"
   xmlns:svg="http://www.w3.org/2000/svg"
   xmlns="http://www.w3.org/2000/svg"
   xmlns:sodipodi="http://sodipodi.sourceforge.net/DTD/sodipodi-0.dtd"
   xmlns:inkscape="http://www.inkscape.org/namespaces/inkscape"
   width="512"
   height="512"
   version="1.1"
   viewBox="0 0 384 384"
   id="svg26"
   sodipodi:docname="virtualbox.svg"
   inkscape:version="0.92.4 5da689c313, 2019-01-14">
  <metadata
     id="metadata32">
    <rdf:RDF>
      <cc:Work
         rdf:about="">
        <dc:format>image/svg+xml</dc:format>
        <dc:type
           rdf:resource="http://purl.org/dc/dcmitype/StillImage" />
      </cc:Work>
    </rdf:RDF>
  </metadata>
  <defs
     id="defs30" />
  <sodipodi:namedview
     pagecolor="#ffffff"
     bordercolor="#666666"
     borderopacity="1"
     objecttolerance="10"
     gridtolerance="10"
     guidetolerance="10"
     inkscape:pageopacity="0"
     inkscape:pageshadow="2"
     inkscape:window-width="1366"
     inkscape:window-height="713"
     id="namedview28"
     showgrid="false"
     inkscape:zoom="0.4609375"
     inkscape:cx="1.0847458"
     inkscape:cy="256"
     inkscape:window-x="0"
     inkscape:window-y="25"
     inkscape:window-maximized="1"
     inkscape:current-layer="svg26" />
  <path
     d="m 272.08882,35.540541 c -3.23619,-1.618093 -6.64281,-3.219523 -10.14098,-4.725293 -3.20286,-1.39756 -6.38494,-2.682901 -9.64191,-3.872583 -15.67363,-5.864983 -31.36309,-9.438036 -47.07364,-10.664948 -25.8355,-2.083947 -51.72373,2.009064 -77.76278,12.282831 -8.73088,3.460729 -16.99621,7.408194 -24.79559,11.875724 C 87.299818,49.25869 73.786173,60.036489 62.284861,72.710608 49.477853,86.757922 38.986927,103.20464 30.809974,122.05498 c -7.537076,17.3664 -12.229042,34.78659 -14.088447,51.98635 -0.166387,1.65554 -0.316131,3.19875 -0.449231,4.74607 -1.376783,16.97512 -0.07072,33.78359 3.818477,50.62581 2.121388,9.13851 4.933277,18.14792 8.468889,27.12011 10.311524,26.03905 25.031832,47.79715 44.128966,65.18042 11.709084,10.66495 25.016013,19.6751 39.943982,27.10323 0.0582,0.0167 0.0957,0.0373 0.13311,0.0541 1.15214,0.57818 2.26694,1.11891 3.21953,1.54732 1.82186,0.8735 3.43995,1.61809 5.06216,2.32515 0.40763,0.16639 0.70712,0.31612 1.02324,0.44507 3.51895,1.52655 7.03378,2.92421 10.38641,4.17201 0.87351,0.31613 1.67631,0.61145 2.45414,0.89014 7.092,2.49569 14.22133,4.52564 21.18435,6.06885 2.94077,0.63225 5.88164,1.21046 8.74753,1.69298 0.35356,0.0749 0.72377,0.11231 1.00661,0.17054 4.33433,0.68633 8.63522,1.21046 12.93252,1.56399 25.98526,2.02573 51.81971,-2.06729 77.74591,-12.30393 9.06784,-3.57305 17.61109,-7.68684 25.61507,-12.34189 13.06541,-7.57452 24.73652,-16.56801 35.02811,-26.98721 1.54733,-1.56399 3.0531,-3.16542 4.56309,-4.80429 3.12386,-3.44417 6.13951,-7.05456 9.02618,-10.83159 7.46219,-9.73746 13.9756,-20.51041 19.57912,-32.27434 0.96918,-2.05062 1.91752,-4.13456 2.84933,-6.27262 0.0915,-0.22461 0.20383,-0.46586 0.29534,-0.69049 0.0582,-0.1123 0.0958,-0.22461 0.14974,-0.33692 1.04405,-2.45415 2.02984,-4.92906 3.01565,-7.44142 4.33844,-11.40956 7.49964,-22.952 9.43804,-34.64104 0.26206,-1.63888 0.51995,-3.40663 0.782,-5.17449 0.33277,-2.737 0.64889,-5.52801 0.87351,-8.41478 0.0375,-0.53657 0.0914,-1.1688 0.14974,-1.84264 0.48251,-7.18354 0.48251,-14.40485 0.0374,-21.73806 -0.16639,-2.38337 -0.37436,-4.80428 -0.63225,-7.29587 -0.0749,-0.69049 -0.17055,-1.435 -0.26205,-2.1796 -0.74456,-6.10208 -1.84274,-12.22905 -3.33185,-18.50124 -2.02984,-8.61444 -4.78351,-17.3991 -8.26501,-26.2057 C 345.18601,101.50484 330.49819,79.800531 311.28926,62.284365 304.30958,55.920201 296.64394,50.076417 288.37839,44.810388 283.22057,41.495204 277.84222,38.44211 272.08988,35.53878 Z"
     id="path2"
     inkscape:connector-curvature="0"
     style="fill:#2861bf;stroke-width:1.06480742" />
  <path
     d="m 334.84242,189.92284 c 0,4.64208 -0.18717,9.20506 -0.55739,13.69717 -2.94077,34.21284 -16.88335,63.77031 -41.88249,88.76523 -28.28869,28.29291 -62.44352,42.44042 -102.46239,42.44042 -40.01887,0 -74.17371,-14.14646 -102.466615,-42.44042 -24.95695,-24.95695 -38.916726,-54.47751 -41.85718,-88.76523 -0.391003,-4.355 -0.578177,-8.98885 -0.578177,-13.69717 0,-40.01886 14.146455,-74.1737 42.436201,-102.466612 28.292911,-28.288692 62.447741,-42.436201 102.466611,-42.436201 40.01887,0 74.1737,14.146455 102.4624,42.436201 28.29291,28.292912 42.44042,62.447752 42.44042,102.466612 z m 0,0"
     id="path4"
     inkscape:connector-curvature="0"
     style="fill:none;stroke:#ffffff;stroke-width:20.752985;stroke-linecap:round;stroke-linejoin:round" />
  <path
     d="m 189.93961,55.401266 c -37.57412,0 -68.56385,12.836539 -95.128129,39.396606 C 68.25141,121.36216 55.412762,152.354 55.412762,189.92706 c 0,1.15319 0.116268,2.18478 0.140388,3.32088 h 44.207011 a 10.377758,10.377758 0 0 1 9.953249,7.44195 l 12.21006,41.40577 31.33883,-148.203971 a 10.377758,10.377758 0 0 1 20.26361,-0.187185 l 21.77076,94.357166 18.23862,-94.000684 a 10.377758,10.377758 0 0 1 20.12545,-1.015448 L 263.8236,193.24353 h 60.50713 c 0.0234,-1.11701 0.13415,-2.19268 0.13415,-3.32087 0,-37.57412 -12.8376,-68.56596 -39.40188,-95.129197 C 258.50398,68.234451 227.51214,55.396857 189.93803,55.396857 Z"
     id="path6"
     inkscape:connector-curvature="0"
     style="fill:#357af0;stroke-width:1.05468237" />
  <path
     d="M 334.28344,203.62317 H 256.10827 L 223.72214,96.045561 196.17384,238.02691 163.41329,96.045561 123.5811,284.41184 99.758991,203.6295 H 45.613707 c 2.940771,34.28772 16.900231,63.80723 41.857181,88.76523 28.292912,28.29291 62.447742,42.44042 102.466612,42.44042 40.01887,0 74.1737,-14.14645 102.46239,-42.44042 24.99914,-24.99492 38.94204,-54.55239 41.8825,-88.76523 z"
     id="path8"
     inkscape:connector-curvature="0"
     style="fill:#4a87f0;stroke-width:1.06480742" />
  <path
     d="m 225.90428,139.277 -19.54432,100.72111 a 10.377653,10.377653 0 0 1 -20.29631,0.35565 l -22.20739,-96.2461 -30.12173,142.44541 a 10.377653,10.377653 0 0 1 -20.10436,0.78616 L 92.002861,214.00083 H 57.387127 c 4.520052,27.11694 16.795817,50.4212 37.423294,71.04868 26.564289,26.56429 57.554019,39.40188 95.128129,39.40188 37.57412,0 68.56596,-12.83548 95.12497,-39.39871 a 10.377653,10.377653 0 0 1 0.003,-0.003 c 20.65595,-20.65279 32.92296,-43.98553 37.44333,-71.04868 h -66.40069 a 10.377653,10.377653 0 0 1 -9.93616,-7.38741 z"
     id="path10"
     inkscape:connector-curvature="0"
     style="fill:#2861bf;stroke-width:1.05468237" />
  <g
     id="g24"
     transform="matrix(1.0546824,0,0,1.0546824,-10.502779,-10.498454)">
    <path
       d="m 64.373,212.86 c 4.2857,25.711 15.925,47.807 35.483,67.365 25.187,25.187 54.57,37.359 90.196,37.359 35.626,0 65.011,-12.17 90.193,-37.356 a 9.8396,9.8396 0 0 1 0.003,-0.003 c 19.585,-19.582 31.216,-41.705 35.502,-67.365 h -1.5056 c -5.1835,22.475 -16.366,42.165 -33.997,59.793 a 9.8396,9.8396 0 0 0 -0.003,0.003 c -25.182,25.186 -54.567,37.356 -90.193,37.356 -35.626,0 -65.009,-12.172 -90.196,-37.359 -17.611,-17.611 -28.798,-37.281 -33.981,-59.793 z"
       id="path12"
       inkscape:connector-curvature="0"
       style="opacity:0.3;fill:#151515" />
    <path
       d="m 190.05,50.38 c -40.263,0 -75.645,14.655 -104.11,43.117 -28.462,28.466 -43.117,63.848 -43.117,104.11 0,4.7252 0.18634,9.397 0.58764,13.867 a 9.8397,9.8397 0 0 0 9.7986,8.9586 h 43.982 l 20.504,69.539 a 9.8397,9.8397 0 0 0 19.063,-0.74737 l 28.56,-135.06 21.056,91.258 a 9.8397,9.8397 0 0 0 19.246,-0.33918 l 18.528,-95.494 19.219,63.84 a 9.8397,9.8397 0 0 0 9.422,7.0024 h 74.122 a 9.8397,9.8397 0 0 0 9.8045,-9.0296 c 0.37353,-4.5324 0.56202,-9.1299 0.56202,-13.796 0,-40.263 -14.654,-75.645 -43.121,-104.11 -28.463,-28.463 -63.844,-43.117 -104.11,-43.117 z m 0,19.676 c 35.626,0 65.011,12.172 90.193,37.355 25.186,25.186 37.359,54.571 37.359,90.197 0,1.0697 -0.10597,2.0901 -0.12818,3.1492 h -57.37 l -28.599,-95.003 a 9.8397,9.8397 0 0 0 -19.081,0.9623 l -17.294,89.126 -20.642,-89.465 a 9.8397,9.8397 0 0 0 -19.213,0.17748 l -29.713,140.52 -11.577,-39.26 a 9.8397,9.8397 0 0 0 -9.4378,-7.0556 h -41.916 c -0.02282,-1.0772 -0.13212,-2.0558 -0.13212,-3.1492 0,-35.626 12.172,-65.01 37.355,-90.197 25.187,-25.183 54.571,-37.355 90.197,-37.355 z"
       dominant-baseline="auto"
       style="color:#000000;font-variant-ligatures:normal;font-variant-position:normal;font-variant-caps:normal;font-variant-numeric:normal;font-variant-alternates:normal;font-feature-settings:normal;text-indent:0;text-decoration:none;text-decoration-line:none;text-decoration-style:solid;text-decoration-color:#000000;text-transform:none;text-orientation:mixed;dominant-baseline:auto;white-space:normal;shape-padding:0;opacity:0.3;isolation:auto;mix-blend-mode:normal;solid-color:#000000;color-rendering:auto;image-rendering:auto;shape-rendering:auto"
       id="path14"
       inkscape:connector-curvature="0" />
    <path
       d="m 190.05,62.483 c -35.626,0 -65.009,12.171 -90.196,37.354 -25.183,25.187 -37.356,54.572 -37.356,90.197 0,0.8288 0.05552,1.6003 0.09613,2.39 1.1353,-33.305 13.309,-61.061 37.259,-85.015 25.187,-25.183 54.57,-37.354 90.196,-37.354 35.626,0 65.011,12.172 90.193,37.354 23.967,23.967 36.14,51.741 37.264,85.071 0.0387,-0.81209 0.0947,-1.6157 0.0947,-2.4462 0,-35.626 -12.172,-65.011 -37.359,-90.197 -25.182,-25.182 -54.567,-37.354 -90.193,-37.354 z"
       id="path16"
       inkscape:connector-curvature="0"
       style="opacity:0.3;fill:#070707" />
    <path
       d="m 190.05,42.807 c -40.263,0 -75.644,14.654 -104.11,43.116 -28.462,28.466 -43.118,63.849 -43.118,104.11 0,4.6886 0.18634,9.3235 0.58123,13.762 a 9.8396,9.8396 0 0 0 0.003,0.0651 c 0.0011,0.0134 0.0033,0.0266 0.0044,0.0399 2.9815,34.655 17.429,65.141 42.529,90.24 28.466,28.466 63.847,43.121 104.11,43.121 40.262,0 75.645,-14.655 104.11,-43.121 25.152,-25.148 39.583,-55.678 42.557,-90.279 a 9.8396,9.8396 0 0 0 10e-4,-0.0296 9.8396,9.8396 0 0 0 0,-0.003 c 0.37351,-4.5324 0.562,-9.1299 0.562,-13.796 0,-40.263 -14.654,-75.645 -43.121,-104.11 -28.463,-28.463 -63.844,-43.116 -104.11,-43.116 z m 0,19.676 c 35.626,0 65.011,12.172 90.193,37.354 25.186,25.186 37.359,54.572 37.359,90.197 0,1.0697 -0.10497,2.0896 -0.12719,3.1487 h -57.37 l -28.599,-95.003 a 9.8397,9.8397 0 0 0 -1.2601,-2.6577 9.8396,9.8396 0 0 0 -0.5901,-0.7868 9.8397,9.8397 0 0 0 -0.66406,-0.72469 9.8396,9.8396 0 0 0 -1.5307,-1.232 9.8396,9.8396 0 0 0 -2.6754,-1.2216 9.8397,9.8397 0 0 0 -2.9165,-0.37565 9.8396,9.8396 0 0 0 -0.98203,0.07099 9.8396,9.8396 0 0 0 -1.9152,0.43186 9.8397,9.8397 0 0 0 -1.7925,0.80456 9.8396,9.8396 0 0 0 -0.82821,0.53243 9.8397,9.8397 0 0 0 -0.76906,0.61229 9.8396,9.8396 0 0 0 -0.70399,0.68624 9.8396,9.8396 0 0 0 -2.041,3.3351 9.8397,9.8397 0 0 0 -0.28988,0.93914 9.8396,9.8396 0 0 0 -0.12275,0.54573 9.8397,9.8397 0 0 0 0,0.003 l -17.293,89.125 -20.642,-89.464 a 9.8397,9.8397 0 0 0 0,-0.0015 9.8396,9.8396 0 0 0 -0.26917,-0.94506 9.8397,9.8397 0 0 0 -0.36235,-0.91547 9.8396,9.8396 0 0 0 -0.45256,-0.87258 9.8397,9.8397 0 0 0 -0.53686,-0.82526 9.8396,9.8396 0 0 0 -1.3059,-1.4671 9.8397,9.8397 0 0 0 -3.3454,-2.0217 9.8396,9.8396 0 0 0 -0.001,0 9.8396,9.8396 0 0 0 -1.9064,-0.47327 9.8396,9.8396 0 0 0 -1.9626,-0.08578 9.8396,9.8396 0 0 0 -1.9404,0.30615 9.8396,9.8396 0 0 0 -2.3944,0.99238 9.8397,9.8397 0 0 0 -2.5438,2.0794 9.8396,9.8396 0 0 0 -0.60638,0.77349 9.8397,9.8397 0 0 0 0,0.0015 9.8396,9.8396 0 0 0 -0.5265,0.8297 9.8397,9.8397 0 0 0 0,0.0015 9.8396,9.8396 0 0 0 -0.14642,0.29284 9.8397,9.8397 0 0 0 -0.64335,1.5041 9.8397,9.8397 0 0 0 -0.18783,0.69363 9.8396,9.8396 0 0 0 -0.0695,0.25586 9.8397,9.8397 0 0 0 0,0.0015 9.8396,9.8396 0 0 0 -0.0118,0.05176 9.8397,9.8397 0 0 0 0,0.0015 l -29.714,140.52 -11.577,-39.259 a 9.8397,9.8397 0 0 0 -0.74096,-1.8206 9.8396,9.8396 0 0 0 -0.50284,-0.8445 9.8397,9.8397 0 0 0 -0.5842,-0.79124 9.8396,9.8396 0 0 0 -0.66109,-0.72765 9.8396,9.8396 0 0 0 -2.3693,-1.7422 9.8396,9.8396 0 0 0 -4.5788,-1.1299 h -41.915 c -0.02287,-1.0772 -0.13311,-2.0553 -0.13311,-3.1487 0,-35.626 12.173,-65.011 37.356,-90.197 25.187,-25.183 54.57,-37.354 90.196,-37.354 z m 34.1,79.539 19.218,63.836 a 9.8397,9.8397 0 0 0 2.5157,4.1692 9.8397,9.8397 0 0 0 4.2032,2.4536 9.8396,9.8396 0 0 0 10e-4,0 9.8397,9.8397 0 0 0 0.95689,0.22333 9.8396,9.8396 0 0 0 0.001,0 9.8397,9.8397 0 0 0 0.97315,0.12571 9.8396,9.8396 0 0 0 0.001,0 9.8397,9.8397 0 0 0 0.76906,0.0296 h 62.958 c -4.2864,25.661 -15.917,47.786 -35.502,67.368 a 9.8396,9.8396 0 0 0 -0.003,0 c -25.182,25.186 -54.567,37.359 -90.193,37.359 -35.626,0 -65.009,-12.172 -90.196,-37.359 -19.559,-19.559 -31.198,-41.658 -35.483,-67.368 h 32.821 l 20.504,69.539 a 9.8397,9.8397 0 0 0 2.492,4.1825 9.8397,9.8397 0 0 0 1.5218,1.2408 9.8396,9.8396 0 0 0 0.001,0 9.8397,9.8397 0 0 0 1.7378,0.91399 9.8396,9.8396 0 0 0 0.001,0 9.8397,9.8397 0 0 0 0.93026,0.32241 9.8397,9.8397 0 0 0 0.95394,0.22777 9.8396,9.8396 0 0 0 0.003,0 9.8397,9.8397 0 0 0 1.9552,0.16416 9.8396,9.8396 0 0 0 0.001,0 9.8397,9.8397 0 0 0 1.1447,-0.0932 9.8397,9.8397 0 0 0 1.7555,-0.39489 9.8396,9.8396 0 0 0 0.56496,-0.21592 9.8397,9.8397 0 0 0 1.232,-0.57828 9.8396,9.8396 0 0 0 1.6017,-1.1358 9.8397,9.8397 0 0 0 0.70843,-0.6818 9.8396,9.8396 0 0 0 2.458,-4.7001 l 28.559,-135.05 21.056,91.255 a 9.8397,9.8397 0 0 0 17.631,3.4489 9.8397,9.8397 0 0 0 0.96576,-1.7112 9.8396,9.8396 0 0 0 0.34756,-0.90957 9.8397,9.8397 0 0 0 0.003,-0.009 9.8396,9.8396 0 0 0 0.25438,-0.94062 9.8397,9.8397 0 0 0 0.001,-0.009 9.8396,9.8396 0 0 0 0.0429,-0.21001 z"
       dominant-baseline="auto"
       style="color:#000000;font-variant-ligatures:normal;font-variant-position:normal;font-variant-caps:normal;font-variant-numeric:normal;font-variant-alternates:normal;font-feature-settings:normal;text-indent:0;text-decoration:none;text-decoration-line:none;text-decoration-style:solid;text-decoration-color:#000000;text-transform:none;text-orientation:mixed;dominant-baseline:auto;white-space:normal;shape-padding:0;isolation:auto;mix-blend-mode:normal;solid-color:#000000;fill:#ffffff;color-rendering:auto;image-rendering:auto;shape-rendering:auto"
       id="path18"
       inkscape:connector-curvature="0" />
    <path
       transform="scale(0.75)"
       d="m 33.24,250.77 c -0.43794,17.573 1.393,35.034 5.4316,52.523 2.6819,11.553 6.2373,22.944 10.707,34.287 13.036,32.918 31.645,60.425 55.787,82.4 14.803,13.483 31.625,24.872 50.498,34.264 0.0736,0.0211 0.12065,0.0472 0.16797,0.0684 1.4566,0.73093 2.8661,1.4154 4.0703,1.957 2.3032,1.1043 4.3476,2.0455 6.3984,2.9394 0.51533,0.21033 0.89528,0.39949 1.2949,0.5625 4.4487,1.9299 8.8925,3.6959 13.131,5.2734 1.1043,0.39965 2.1182,0.77463 3.1016,1.127 8.9658,3.1551 17.978,5.7209 26.781,7.6719 3.7178,0.79928 7.4355,1.5306 11.059,2.1406 0.44697,0.0947 0.91586,0.14123 1.2734,0.21484 5.4794,0.86766 10.918,1.5296 16.35,1.9766 32.85,2.5609 65.511,-2.6134 98.287,-15.555 11.464,-4.5171 22.263,-9.7173 32.381,-15.602 16.517,-9.5758 31.274,-20.945 44.283,-34.117 1.9562,-1.9772 3.8587,-4.0024 5.7676,-6.0742 3.9492,-4.3541 7.7627,-8.9186 11.412,-13.693 9.4338,-12.31 17.667,-25.93 24.75,-40.801 1.2252,-2.5924 2.4256,-5.2268 3.6035,-7.9297 0.1156,-0.28396 0.25738,-0.58907 0.37305,-0.87304 0.0736,-0.14196 0.1212,-0.2838 0.18945,-0.42578 1.3199,-3.1025 2.5662,-6.2301 3.8125,-9.4063 5.4846,-14.424 9.4812,-29.016 11.932,-43.793 0.33129,-2.0719 0.657,-4.3081 0.98828,-6.543 0.4207,-3.4601 0.81956,-6.9873 1.1035,-10.637 0.0473,-0.67833 0.11576,-1.4782 0.18945,-2.3301 0.42258,-6.2911 0.5456,-12.607 0.39844,-18.975 -0.0704,2.9984 -0.19795,5.9898 -0.39844,8.9746 -0.0737,0.85188 -0.14212,1.6518 -0.18945,2.3301 -0.28396,3.6494 -0.68282,7.1766 -1.1035,10.637 -0.33128,2.2349 -0.65699,4.4711 -0.98828,6.543 -2.4505,14.776 -6.447,29.369 -11.932,43.793 -1.2463,3.1762 -2.4926,6.3037 -3.8125,9.4063 -0.0682,0.14198 -0.11585,0.28382 -0.18945,0.42578 -0.11567,0.28397 -0.25745,0.58908 -0.37305,0.87304 -1.1779,2.7029 -2.3783,5.3372 -3.6035,7.9297 -7.0832,14.871 -15.316,28.491 -24.75,40.801 -3.6494,4.7748 -7.463,9.3393 -11.412,13.693 -1.9088,2.0719 -3.8114,4.097 -5.7676,6.0742 -13.01,13.173 -27.766,24.541 -44.283,34.117 -10.117,5.8843 -20.917,11.084 -32.381,15.602 -32.776,12.941 -65.437,18.116 -98.287,15.555 -5.4321,-0.44696 -10.87,-1.1089 -16.35,-1.9766 -0.35758,-0.0736 -0.82647,-0.12017 -1.2734,-0.21484 -3.6231,-0.60999 -7.3408,-1.3413 -11.059,-2.1406 -8.8028,-1.9509 -17.815,-4.5168 -26.781,-7.6719 -0.98334,-0.35232 -1.9973,-0.7273 -3.1016,-1.127 -4.2384,-1.5776 -8.6821,-3.3436 -13.131,-5.2734 -0.39965,-0.16301 -0.7796,-0.35217 -1.2949,-0.5625 -2.0508,-0.89397 -4.0952,-1.8352 -6.3984,-2.9394 -1.2042,-0.54162 -2.6137,-1.2261 -4.0703,-1.957 -0.0473,-0.0212 -0.0944,-0.0473 -0.16797,-0.0684 -18.873,-9.3918 -35.695,-20.781 -50.498,-34.264 -24.142,-21.975 -42.751,-49.482 -55.787,-82.4 -4.4697,-11.343 -8.0252,-22.734 -10.707,-34.287 -3.2718,-14.169 -5.0891,-28.318 -5.4316,-42.523 z"
       id="path20"
       inkscape:connector-curvature="0"
       style="opacity:0.3;stroke-width:1.34619999" />
    <path
       transform="scale(0.75)"
       d="m 254.35,33.191 c -26.561,0.23888 -53.182,5.6343 -79.928,16.188 -11.038,4.3751 -21.488,9.366 -31.348,15.014 -19.436,11.153 -36.521,24.778 -51.061,40.801 -16.191,17.758 -29.453,38.549 -39.791,62.381 -9.5285,21.954 -15.46,43.979 -17.811,65.723 -0.21035,2.0929 -0.40008,4.0438 -0.56836,6 -0.58231,7.1795 -0.77573,14.335 -0.60352,21.477 0.09521,-3.8205 0.29268,-7.6441 0.60352,-11.477 0.16828,-1.9562 0.35801,-3.9071 0.56836,-6 2.3506,-21.744 8.2821,-43.768 17.811,-65.723 10.338,-23.832 23.6,-44.623 39.791,-62.381 14.54,-16.023 31.625,-29.647 51.061,-40.801 9.8598,-5.6477 20.31,-10.639 31.348,-15.014 32.918,-12.989 65.646,-18.164 98.307,-15.529 19.861,1.5513 39.698,6.0698 59.512,13.484 4.1174,1.5039 8.1404,3.1277 12.189,4.8945 4.4224,1.9036 8.7292,3.929 12.82,5.9746 7.2726,3.6704 14.071,7.5297 20.592,11.721 10.449,6.6573 20.141,14.046 28.965,22.092 24.284,22.144 42.85,49.583 55.812,82.406 4.4014,11.132 7.8831,22.238 10.449,33.129 1.8826,7.9299 3.2716,15.674 4.2129,23.389 0.11567,0.94128 0.23541,1.8829 0.33008,2.7559 0.32602,3.1499 0.58847,6.2115 0.79883,9.2246 0.17288,2.8485 0.28629,5.6814 0.35156,8.5059 0.14376,-6.1244 0.0262,-12.282 -0.35156,-18.506 -0.21036,-3.0131 -0.47281,-6.0748 -0.79883,-9.2246 -0.0947,-0.87292 -0.21441,-1.8146 -0.33008,-2.7559 -0.94127,-7.7142 -2.3303,-15.459 -4.2129,-23.389 -2.5662,-10.89 -6.0478,-21.997 -10.449,-33.129 -12.962,-32.824 -31.529,-60.263 -55.812,-82.406 -8.8238,-8.0455 -18.516,-15.435 -28.965,-22.092 -6.5206,-4.191 -13.319,-8.0503 -20.592,-11.721 -4.0911,-2.0456 -8.3979,-4.071 -12.82,-5.9746 -4.0491,-1.7669 -8.072,-3.3906 -12.189,-4.8945 -19.814,-7.4145 -39.65,-11.933 -59.512,-13.484 -6.1239,-0.49397 -12.249,-0.71333 -18.379,-0.6582 z"
       id="path22"
       inkscape:connector-curvature="0"
       style="opacity:0.3;fill:#ffffff;stroke-width:1.34619999" />
  </g>
</svg>
