<?xml version="1.0" encoding="UTF-8" standalone="no"?>
<svg
   xmlns:dc="http://purl.org/dc/elements/1.1/"
   xmlns:cc="http://creativecommons.org/ns#"
   xmlns:rdf="http://www.w3.org/1999/02/22-rdf-syntax-ns#"
   xmlns:svg="http://www.w3.org/2000/svg"
   xmlns="http://www.w3.org/2000/svg"
   xmlns:xlink="http://www.w3.org/1999/xlink"
   xmlns:sodipodi="http://sodipodi.sourceforge.net/DTD/sodipodi-0.dtd"
   xmlns:inkscape="http://www.inkscape.org/namespaces/inkscape"
   width="512"
   height="512"
   version="1.1"
   viewBox="0 0 384 384"
   id="svg12"
   sodipodi:docname="audacious.svg"
   inkscape:version="0.92.4 5da689c313, 2019-01-14">
  <metadata
     id="metadata18">
    <rdf:RDF>
      <cc:Work
         rdf:about="">
        <dc:format>image/svg+xml</dc:format>
        <dc:type
           rdf:resource="http://purl.org/dc/dcmitype/StillImage" />
      </cc:Work>
    </rdf:RDF>
  </metadata>
  <defs
     id="defs16">
    <linearGradient
       inkscape:collect="always"
       id="linearGradient832">
      <stop
         style="stop-color:#272a34;stop-opacity:1;"
         offset="0"
         id="stop828" />
      <stop
         style="stop-color:#424656;stop-opacity:1"
         offset="1"
         id="stop830" />
    </linearGradient>
    <linearGradient
       inkscape:collect="always"
       xlink:href="#linearGradient832"
       id="linearGradient834"
       x1="192.61017"
       y1="357.96609"
       x2="192"
       y2="12"
       gradientUnits="userSpaceOnUse"
       gradientTransform="matrix(0.97916667,0,0,0.97916667,4,4)" />
  </defs>
  <sodipodi:namedview
     pagecolor="#ffffff"
     bordercolor="#666666"
     borderopacity="1"
     objecttolerance="10"
     gridtolerance="10"
     guidetolerance="10"
     inkscape:pageopacity="0"
     inkscape:pageshadow="2"
     inkscape:window-width="1366"
     inkscape:window-height="711"
     id="namedview14"
     showgrid="false"
     inkscape:zoom="0.4609375"
     inkscape:cx="27.118644"
     inkscape:cy="256"
     inkscape:window-x="0"
     inkscape:window-y="25"
     inkscape:window-maximized="1"
     inkscape:current-layer="svg12" />
  <path
     d="M 368.25,192 C 368.25,289.33911 289.33911,368.25 192,368.25 94.660889,368.25 15.75,289.33911 15.75,192 15.75,94.660889 94.660889,15.75 192,15.75 c 97.33911,0 176.25,78.910889 176.25,176.25 z m 0,0"
     style="fill:url(#linearGradient834);fill-opacity:1;stroke-width:0.97916669"
     id="path2"
     inkscape:connector-curvature="0" />
  <path
     d="m 199.76831,117.12436 c -2.50912,-0.0957 -5.06795,0.0536 -7.71094,0.17595 -15.68961,0.74202 -43.45434,0.13387 -54.28255,14.04492 -6.62085,8.50268 -3.53801,28.28108 6.60172,30.33504 12.63355,2.55884 33.99162,-3.78662 47.68083,-2.22608 9.54687,1.08626 12.33521,9.44361 4.56307,15.24593 -8.23112,6.14275 -26.91943,4.28003 -36.35539,7.3667 -32.61466,10.66756 -44.33789,33.26872 -36.35156,63.89827 5.20948,19.96965 23.64535,34.79101 43.75269,35.62867 38.6809,-0.0917 31.46721,-21.33512 50.19759,-10.28125 6.16187,7.74536 18.58504,10.23153 25.02231,4.78873 10.35009,-8.74748 25.95939,-13.43294 14.94757,-31.34098 -5.27066,-8.57153 7.01864,-19.69042 4.25327,-62.36068 -2.45175,-37.85091 -24.70484,-63.82177 -62.31861,-65.27139 z m -5.03353,91.49088 c 8.71306,0 15.57869,6.63232 15.57869,14.89404 0,8.26172 -6.86563,15.0853 -15.57869,15.0853 -8.70922,0 -15.90381,-6.82358 -15.90381,-15.0853 0,-8.26172 7.19459,-14.89404 15.90381,-14.89404 z m 0,0"
     id="path4"
     inkscape:connector-curvature="0"
     style="stroke-width:0.97916669" />
  <path
     d="m 199.76831,109.7806 c -2.50912,-0.0957 -5.06795,0.0536 -7.71094,0.17595 -15.68961,0.74202 -43.45434,0.13387 -54.28255,14.04492 -6.62085,8.50268 -3.53801,28.28108 6.60172,30.33504 12.63355,2.55884 33.99162,-3.78662 47.68083,-2.22608 9.54687,1.08626 12.33521,9.44361 4.56307,15.24593 -8.23112,6.14275 -26.91943,4.28003 -36.35539,7.3667 -32.61466,10.66756 -44.33789,33.26872 -36.35156,63.89828 5.20948,19.96964 23.64535,34.79101 43.75269,35.62866 38.6809,-0.0917 31.46721,-21.33512 50.19759,-10.28125 6.16186,7.74536 18.58504,10.23153 25.0223,4.78873 10.35009,-8.74747 25.95939,-13.43294 14.94758,-31.34098 -5.27066,-8.57153 7.01864,-19.69042 4.25326,-62.36068 -2.45174,-37.85091 -24.70483,-63.82177 -62.3186,-65.27139 z m -5.03353,91.49088 c 8.71306,0 15.57869,6.63233 15.57869,14.89405 0,8.26172 -6.86563,15.08529 -15.57869,15.08529 -8.70922,0 -15.90381,-6.82357 -15.90381,-15.08529 0,-8.26172 7.19459,-14.89405 15.90381,-14.89405 z m 0,0"
     style="fill:#ffffff;stroke-width:0.97916669"
     id="path6"
     inkscape:connector-curvature="0" />
  <path
     d="m 15.795898,188.32812 c -0.02497,1.2215 -0.0459,2.4444 -0.0459,3.67188 0,97.33911 78.910892,176.25 176.250002,176.25 97.33911,0 176.25,-78.91089 176.25,-176.25 0,-1.22748 -0.0209,-2.45038 -0.0459,-3.67188 -1.95559,95.64324 -80.09246,172.57813 -176.2041,172.57813 -96.111639,0 -174.248514,-76.93489 -176.204104,-172.57813 z"
     id="path8"
     inkscape:connector-curvature="0"
     style="stroke-width:0.734375" />
  <path
     style="opacity:0.4;fill:#ffffff;stroke-width:0.734375"
     d="M 192,15.75 C 94.6609,15.75 15.75,94.660892 15.75,192 c 0,1.22748 0.02092,2.45038 0.0459,3.67187 C 17.751488,100.02864 95.888371,23.09375 192,23.09375 c 96.11164,0 174.24851,76.93489 176.2041,172.57812 C 368.2291,194.45038 368.25,193.22748 368.25,192 368.25,94.660892 289.33911,15.75 192,15.75 Z"
     id="path10"
     inkscape:connector-curvature="0" />
</svg>
