<?xml version="1.0" encoding="UTF-8" standalone="no"?>
<svg
   xmlns:dc="http://purl.org/dc/elements/1.1/"
   xmlns:cc="http://creativecommons.org/ns#"
   xmlns:rdf="http://www.w3.org/1999/02/22-rdf-syntax-ns#"
   xmlns:svg="http://www.w3.org/2000/svg"
   xmlns="http://www.w3.org/2000/svg"
   xmlns:sodipodi="http://sodipodi.sourceforge.net/DTD/sodipodi-0.dtd"
   xmlns:inkscape="http://www.inkscape.org/namespaces/inkscape"
   width="48"
   height="48"
   version="1.1"
   id="svg22"
   sodipodi:docname="audio-input-microphone.svg"
   inkscape:version="0.92.4 5da689c313, 2019-01-14">
  <metadata
     id="metadata28">
    <rdf:RDF>
      <cc:Work
         rdf:about="">
        <dc:format>image/svg+xml</dc:format>
        <dc:type
           rdf:resource="http://purl.org/dc/dcmitype/StillImage" />
        <dc:title></dc:title>
      </cc:Work>
    </rdf:RDF>
  </metadata>
  <defs
     id="defs26" />
  <sodipodi:namedview
     pagecolor="#ffffff"
     bordercolor="#666666"
     borderopacity="1"
     objecttolerance="10"
     gridtolerance="10"
     guidetolerance="10"
     inkscape:pageopacity="0"
     inkscape:pageshadow="2"
     inkscape:window-width="1366"
     inkscape:window-height="711"
     id="namedview24"
     showgrid="false"
     inkscape:zoom="4.9166667"
     inkscape:cx="2.1355932"
     inkscape:cy="24"
     inkscape:window-x="0"
     inkscape:window-y="25"
     inkscape:window-maximized="1"
     inkscape:current-layer="g18" />
  <g
     transform="translate(0,32)"
     id="g20">
    <g
       transform="matrix(0.07871412,0,0,0.07871412,-13.603644,-21.886191)"
       id="g18">
      <path
         style="fill:#5a5a5a;fill-opacity:1;stroke-width:1.25"
         d="M 381.40531,136.89687 254.86214,325.21162 c -16.55435,18.46319 -18.25219,32.4171 -11.97459,53.60124 9.17741,30.50398 27.31404,45.30577 54.8258,49.76824 27.24771,5.57985 37.29861,-1.14694 57.33609,-18.63111 l 175.99909,-153.57209 3.89802,2.78732 z"
         id="path6"
         inkscape:connector-curvature="0" />
      <circle
         style="opacity:0.2;stroke-width:1.25"
         cx="541.24518"
         cy="112.89176"
         r="174.6825"
         id="circle8" />
      <circle
         style="fill:#bfbfbf;stroke-width:1.25"
         cx="541.24518"
         cy="97.011765"
         r="174.6825"
         id="circle10" />
      <path
         style="opacity:0.4;stroke-width:1.25"
         d="m 391.23692,6.8555049 -8.5538,17.2867421 c 8.62319,64.656536 29.86455,110.170893 73.9795,149.891783 41.92699,37.75083 100.30935,62.34473 176.06642,71.99682 l 19.98175,-14.30988 C 573.48799,223.46118 508.4514,199.05161 467.42327,162.1101 426.39516,125.16857 399.47214,68.603256 391.23692,6.8555049 Z"
         id="path12"
         inkscape:connector-curvature="0" />
      <path
         style="opacity:0.2;fill:#ffffff;stroke-width:15.88025093"
         d="M 541.24525,-77.671058 A 174.68277,174.68277 0 0 0 366.5625,97.011699 a 174.68277,174.68277 0 0 0 0.34117,9.304851 174.68277,174.68277 0 0 1 174.34158,-168.107357 174.68277,174.68277 0 0 1 174.3416,165.377917 174.68277,174.68277 0 0 0 0.34117,-6.575411 174.68277,174.68277 0 0 0 -174.68277,-174.682757 z"
         id="path16"
         inkscape:connector-curvature="0" />
    </g>
  </g>
</svg>
