<?xml version="1.0" encoding="UTF-8" standalone="no"?>
<svg
   xmlns:dc="http://purl.org/dc/elements/1.1/"
   xmlns:cc="http://creativecommons.org/ns#"
   xmlns:rdf="http://www.w3.org/1999/02/22-rdf-syntax-ns#"
   xmlns:svg="http://www.w3.org/2000/svg"
   xmlns="http://www.w3.org/2000/svg"
   xmlns:xlink="http://www.w3.org/1999/xlink"
   xmlns:sodipodi="http://sodipodi.sourceforge.net/DTD/sodipodi-0.dtd"
   xmlns:inkscape="http://www.inkscape.org/namespaces/inkscape"
   id="Capa_1"
   data-name="Capa 1"
   viewBox="0 0 512 512"
   version="1.1"
   sodipodi:docname="com.github.calo001.fondo.svg"
   width="512"
   height="512"
   inkscape:version="0.92.4 5da689c313, 2019-01-14">
  <metadata
     id="metadata66">
    <rdf:RDF>
      <cc:Work
         rdf:about="">
        <dc:format>image/svg+xml</dc:format>
        <dc:type
           rdf:resource="http://purl.org/dc/dcmitype/StillImage" />
        <dc:title>com.github.calo001.fondo48</dc:title>
      </cc:Work>
    </rdf:RDF>
  </metadata>
  <sodipodi:namedview
     pagecolor="#ffffff"
     bordercolor="#666666"
     borderopacity="1"
     objecttolerance="10"
     gridtolerance="10"
     guidetolerance="10"
     inkscape:pageopacity="0"
     inkscape:pageshadow="2"
     inkscape:window-width="1366"
     inkscape:window-height="711"
     id="namedview64"
     showgrid="false"
     inkscape:zoom="0.42188142"
     inkscape:cx="313.60803"
     inkscape:cy="227.77647"
     inkscape:window-x="0"
     inkscape:window-y="25"
     inkscape:window-maximized="1"
     inkscape:current-layer="Capa_1" />
  <defs
     id="defs32">
    <linearGradient
       inkscape:collect="always"
       id="linearGradient866">
      <stop
         style="stop-color:#ffffff;stop-opacity:1;"
         offset="0"
         id="stop862" />
      <stop
         style="stop-color:#ffffff;stop-opacity:0;"
         offset="1"
         id="stop864" />
    </linearGradient>
    <linearGradient
       inkscape:collect="always"
       id="linearGradient883">
      <stop
         style="stop-color:#ffffff;stop-opacity:1;"
         offset="0"
         id="stop879" />
      <stop
         style="stop-color:#ffffff;stop-opacity:0;"
         offset="1"
         id="stop881" />
    </linearGradient>
    <radialGradient
       id="Degradado_sin_nombre_21"
       cx="425.5"
       cy="-907.90997"
       r="26.559999"
       gradientTransform="matrix(0.69,0,0,-0.22,-267.7,-153.98)"
       gradientUnits="userSpaceOnUse">
      <stop
         offset="0"
         stop-color="#686868"
         stop-opacity="0.5"
         id="stop2" />
      <stop
         offset="1"
         stop-color="#686868"
         stop-opacity="0"
         id="stop4" />
    </radialGradient>
    <linearGradient
       id="Degradado_sin_nombre_100"
       x1="24"
       y1="45.049999"
       x2="24"
       y2="1.05"
       gradientUnits="userSpaceOnUse">
      <stop
         offset="0"
         stop-color="#0e141f"
         id="stop7" />
      <stop
         offset="1"
         stop-color="#273445"
         id="stop9"
         style="stop-color:#3d516b;stop-opacity:1" />
    </linearGradient>
    <linearGradient
       id="Degradado_sin_nombre_3"
       x1="-574.4519"
       y1="360.33655"
       x2="-574.59918"
       y2="357.86453"
       gradientTransform="matrix(4.16,0,0,-4.16,2413.72,1500.05)"
       gradientUnits="userSpaceOnUse">
      <stop
         offset="0"
         stop-color="#fff"
         id="stop12" />
      <stop
         offset="1"
         stop-color="#fff"
         stop-opacity="0.39"
         id="stop18" />
    </linearGradient>
    <radialGradient
       id="Degradado_sin_nombre_80"
       cx="40.290001"
       cy="19.15"
       r="12.69"
       gradientTransform="matrix(9.261797,0,0,9.3794641,-115.98091,69.175236)"
       gradientUnits="userSpaceOnUse">
      <stop
         offset="0.51"
         stop-color="#fafafa"
         id="stop21" />
      <stop
         offset="1"
         stop-color="#d4d4d4"
         id="stop23" />
    </radialGradient>
    <linearGradient
       id="Degradado_sin_nombre_56"
       x1="26.24"
       y1="25.24"
       x2="21.76"
       y2="20.76"
       gradientUnits="userSpaceOnUse">
      <stop
         offset="0"
         stop-color="#3689e6"
         id="stop26" />
      <stop
         offset="1"
         stop-color="#68b723"
         id="stop28" />
    </linearGradient>
    <linearGradient
       id="Degradado_sin_nombre_56-2"
       x1="25.940001"
       y1="24.940001"
       x2="22.059999"
       y2="21.059999"
       xlink:href="#Degradado_sin_nombre_56"
       gradientTransform="matrix(10.067171,0,0,10.19507,14.387896,21.513351)" />
    <linearGradient
       inkscape:collect="always"
       xlink:href="#Degradado_sin_nombre_56"
       id="linearGradient873"
       gradientUnits="userSpaceOnUse"
       x1="26.24"
       y1="25.24"
       x2="21.76"
       y2="20.76"
       gradientTransform="matrix(10.067171,0,0,10.19507,14.387896,21.513351)" />
    <linearGradient
       inkscape:collect="always"
       xlink:href="#linearGradient883"
       id="linearGradient885"
       x1="253.29277"
       y1="35.55891"
       x2="256.9295"
       y2="136.29813"
       gradientUnits="userSpaceOnUse" />
    <linearGradient
       inkscape:collect="always"
       xlink:href="#linearGradient866"
       id="linearGradient868"
       x1="255.65112"
       y1="38.109673"
       x2="255.78246"
       y2="120.13589"
       gradientUnits="userSpaceOnUse" />
  </defs>
  <title
     id="title34">com.github.calo001.fondo48</title>
  <circle
     style="opacity:0.4;fill:none;fill-opacity:1;fill-rule:evenodd;stroke:#000000;stroke-width:10.31112862;stroke-linejoin:round;stroke-miterlimit:4;stroke-dasharray:none;stroke-opacity:1;paint-order:fill markers stroke"
     id="path937"
     cx="256"
     cy="266"
     r="229.84444" />
  <g
     id="g4178"
     transform="matrix(10.681818,0,0,10.681818,-0.363632,9.7840951)">
    <path
       id="path4176"
       d="m 24,1.05 a 22,22 0 1 1 -22,22 22,22 0 0 1 22,-22 z"
       style="fill:url(#Degradado_sin_nombre_100)"
       inkscape:connector-curvature="0" />
    <path
       id="path2555-7-65-3"
       d="m 24,1.05 a 22,22 0 1 1 -22,22 22,22 0 0 1 22,-22 z"
       style="opacity:0.5;isolation:isolate;fill:none;stroke:none"
       inkscape:connector-curvature="0" />
    <path
       id="path3019"
       d="M 45.58,23.05 A 21.58,21.58 0 1 1 24,1.47 21.58,21.58 0 0 1 45.58,23.05 Z"
       style="opacity:0.3;isolation:isolate;fill:none;stroke:none;stroke-linecap:round;stroke-linejoin:round"
       inkscape:connector-curvature="0" />
  </g>
  <path
     d="M 322.74534,137.4313 H 189.25465 a 50.335855,50.975349 0 0 0 -50.33586,50.97532 v 135.18666 a 50.335855,50.975349 0 0 0 50.33586,50.97532 h 133.49069 a 50.335855,50.975349 0 0 0 50.33585,-50.97532 V 188.40662 A 50.335855,50.975349 0 0 0 322.74534,137.4313 Z m -67.6514,182.4917 a 63.221834,64.025038 0 1 1 63.22184,-63.92305 63.221834,64.025038 0 0 1 -63.22184,63.92305 z"
     style="fill:#fafafa;fill-opacity:1;stroke-width:10.1309185"
     id="path43"
     inkscape:connector-curvature="0" />
  <g
     style="opacity:0.6"
     id="g47"
     transform="matrix(10.067171,0,0,10.19507,14.387896,21.51339)">
    <path
       d="M 30.63,11.37 H 17.37 a 5,5 0 0 0 -5,5 v 13.26 a 5,5 0 0 0 5,5 h 13.26 a 5,5 0 0 0 5,-5 V 16.37 a 5,5 0 0 0 -5,-5 z m -6.72,17.9 A 6.28,6.28 0 1 1 30.19,23 6.28,6.28 0 0 1 23.91,29.27 Z"
       style="fill:none;stroke:#000000;stroke-miterlimit:10"
       id="path45"
       inkscape:connector-curvature="0" />
  </g>
  <ellipse
     cx="256"
     cy="255.99994"
     style="fill:url(#linearGradient873);stroke-width:10.1309185"
     id="circle55"
     rx="31.912931"
     ry="32.318371" />
  <ellipse
     cx="256"
     cy="255.99994"
     style="opacity:0.4;fill:none;stroke:#000000;stroke-width:10.1309185;stroke-miterlimit:10"
     id="circle57"
     rx="31.912931"
     ry="32.318371" />
  <path
     d="M 320.53057,141.3054 H 191.46943 a 48.926451,49.548039 0 0 0 -48.72511,49.34421 v 130.70078 a 48.926451,49.548039 0 0 0 48.72511,49.34411 h 129.06114 a 48.926451,49.548039 0 0 0 48.7251,-49.34411 V 190.64961 a 48.926451,49.548039 0 0 0 -48.7251,-49.34421 z m -65.43663,181.77817 a 66.443328,67.287461 0 1 1 66.34267,-67.08362 66.342657,67.185509 0 0 1 -66.34267,67.08362 z"
     style="fill:none;stroke:#ffffff;stroke-width:10.1309185;stroke-miterlimit:10;stroke-opacity:0.6"
     id="path59"
     inkscape:connector-curvature="0" />
  <ellipse
     cx="256"
     cy="255.99994"
     style="fill:url(#Degradado_sin_nombre_56-2);stroke:#ffffff;stroke-width:10.1309185;stroke-miterlimit:10;stroke-opacity:0.1"
     id="circle61"
     rx="27.684721"
     ry="28.036442" />
  <ellipse
     style="opacity:0.4;fill:none;fill-opacity:1;fill-rule:evenodd;stroke:url(#linearGradient885);stroke-width:10.30821514;stroke-linejoin:round;stroke-miterlimit:4;stroke-dasharray:none;stroke-opacity:0.38823529;paint-order:fill markers stroke"
     id="path877"
     cx="256"
     cy="256"
     r="229.84589" />
  <circle
     style="opacity:0.4;fill:none;fill-opacity:1;fill-rule:evenodd;stroke:#000000;stroke-width:10.30821514;stroke-linejoin:round;stroke-miterlimit:4;stroke-dasharray:none;stroke-opacity:1;paint-order:fill markers stroke"
     id="path877-0"
     cx="256"
     cy="256"
     r="0" />
  <circle
     style="opacity:0.4;fill:none;fill-opacity:1;fill-rule:evenodd;stroke:url(#linearGradient868);stroke-width:10.31112862;stroke-linejoin:round;stroke-miterlimit:4;stroke-dasharray:none;stroke-opacity:1;paint-order:fill markers stroke"
     id="path937-5"
     cx="256"
     cy="256"
     r="229.84444" />
</svg>
