<?xml version="1.0" encoding="UTF-8" standalone="no"?>
<svg
   xmlns:dc="http://purl.org/dc/elements/1.1/"
   xmlns:cc="http://creativecommons.org/ns#"
   xmlns:rdf="http://www.w3.org/1999/02/22-rdf-syntax-ns#"
   xmlns:svg="http://www.w3.org/2000/svg"
   xmlns="http://www.w3.org/2000/svg"
   xmlns:xlink="http://www.w3.org/1999/xlink"
   xmlns:sodipodi="http://sodipodi.sourceforge.net/DTD/sodipodi-0.dtd"
   xmlns:inkscape="http://www.inkscape.org/namespaces/inkscape"
   width="48"
   height="48"
   version="1"
   id="svg18"
   sodipodi:docname="com.github.cassidyjames.ephemeral.svg"
   inkscape:version="0.92.4 5da689c313, 2019-01-14">
  <metadata
     id="metadata24">
    <rdf:RDF>
      <cc:Work
         rdf:about="">
        <dc:format>image/svg+xml</dc:format>
        <dc:type
           rdf:resource="http://purl.org/dc/dcmitype/StillImage" />
      </cc:Work>
    </rdf:RDF>
  </metadata>
  <defs
     id="defs22">
    <linearGradient
       inkscape:collect="always"
       id="linearGradient838">
      <stop
         style="stop-color:#056fff;stop-opacity:1"
         offset="0"
         id="stop834" />
      <stop
         style="stop-color:#8300c1;stop-opacity:1"
         offset="1"
         id="stop836" />
    </linearGradient>
    <linearGradient
       inkscape:collect="always"
       xlink:href="#linearGradient838"
       id="linearGradient840"
       x1="-37.081692"
       y1="-36.657967"
       x2="-8.2681351"
       y2="-10.081695"
       gradientUnits="userSpaceOnUse"
       gradientTransform="translate(45.959999,47.959999)" />
  </defs>
  <sodipodi:namedview
     pagecolor="#ffffff"
     bordercolor="#666666"
     borderopacity="1"
     objecttolerance="10"
     gridtolerance="10"
     guidetolerance="10"
     inkscape:pageopacity="0"
     inkscape:pageshadow="2"
     inkscape:window-width="1366"
     inkscape:window-height="711"
     id="namedview20"
     showgrid="false"
     inkscape:zoom="4.9166667"
     inkscape:cx="38.847458"
     inkscape:cy="7.7288136"
     inkscape:window-x="0"
     inkscape:window-y="25"
     inkscape:window-maximized="1"
     inkscape:current-layer="svg18" />
  <g
     transform="translate(1.125e-7 1)"
     id="g14">
    <rect
       width="40"
       height="40"
       x="2.9799995"
       y="3.9799995"
       rx="20"
       ry="20"
       transform="matrix(0,1,1,0,0,0)"
       id="rect2"
       style="fill:url(#linearGradient840);fill-opacity:1" />
    <path
       fill="#fff"
       opacity=".2"
       d="m24 3.0182c-11.07 0-19.982 8.9119-19.982 19.982 0 0.16757-0.004 0.33299 0 0.49955 0.2644-10.837 9.08-19.483 19.982-19.483s19.718 8.6458 19.982 19.482c0.004-0.16656 0-0.33198 0-0.49955 0-11.069-8.912-19.981-19.982-19.981z"
       id="path6"
       style="opacity:0.4" />
    <path
       fill="#f2f2f2"
       d="m9.8707 37.129 12.363-15.895 1.673 1.673 1.8593 1.8593z"
       id="path8" />
    <path
       fill="#f34235"
       d="m38.129 8.8707-15.895 12.363 3.532 3.532z"
       id="path10" />
  </g>
  <path
     opacity=".2"
     d="m4.0312 24.526c-0.0039 0.164-0.0136 0.327-0.0136 0.492 0 11.07 8.9124 19.982 19.982 19.982s19.982-8.912 19.982-19.982c0-0.165-0.009-0.328-0.013-0.492-0.26 10.841-9.064 19.492-19.969 19.492s-19.709-8.651-19.969-19.492z"
     id="path16"
     style="opacity:0.3" />
</svg>
