<?xml version="1.0" encoding="UTF-8" standalone="no"?>
<svg
   xmlns:dc="http://purl.org/dc/elements/1.1/"
   xmlns:cc="http://creativecommons.org/ns#"
   xmlns:rdf="http://www.w3.org/1999/02/22-rdf-syntax-ns#"
   xmlns:svg="http://www.w3.org/2000/svg"
   xmlns="http://www.w3.org/2000/svg"
   xmlns:xlink="http://www.w3.org/1999/xlink"
   xmlns:sodipodi="http://sodipodi.sourceforge.net/DTD/sodipodi-0.dtd"
   xmlns:inkscape="http://www.inkscape.org/namespaces/inkscape"
   width="512"
   height="512"
   version="1.1"
   viewBox="0 0 384 384"
   id="svg18"
   sodipodi:docname="distributor-logo-linuxmint.svg"
   inkscape:version="0.92.4 5da689c313, 2019-01-14">
  <metadata
     id="metadata24">
    <rdf:RDF>
      <cc:Work
         rdf:about="">
        <dc:format>image/svg+xml</dc:format>
        <dc:type
           rdf:resource="http://purl.org/dc/dcmitype/StillImage" />
      </cc:Work>
    </rdf:RDF>
  </metadata>
  <defs
     id="defs22">
    <linearGradient
       inkscape:collect="always"
       id="linearGradient859">
      <stop
         style="stop-color:#009900;stop-opacity:1"
         offset="0"
         id="stop855" />
      <stop
         style="stop-color:#66cc33;stop-opacity:1"
         offset="1"
         id="stop857" />
    </linearGradient>
    <linearGradient
       inkscape:collect="always"
       xlink:href="#linearGradient859"
       id="linearGradient861"
       x1="45.095547"
       y1="321.11362"
       x2="338.49622"
       y2="66.842819"
       gradientUnits="userSpaceOnUse" />
  </defs>
  <sodipodi:namedview
     pagecolor="#ffffff"
     bordercolor="#666666"
     borderopacity="1"
     objecttolerance="10"
     gridtolerance="10"
     guidetolerance="10"
     inkscape:pageopacity="0"
     inkscape:pageshadow="2"
     inkscape:window-width="1366"
     inkscape:window-height="710"
     id="namedview20"
     showgrid="false"
     inkscape:zoom="0.921875"
     inkscape:cx="271.82959"
     inkscape:cy="193.78722"
     inkscape:window-x="0"
     inkscape:window-y="25"
     inkscape:window-maximized="1"
     inkscape:current-layer="svg18" />
  <path
     d="m15.75 33.984v101.02h41.496v99.641c0 65.496 56.887 115.38 122.44 115.38h188.56v-199.96c0-65.559-56.82-115.16-122.44-115.16l-54.949-0.22266z"
     id="path2"
     style="fill:#ffffff;fill-opacity:1"
     fill="#07703f" />
  <g
     id="g10"
     fill-rule="evenodd">
    <path
       d="m43.945 63.332v47.648h16.641c11.289 0 24.852 10.422 24.852 25.992l0.23438 100.33c0 48.871 42.711 88.473 95.531 88.473h130.43c16.719 0 31.465-10.637 31.465-26.91v-146.15c0-48.875-42.883-88.469-95.766-88.469h-54.949v-0.23047zm67.262 29.863h27.359v139.77c0 18.719 12.625 33.293 27.59 33.293l30.785 0.22265v28.504h-35.805c-12.672-1.3555-23.91-7.3828-33.289-16.641-10.977-10.934-16.641-24.488-16.641-39.902zm102.83 23.941c12.152 0 22.664 4.5 31.242 12.766 8.6016-8.2773 19.305-12.766 31.465-12.766 12.387 0 23.301 4.5234 32.145 13.457 8.8398 8.9258 13.457 20.023 13.457 32.602l0.22265 63.164h-28.961v-63.164c0-4.8203-1.5664-8.6016-5.0078-12.078-3.4531-3.4883-7.1055-5.0195-11.855-5.0195-4.8476 0-8.625 1.5234-12.086 5.0195-3.4453 3.4766-5.0195 7.2578-5.0195 12.078v63.617h-28.727v-63.617c0-4.8203-1.5781-8.6016-5.0195-12.078-3.4609-3.4961-7.0078-5.0195-11.855-5.0195-4.75 0-8.4023 1.5312-11.855 5.0195-3.4414 3.4766-5.0195 7.2578-5.0195 12.078v63.617h-28.961v-63.617c0-12.578 4.6172-23.676 13.457-32.602 8.8438-8.9336 19.992-13.457 32.379-13.457zm108.53 125.41c-0.3125 3.0664-0.82031 5.9922-1.5898 8.8945 0.73437-2.8438 1.2812-5.8906 1.5898-8.8945zm-31.566 6.1719c-0.83594 1.7656-1.8672 3.4492-3.0938 5.0039 1.2226-1.5586 2.2578-3.2422 3.0938-5.0039z"
       id="path4"
       fill="#0aa15c"
       style="fill:url(#linearGradient861);fill-opacity:1" />
    <path
       d="m197 266.46v28.484h67.742c15.914 0 29.812-5.9375 41.09-17.418h0.0976c9.5898-9.8555 15.188-21.641 16.551-34.93v-16.168h-28.773v11.066c0 15.848-15.059 29.156-34.449 29.156z"
       id="path8"
       style="fill:#ffffff;fill-opacity:0.40000001"
       fill-opacity=".4"
       fill="#ccc" />
  </g>
  <path
     transform="scale(.75)"
     d="m21 170v10h55.328v-10h-55.328zm55.328 132.85v10c0 87.328 75.85 153.83 163.26 153.83h251.42v-10h-251.42c-87.406 0-163.26-66.506-163.26-153.83z"
     opacity=".3"
     stroke-width="1.3333"
     id="path12" />
</svg>
