<?xml version="1.0" encoding="UTF-8" standalone="no"?>
<svg
   xmlns:dc="http://purl.org/dc/elements/1.1/"
   xmlns:cc="http://creativecommons.org/ns#"
   xmlns:rdf="http://www.w3.org/1999/02/22-rdf-syntax-ns#"
   xmlns:svg="http://www.w3.org/2000/svg"
   xmlns="http://www.w3.org/2000/svg"
   xmlns:sodipodi="http://sodipodi.sourceforge.net/DTD/sodipodi-0.dtd"
   xmlns:inkscape="http://www.inkscape.org/namespaces/inkscape"
   width="512"
   height="512"
   version="1.1"
   viewBox="0 0 384 384"
   id="svg10"
   sodipodi:docname="dribble.svg"
   inkscape:version="0.92.4 5da689c313, 2019-01-14">
  <metadata
     id="metadata16">
    <rdf:RDF>
      <cc:Work
         rdf:about="">
        <dc:format>image/svg+xml</dc:format>
        <dc:type
           rdf:resource="http://purl.org/dc/dcmitype/StillImage" />
      </cc:Work>
    </rdf:RDF>
  </metadata>
  <defs
     id="defs14" />
  <sodipodi:namedview
     pagecolor="#ffffff"
     bordercolor="#666666"
     borderopacity="1"
     objecttolerance="10"
     gridtolerance="10"
     guidetolerance="10"
     inkscape:pageopacity="0"
     inkscape:pageshadow="2"
     inkscape:window-width="1366"
     inkscape:window-height="710"
     id="namedview12"
     showgrid="false"
     inkscape:zoom="0.4609375"
     inkscape:cx="534.31992"
     inkscape:cy="103.65572"
     inkscape:window-x="0"
     inkscape:window-y="25"
     inkscape:window-maximized="1"
     inkscape:current-layer="svg10" />
  <path
     d="m359.59 192.04c-0.01193 92.551-75.043 167.57-167.59 167.57-92.551 0-167.58-75.016-167.59-167.57-0.015919-92.566 75.023-167.62 167.59-167.62 92.566 0 167.61 75.051 167.59 167.62z"
     fill="#b8174a"
     stroke-width=".96175"
     id="path2"
     style="fill:#ea4c89;fill-opacity:1" />
  <path
     d="m192 335.49c-79.236 0-143.66-64.309-143.66-143.43 0-79.236 64.421-143.54 143.66-143.54s143.66 64.309 143.66 143.43c0 79.123-64.421 143.54-143.66 143.54zm121.1-123.9c-4.1526-1.3468-37.934-11.335-76.43-5.2749 16.049 43.995 22.559 79.909 23.793 87.316 27.609-18.518 47.25-47.923 52.637-82.042zm-73.175 93.377c-1.7957-10.774-8.9786-48.26-26.15-92.928-0.22447 0.11222-0.56118 0.22446-0.78563 0.22446-69.247 24.13-94.05 72.053-96.295 76.542 20.763 16.161 46.913 25.813 75.308 25.813 16.947 0.11222 33.221-3.3669 47.923-9.6519zm-139.06-30.864c2.8058-4.7137 36.475-60.381 99.774-80.919 1.5713-0.56115 3.2547-1.0101 4.826-1.459-3.0303-6.9584-6.3972-13.917-9.9886-20.763-61.279 18.294-120.76 17.508-126.15 17.396 0 1.2346-0.11223 2.4691-0.11223 3.7037 0.11223 31.537 12.009 60.269 31.649 82.041zm-28.956-107.07c5.4994 0.11225 56.004 0.3367 113.47-14.927-20.314-36.139-42.311-66.441-45.454-70.818-34.455 16.161-60.044 47.811-68.013 85.745zm91.357-94.05c3.367 4.4893 25.701 34.792 45.791 71.716 43.658-16.386 62.064-41.077 64.309-44.219-21.661-19.192-50.168-30.864-81.368-30.864-9.8764 0-19.528 1.2345-28.731 3.3669zm123.68 41.638c-2.5813 3.4792-23.12 29.854-68.461 48.372 2.8058 5.836 5.6116 11.784 8.1929 17.733 0.89785 2.1324 1.7957 4.2648 2.6936 6.285 40.852-5.1627 81.368 3.1425 85.408 3.9281-0.33669-28.844-10.662-55.443-27.834-76.318z"
     fill="#fff"
     id="path4"
     style="fill:#000000;fill-opacity:0.23529412" />
  <path
     transform="scale(.75)"
     d="m32.611 250.99c-0.037216 1.685-0.064744 3.3724-0.064453 5.0664 0.01592 123.4 100.05 223.42 223.45 223.42 123.4 0 223.44-100.02 223.45-223.42 3e-4 -1.694-0.02723-3.3814-0.06445-5.0664-2.6402 121.12-101.64 218.49-223.39 218.49-121.75 0-220.75-97.367-223.39-218.49z"
     opacity=".3"
     stroke-width="1.2823"
     id="path6" />
  <path
     transform="scale(.75)"
     d="m256 32.566c-123.42 0-223.47 100.07-223.45 223.49 2.13e-4 1.6493 0.028688 3.2928 0.064453 4.9336 2.6743-121.08 101.66-218.42 223.39-218.42 121.73 0 220.71 97.342 223.39 218.42 0.03577-1.6408 0.06424-3.2842 0.06445-4.9336 0.02122-123.42-100.03-223.49-223.45-223.49z"
     fill="#fff"
     opacity=".3"
     stroke-width="1.2823"
     id="path8" />
</svg>
