<?xml version="1.0" encoding="UTF-8" standalone="no"?>
<svg
   xmlns:dc="http://purl.org/dc/elements/1.1/"
   xmlns:cc="http://creativecommons.org/ns#"
   xmlns:rdf="http://www.w3.org/1999/02/22-rdf-syntax-ns#"
   xmlns:svg="http://www.w3.org/2000/svg"
   xmlns="http://www.w3.org/2000/svg"
   xmlns:sodipodi="http://sodipodi.sourceforge.net/DTD/sodipodi-0.dtd"
   xmlns:inkscape="http://www.inkscape.org/namespaces/inkscape"
   height="512"
   width="512"
   version="1.1"
   id="svg44"
   sodipodi:docname="gnome-maps.svg"
   inkscape:version="0.92.4 5da689c313, 2019-01-14">
  <metadata
     id="metadata50">
    <rdf:RDF>
      <cc:Work
         rdf:about="">
        <dc:format>image/svg+xml</dc:format>
        <dc:type
           rdf:resource="http://purl.org/dc/dcmitype/StillImage" />
        <dc:title></dc:title>
      </cc:Work>
    </rdf:RDF>
  </metadata>
  <defs
     id="defs48">
    <linearGradient
       gradientTransform="translate(-47.795205,-97.511371)"
       id="b-9"
       gradientUnits="userSpaceOnUse"
       x1="186.87228"
       x2="191.30048"
       y1="-42.343037"
       y2="-645.02301">
      <stop
         offset="0"
         stop-color="#2a2c2f"
         id="stop15-0"
         style="stop-color:#e30f0f;stop-opacity:1" />
      <stop
         offset="1"
         stop-color="#41474e"
         id="stop17-8"
         style="stop-color:#ff2a2a;stop-opacity:1" />
    </linearGradient>
    <filter
       inkscape:collect="always"
       style="color-interpolation-filters:sRGB"
       id="filter920"
       x="-0.11677093"
       width="1.2335419"
       y="-0.081955643"
       height="1.1639113">
      <feGaussianBlur
         inkscape:collect="always"
         stdDeviation="20.645048"
         id="feGaussianBlur922" />
    </filter>
  </defs>
  <sodipodi:namedview
     pagecolor="#ffffff"
     bordercolor="#666666"
     borderopacity="1"
     objecttolerance="10"
     gridtolerance="10"
     guidetolerance="10"
     inkscape:pageopacity="0"
     inkscape:pageshadow="2"
     inkscape:window-width="1366"
     inkscape:window-height="713"
     id="namedview46"
     showgrid="false"
     inkscape:zoom="1.2291667"
     inkscape:cx="83.046511"
     inkscape:cy="390.80101"
     inkscape:window-x="0"
     inkscape:window-y="25"
     inkscape:window-maximized="1"
     inkscape:current-layer="g38" />
  <linearGradient
     gradientUnits="userSpaceOnUse"
     x1="0"
     x2="47"
     y1="23.5"
     y2="23.5"
     id="linearGradient8">
    <stop
       offset="0"
       stop-color="#a9a3d4"
       id="stop2" />
    <stop
       offset=".47001833"
       stop-color="#87baff"
       id="stop4" />
    <stop
       offset="1"
       stop-color="#89ec85"
       id="stop6" />
  </linearGradient>
  <linearGradient
     id="a"
     gradientUnits="userSpaceOnUse"
     x1="219.99991"
     x2="234.28575"
     y1="961.89673"
     y2="139.03957">
    <stop
       offset="0"
       stop-color="#28b162"
       id="stop10" />
    <stop
       offset="1"
       stop-color="#35e981"
       id="stop12" />
  </linearGradient>
  <linearGradient
     id="b"
     gradientUnits="userSpaceOnUse"
     x1="186.87228"
     x2="191.30048"
     y1="-42.343037"
     y2="-645.02301">
    <stop
       offset="0"
       stop-color="#2a2c2f"
       id="stop15"
       style="stop-color:#e30f0f;stop-opacity:1" />
    <stop
       offset="1"
       stop-color="#41474e"
       id="stop17"
       style="stop-color:#ff2a2a;stop-opacity:1" />
  </linearGradient>
  <g
     transform="matrix(0.33275011,0,0,0.34477276,204.21832,323.2238)"
     id="g42"
     style="stroke-width:1.31742203">
    <g
       transform="matrix(1.5026287,0,0,1.5026287,-134.17522,-1024.1756)"
       id="g38"
       style="fill-rule:evenodd">
      <path
         d="m -277.14286,975.21935 -1.4e-4,-770 c 0,0 -0.28078,-27.07338 33.64111,-35.46379 L 41.514,98.219347 375.971,166.64793 618.10409,104.48283 c 44.53427,-13.715366 44.75291,27.87938 44.75291,27.87938 l 1.4e-4,768.57143 c 0,0 0.192,27.09439 -24.53904,33.33836 L 374.28571,1000.9337 40.000001,935.21935 -238.69925,1000.7513 c -38.55798,10.6629 -38.44361,-25.53195 -38.44361,-25.53195 z"
         id="path20"
         inkscape:connector-curvature="0"
         style="fill:url(#a)" />
      <path
         d="M 39.017,98.687205 V 741.70294 L 374.494,656.67427 V 166.1082 Z"
         id="path22"
         inkscape:connector-curvature="0"
         style="fill:#2dca6f" />
      <path
         d="M 36.810263,935.4355 39.017,723.23518 375.094,647.6532 l -0.2065,352.9069 z"
         id="path24"
         inkscape:connector-curvature="0"
         style="fill:#3c9bd8" />
      <path
         d="M 662.857,522.1585 374.048,648.3657 v 352.2903 l 251.50823,-61.92815 c 0,0 37.30077,-0.8737 37.30077,-39.9852 z"
         id="path26"
         inkscape:connector-curvature="0"
         style="fill:#43adf1" />
      <path
         d="M -277.143,861.29057 40,724.14772 37.142857,935.57629 -238.86308,1003.3232 c 0,0 -38.27992,13.1263 -38.27992,-25.98514 z"
         id="path28"
         inkscape:connector-curvature="0"
         style="fill:#43adf1" />
      <path
         d="M -277.143,863.80039 40,725.80697 V 616.46085 l -317.143,135.74493 z"
         id="path30"
         inkscape:connector-curvature="0"
         style="fill:#f5cb53;fill-opacity:1" />
      <path
         d="m -242.30744,169.5522 115.9744,-29.013 L 40,356.51609 40.1,543.17957 Z"
         id="path32"
         inkscape:connector-curvature="0"
         style="fill:#f5cb53;fill-opacity:1" />
      <path
         d="m 36.756573,617.28326 42.56025,-9.60734 -42.56025,-73.51316 1.93456,-181.84834 L 174.1101,584.46123 375.094,528.2282 V 648.23617 L 38.691133,727.61844 Z"
         id="path34"
         inkscape:connector-curvature="0"
         style="fill:#d8b13d;fill-opacity:1" />
      <path
         d="M 373.43162,650.15974 662.857,520.16632 V 394.8202 L 373.43162,528.56513 Z"
         id="path36"
         inkscape:connector-curvature="0"
         style="fill:#f3c02d;fill-opacity:1" />
      <path
         style="opacity:0.4;fill:none;stroke:#ffffff;stroke-width:19.64819908;stroke-linecap:butt;stroke-linejoin:miter;stroke-miterlimit:4;stroke-dasharray:none;stroke-opacity:1"
         d="M -259.75325,182.9217 39.017,106.40824 l 335.477,67.421 -335.477,-67.421"
         id="path943"
         inkscape:connector-curvature="0" />
      <path
         style="opacity:0.4;fill:none;stroke:#ffffff;stroke-width:19.64819908;stroke-linecap:butt;stroke-linejoin:miter;stroke-miterlimit:4;stroke-dasharray:none;stroke-opacity:1"
         d="M 375.97098,174.36897 635.81085,109.83504 Z"
         id="path947"
         inkscape:connector-curvature="0" />
      <path
         style="opacity:0.4;fill:none;fill-rule:evenodd;stroke:#000000;stroke-width:19.64819908;stroke-linecap:butt;stroke-linejoin:miter;stroke-miterlimit:4;stroke-dasharray:none;stroke-opacity:1"
         d="M -260.83672,1001.3918 37.933536,924.87833 373.41052,992.29936 37.933536,924.87833"
         id="path943-8"
         inkscape:connector-curvature="0" />
      <path
         style="opacity:0.4;fill:none;fill-rule:evenodd;stroke:#000000;stroke-width:19.64819908;stroke-linecap:butt;stroke-linejoin:miter;stroke-miterlimit:4;stroke-dasharray:none;stroke-opacity:1"
         d="M 374.8875,992.83906 634.72739,928.30513 Z"
         id="path947-6"
         inkscape:connector-curvature="0" />
    </g>
    <path
       d="m 203.18448,-645.02309 c -117.16823,0 -212.159463,94.99122 -212.159463,212.15821 0,8.96965 0.71956,17.71149 1.81634,26.37739 18.12854,165.72389 196.566823,356.72715 196.566823,356.72715 3.17953,3.55799 6.24453,5.75277 9.19624,7.3413 l 0.15188,0.076 5.942,1.89229 5.94202,-1.89229 0.15188,-0.076 c 2.95171,-1.58977 6.01795,-3.89785 9.19623,-7.3413 0,0 175.86502,-191.34438 193.57651,-357.10437 1.05942,-8.5526 1.779,-17.21974 1.779,-26.03752 -0.0386,-117.12964 -94.99123,-212.12086 -212.15946,-212.12086 z m 0,348.62769 c -75.23555,0 -136.468253,-61.23268 -136.468253,-136.46824 0,-75.23556 61.232703,-136.46825 136.468253,-136.46825 75.23556,0 136.43089,61.23269 136.43089,136.46825 0,75.23556 -61.19533,136.46824 -136.43089,136.46824 z"
       id="path40-9"
       inkscape:connector-curvature="0"
       style="fill:#000000;stroke-width:1.31742203;filter:url(#filter920);fill-opacity:0.58823532" />
    <path
       d="m 191.30047,-645.02303 c -117.168242,0 -212.159471,94.99122 -212.159471,212.15821 0,8.96965 0.719564,17.71149 1.81634,26.37739 18.12854011,165.72389 196.566831,356.72715 196.566831,356.72715 3.17953,3.557985 6.24453,5.75278 9.19624,7.3413 l 0.15188,0.07594 5.942,1.89228 5.94201,-1.89228 0.15188,-0.07594 c 2.95171,-1.589764 6.01795,-3.897848 9.19623,-7.3413 0,0 175.86503,-191.34437 193.57652,-357.10437 1.05943,-8.5526 1.77899,-17.21974 1.77899,-26.03752 -0.0386,-117.12964 -94.99121,-212.12086 -212.15945,-212.12086 z m 0,348.6277 c -75.23556,0 -136.468257,-61.23269 -136.468257,-136.46825 0,-75.23556 61.232697,-136.46825 136.468257,-136.46825 75.23556,0 136.4309,61.23269 136.4309,136.46825 0,75.23556 -61.19534,136.46825 -136.4309,136.46825 z"
       id="path40"
       inkscape:connector-curvature="0"
       style="fill:url(#b)" />
  </g>
</svg>
