<?xml version="1.0" encoding="UTF-8" standalone="no"?>
<svg
   xmlns:dc="http://purl.org/dc/elements/1.1/"
   xmlns:cc="http://creativecommons.org/ns#"
   xmlns:rdf="http://www.w3.org/1999/02/22-rdf-syntax-ns#"
   xmlns:svg="http://www.w3.org/2000/svg"
   xmlns="http://www.w3.org/2000/svg"
   xmlns:xlink="http://www.w3.org/1999/xlink"
   xmlns:sodipodi="http://sodipodi.sourceforge.net/DTD/sodipodi-0.dtd"
   xmlns:inkscape="http://www.inkscape.org/namespaces/inkscape"
   width="512"
   height="512"
   version="1.1"
   viewBox="0 0 384 384"
   id="svg10"
   sodipodi:docname="gnome-boxes.svg"
   inkscape:version="0.92.4 5da689c313, 2019-01-14">
  <metadata
     id="metadata16">
    <rdf:RDF>
      <cc:Work
         rdf:about="">
        <dc:format>image/svg+xml</dc:format>
        <dc:type
           rdf:resource="http://purl.org/dc/dcmitype/StillImage" />
      </cc:Work>
    </rdf:RDF>
  </metadata>
  <defs
     id="defs14">
    <linearGradient
       inkscape:collect="always"
       id="linearGradient861">
      <stop
         style="stop-color:#ffffff;stop-opacity:1;"
         offset="0"
         id="stop857" />
      <stop
         style="stop-color:#ffffff;stop-opacity:0;"
         offset="1"
         id="stop859" />
    </linearGradient>
    <linearGradient
       inkscape:collect="always"
       id="linearGradient829">
      <stop
         style="stop-color:#141414;stop-opacity:1"
         offset="0"
         id="stop825" />
      <stop
         style="stop-color:#323232;stop-opacity:1"
         offset="1"
         id="stop827" />
    </linearGradient>
    <linearGradient
       inkscape:collect="always"
       xlink:href="#linearGradient829"
       id="linearGradient831"
       x1="180.08899"
       y1="367.72882"
       x2="194.1483"
       y2="28.474577"
       gradientUnits="userSpaceOnUse" />
    <linearGradient
       inkscape:collect="always"
       xlink:href="#linearGradient861"
       id="linearGradient863"
       x1="169.83051"
       y1="19.957626"
       x2="168.70888"
       y2="48.67049"
       gradientUnits="userSpaceOnUse" />
  </defs>
  <sodipodi:namedview
     pagecolor="#ffffff"
     bordercolor="#666666"
     borderopacity="1"
     objecttolerance="10"
     gridtolerance="10"
     guidetolerance="10"
     inkscape:pageopacity="0"
     inkscape:pageshadow="2"
     inkscape:window-width="1366"
     inkscape:window-height="710"
     id="namedview12"
     showgrid="false"
     inkscape:zoom="1.1039501"
     inkscape:cx="256"
     inkscape:cy="250.5"
     inkscape:window-x="0"
     inkscape:window-y="25"
     inkscape:window-maximized="1"
     inkscape:current-layer="svg10" />
  <rect
     style="opacity:1;fill:none;fill-opacity:1;fill-rule:nonzero;stroke:#000000;stroke-width:7.34375;stroke-linejoin:round;stroke-miterlimit:4;stroke-dasharray:none;stroke-opacity:0.58823529;paint-order:fill markers stroke"
     id="rect823-6-4"
     width="345.15625"
     height="345.15625"
     x="19.421875"
     y="26.171875"
     rx="65.322021"
     ry="65.322021" />
  <rect
     style="opacity:1;fill:url(#linearGradient831);fill-opacity:1;fill-rule:nonzero;stroke:none;stroke-width:11.29153633;stroke-linejoin:round;stroke-miterlimit:4;stroke-dasharray:none;stroke-opacity:1;paint-order:fill markers stroke"
     id="rect823"
     width="352.5"
     height="352.5"
     x="15.75"
     y="15.75"
     rx="66.711861"
     ry="66.711861" />
  <g
     transform="matrix(0.71901297,0,0,0.76248181,53.339823,56.555952)"
     id="g8">
    <path
       d="M 64.699,330.02 C 48.621,324.2817 37.543,309.305 37.515,293.27 37.499375,282.774 41.4291,274.04 50.05,265.418 l 8.1602,-8.1562 -0.08594,-80.285 -0.08203,-80.281 -5.6445,-4.1406 c -17.16,-12.586 -19.496,-39.531 -4.8164,-55.523 16.113,-17.547 43.719,-17.324 58.594,0.46875 l 5.0664,6.0586 81.48,-0.08594 81.48,-0.08203 4.1797,-5.7812 c 12.418,-17.172 38.996,-19.301 55.512,-4.4492 9.5742,8.6094 13.215,17.434 12.504,30.301 -0.66797,12.047 -3.7578,18.781 -12.465,27.16 l -6.5938,6.3516 v 160.92 l 6.5938,6.3477 c 8.707,8.3828 11.797,15.113 12.465,27.164 0.71093,12.867 -2.9297,21.691 -12.504,30.301 -16.254,14.613 -41.898,12.836 -55.289,-3.8281 l -4.1758,-5.1914 h -162.71 l -8.1523,7.5469 c -11.777,10.902 -25.812,14.438 -38.863,9.7852 z m 199.5,-65.961 -9.9805,-9.9805 -12.301,-0.0234 c -11.648,-0.0234 -12.578,-0.25 -17.609,-4.2734 -2.918,-2.3359 -6.8086,-6.5273 -8.6445,-9.3164 l -3.3359,-5.0664 -40.25,0.0234 -3.1562,5.5195 c -4.707,8.2461 -12.582,12.863 -23.07,13.531 -8.6289,0.54687 -8.6758,0.57421 -18.09,10.062 l -9.4375,9.5078 h 155.86 z m -152.08,-10.109 9.1211,-9.0508 -3.3242,-6.4766 c -6.2812,-12.23 -2.2539,-27.16 9.7539,-36.145 l 6.4492,-4.8281 v -39.305 l -5.3711,-3.3906 c -11.293,-7.1289 -16.848,-21.965 -12.504,-33.395 1.3672,-3.5898 0.85937,-4.3945 -8.9688,-14.223 l -10.418,-10.422 v 81.488 c 0,82.145 0.14844,84.797 4.7266,84.797 0.77735,0 5.5195,-4.0703 10.535,-9.0508 z m 176.58,-71.992 v -78.281 l -8.9726,8.8906 c -8.8711,8.793 -8.9688,8.9766 -9,16.52 -0.0508,12.453 -7.2305,23.848 -17.488,27.746 -3.1211,1.1875 -3.1836,1.5938 -3.1836,21.223 v 20.008 l 3.7969,1.9844 c 4.793,2.5039 10.418,8.5234 13.297,14.234 2.3516,4.6602 2.8594,17.055 0.89453,21.809 -0.9414,2.2734 0.71094,4.6445 9.3789,13.457 5.7891,5.8828 10.691,10.695 10.898,10.695 0.20703,0 0.3789,-35.227 0.3789,-78.285 z m -73.051,29.602 c 1.1914,-2.4492 5.0742,-6.625 8.625,-9.2812 l 6.4609,-4.8281 -0.0547,-20.016 -0.0508,-20.012 -5.3867,-3.7266 c -2.9609,-2.0469 -6.8203,-6.2344 -8.5742,-9.3047 l -3.1875,-5.582 -20.324,-0.008 -20.328,-0.0117 -2.3516,3.7969 c -3.6289,5.8476 -9.0508,11.426 -13.238,13.613 l -3.793,1.9805 v 19.93 c 0,19.273 0.10156,19.98 3.1055,21.527 4.5664,2.3476 10.66,8.3086 12.926,12.645 l 1.9805,3.7969 42.023,-0.0625 z m 2.8203,-98.133 c 6.5547,-10.809 24.113,-15.422 36.406,-9.5586 l 4.9102,2.3438 9.5156,-9.4414 c 15.746,-15.625 21.297,-14.566 -76.477,-14.566 h -82.785 l 10.141,10.207 10.141,10.211 10.598,-0.72656 c 8.3945,-0.57422 11.582,-0.22656 15.355,1.6836 6.1172,3.0938 10.723,7.3125 13.211,12.094 l 1.9726,3.793 43.402,-0.086 z"
       id="path6"
       inkscape:connector-curvature="0"
       style="fill:#ffffff" />
  </g>
  <rect
     style="opacity:0.4;fill:none;fill-opacity:1;fill-rule:nonzero;stroke:url(#linearGradient863);stroke-width:7.5;stroke-linejoin:round;stroke-miterlimit:4;stroke-dasharray:none;stroke-opacity:1;paint-order:fill markers stroke"
     id="rect823-6"
     width="352.5"
     height="352.5"
     x="15.75"
     y="20.25"
     rx="66.711853"
     ry="66.711853" />
</svg>
