<?xml version="1.0" encoding="UTF-8" standalone="no"?>
<svg
   xmlns:dc="http://purl.org/dc/elements/1.1/"
   xmlns:cc="http://creativecommons.org/ns#"
   xmlns:rdf="http://www.w3.org/1999/02/22-rdf-syntax-ns#"
   xmlns:svg="http://www.w3.org/2000/svg"
   xmlns="http://www.w3.org/2000/svg"
   xmlns:xlink="http://www.w3.org/1999/xlink"
   xmlns:sodipodi="http://sodipodi.sourceforge.net/DTD/sodipodi-0.dtd"
   xmlns:inkscape="http://www.inkscape.org/namespaces/inkscape"
   width="512"
   height="512"
   version="1.1"
   viewBox="0 0 384 384"
   id="svg16"
   sodipodi:docname="igdm.svg"
   inkscape:version="0.92.4 5da689c313, 2019-01-14">
  <metadata
     id="metadata22">
    <rdf:RDF>
      <cc:Work
         rdf:about="">
        <dc:format>image/svg+xml</dc:format>
        <dc:type
           rdf:resource="http://purl.org/dc/dcmitype/StillImage" />
        <dc:title></dc:title>
      </cc:Work>
    </rdf:RDF>
  </metadata>
  <defs
     id="defs20">
    <linearGradient
       inkscape:collect="always"
       id="linearGradient905">
      <stop
         style="stop-color:#ffffff;stop-opacity:1;"
         offset="0"
         id="stop901" />
      <stop
         style="stop-color:#ffffff;stop-opacity:0;"
         offset="1"
         id="stop903" />
    </linearGradient>
    <linearGradient
       inkscape:collect="always"
       id="linearGradient833">
      <stop
         style="stop-color:#0066cc;stop-opacity:1;"
         offset="0"
         id="stop829" />
      <stop
         style="stop-color:#0099ff;stop-opacity:1"
         offset="1"
         id="stop831" />
    </linearGradient>
    <linearGradient
       inkscape:collect="always"
       xlink:href="#linearGradient833"
       id="linearGradient835"
       x1="15.408502"
       y1="173.70858"
       x2="288.28237"
       y2="173.70858"
       gradientUnits="userSpaceOnUse" />
    <linearGradient
       inkscape:collect="always"
       xlink:href="#linearGradient905"
       id="linearGradient907"
       x1="149.94994"
       y1="32.890244"
       x2="150.45332"
       y2="59.640453"
       gradientUnits="userSpaceOnUse" />
    <radialGradient
       id="c"
       cx="158.429"
       cy="578.08801"
       r="65"
       xlink:href="#a"
       gradientUnits="userSpaceOnUse"
       gradientTransform="matrix(0,-3.9816661,3.7042726,0,-1948.5876,994.0536)"
       fx="158.429"
       fy="578.08801" />
    <linearGradient
       id="a">
      <stop
         offset="0"
         stop-color="#fd5"
         id="stop926" />
      <stop
         offset=".1"
         stop-color="#fd5"
         id="stop928" />
      <stop
         offset=".5"
         stop-color="#ff543e"
         id="stop930" />
      <stop
         offset="1"
         stop-color="#c837ab"
         id="stop932" />
    </linearGradient>
    <radialGradient
       id="d"
       cx="147.694"
       cy="473.45499"
       r="65"
       xlink:href="#b"
       gradientUnits="userSpaceOnUse"
       gradientTransform="matrix(0.34943391,1.7452008,-7.1955982,1.440767,3434.8521,-839.09216)"
       fx="147.694"
       fy="473.45499" />
    <linearGradient
       id="b">
      <stop
         offset="0"
         stop-color="#3771c8"
         id="stop919" />
      <stop
         stop-color="#3771c8"
         offset=".128"
         id="stop921" />
      <stop
         offset="1"
         stop-color="#60f"
         stop-opacity="0"
         id="stop923" />
    </linearGradient>
  </defs>
  <sodipodi:namedview
     pagecolor="#ffffff"
     bordercolor="#666666"
     borderopacity="1"
     objecttolerance="10"
     gridtolerance="10"
     guidetolerance="10"
     inkscape:pageopacity="0"
     inkscape:pageshadow="2"
     inkscape:window-width="1366"
     inkscape:window-height="711"
     id="namedview18"
     showgrid="false"
     inkscape:zoom="0.65186406"
     inkscape:cx="19.05117"
     inkscape:cy="238.70523"
     inkscape:window-x="0"
     inkscape:window-y="25"
     inkscape:window-maximized="1"
     inkscape:current-layer="svg16" />
  <path
     d="m 288.28237,48.336851 c 0,-4.437777 -1.70269,-8.258369 -5.07968,-11.405361 -3.37698,-3.146604 -7.47732,-4.733137 -12.24043,-4.733137 H 32.728609 c -4.762697,0 -8.86302,1.586533 -12.240424,4.733137 -3.376989,3.146604 -5.079683,6.967196 -5.079683,11.405361 V 240.92712 c 0,4.43777 1.702694,8.25836 5.079683,11.40536 3.376988,3.1466 7.477311,4.73313 12.240424,4.73313 h 18.790289 v 45.18815 c 0,3.57825 1.357308,6.64537 4.071923,9.17469 2.714615,2.52564 6.002136,3.79035 9.84238,3.79035 3.840243,0 7.131924,-1.26471 9.842378,-3.79035 L 133.6189,257.06542 h 18.29925 V 135.51874 c 0,-4.43777 1.7027,-8.25836 5.08375,-11.40536 3.37699,-3.1466 7.47325,-4.73691 12.23626,-4.73691 h 119.04401 z"
     id="path2"
     style="fill:url(#linearGradient835);stroke-width:1.00420856;fill-opacity:1"
     inkscape:connector-curvature="0" />
  <path
     d="m 286.78237,51.336854 c 0,-4.43777 -1.70269,-8.25837 -5.07968,-11.40536 -3.37698,-3.1466 -7.47732,-4.73313 -12.24043,-4.73313 H 31.22862 c -4.762696,0 -8.863019,1.58653 -12.240423,4.73313 -3.376989,3.14661 -5.079683,6.9672 -5.079683,11.40536 V 243.92712 c 0,4.43777 1.702694,8.25836 5.079683,11.40536 3.376988,3.1466 7.47731,4.73313 12.240423,4.73313 h 18.790289 v 45.18815 c 0,3.57825 1.357308,6.64537 4.071923,9.17469 2.714615,2.52564 6.002136,3.79035 9.84238,3.79035 3.840243,0 7.131924,-1.26471 9.842377,-3.79035 L 132.1189,260.06542 h 18.29925 V 138.51874 c 0,-4.43776 1.70271,-8.25835 5.08375,-11.40535 3.377,-3.1466 7.47326,-4.73691 12.23627,-4.73691 h 119.044 z"
     id="path2-4"
     style="fill:none;fill-opacity:1;stroke:url(#linearGradient907);stroke-width:7.5;stroke-miterlimit:4;stroke-dasharray:none;stroke-opacity:1;opacity:0.4"
     inkscape:connector-curvature="0" />
  <path
     d="m 15.9375,232.575 v 7.5 c 0,4.57815 1.6362,8.51925 4.88235,11.766 3.246075,3.24608 7.187475,4.88235 11.766,4.88235 h 18.063 v -7.5 h -18.063 c -4.57815,-1e-5 -8.51925,-1.63627 -11.766,-4.88235 -3.246075,-3.24608 -4.88235,-7.18748 -4.88235,-11.766 z M 129.57,249.22275 73.48725,305.304 c -2.605425,2.6055 -5.76855,3.9111 -9.45975,3.9111 -3.691425,0 -6.852075,-1.30568 -9.46125,-3.9111 -2.6094,-2.6094 -3.9141,-5.77298 -3.9141,-9.46425 v 7.5 c 0,3.69142 1.3047,6.855 3.9141,9.46425 2.6094,2.6055 5.77005,3.9111 9.46125,3.9111 3.691425,0 6.854475,-1.30568 9.45975,-3.9111 L 129.57,256.72275 h 17.58975 v -7.5 z"
     id="path14"
     inkscape:connector-curvature="0"
     style="opacity:0.3;stroke-width:0.75" />
  <path
     d="m 250.02198,96.05237 c -46.96785,0 -60.70416,0.0485 -63.37423,0.27003 -9.63862,0.80144 -15.63633,2.31944 -22.17051,5.57356 -5.03562,2.50117 -9.00698,5.40047 -12.92647,9.46468 -7.13809,7.41178 -11.46423,16.53028 -13.03026,27.3693 -0.76142,5.26199 -0.98291,6.33516 -1.02791,33.2129 -0.0161,8.95923 0,20.75025 0,36.56567 0,46.94254 0.052,60.66872 0.27689,63.33437 0.77869,9.38153 2.24957,15.28395 5.36439,21.7403 5.95274,12.3588 17.3218,21.63653 30.71547,25.09832 4.63761,1.19436 9.75971,1.85205 16.33544,2.16369 2.78602,0.12107 31.1827,0.20785 59.59664,0.20785 28.41398,0 56.82797,-0.0349 59.54477,-0.1733 7.61396,-0.35835 12.03525,-0.952 16.9238,-2.21562 13.48018,-3.47914 24.64157,-12.6184 30.71546,-25.15023 3.05422,-6.30057 4.60297,-12.42802 5.30383,-21.31975 0.15214,-1.93862 0.21615,-32.84764 0.21615,-63.71515 0,-30.87267 -0.0696,-61.72459 -0.22151,-63.66321 -0.70951,-9.0354 -2.25822,-15.11093 -5.41108,-21.53263 -2.58704,-5.25685 -5.45958,-9.18257 -9.63,-13.19658 -7.44263,-7.11055 -16.54482,-11.43785 -27.3913,-13.00259 -5.25534,-0.75989 -6.30226,-0.98489 -33.19345,-1.03163 z"
     id="path939"
     inkscape:connector-curvature="0"
     style="fill:url(#c);stroke-width:2.00893331" />
  <path
     d="m 250.02198,96.05237 c -46.96785,0 -60.70416,0.0485 -63.37423,0.27003 -9.63862,0.80144 -15.63633,2.31944 -22.17051,5.57356 -5.03562,2.50117 -9.00698,5.40047 -12.92647,9.46468 -7.13809,7.41178 -11.46423,16.53028 -13.03026,27.3693 -0.76142,5.26199 -0.98291,6.33516 -1.02791,33.2129 -0.0161,8.95923 0,20.75025 0,36.56567 0,46.94254 0.052,60.66872 0.27689,63.33437 0.77869,9.38153 2.24957,15.28395 5.36439,21.7403 5.95274,12.3588 17.3218,21.63653 30.71547,25.09832 4.63761,1.19436 9.75971,1.85205 16.33544,2.16369 2.78602,0.12107 31.1827,0.20785 59.59664,0.20785 28.41398,0 56.82797,-0.0349 59.54477,-0.1733 7.61396,-0.35835 12.03525,-0.952 16.9238,-2.21562 13.48018,-3.47914 24.64157,-12.6184 30.71546,-25.15023 3.05422,-6.30057 4.60297,-12.42802 5.30383,-21.31975 0.15214,-1.93862 0.21615,-32.84764 0.21615,-63.71515 0,-30.87267 -0.0696,-61.72459 -0.22151,-63.66321 -0.70951,-9.0354 -2.25822,-15.11093 -5.41108,-21.53263 -2.58704,-5.25685 -5.45958,-9.18257 -9.63,-13.19658 -7.44263,-7.11055 -16.54482,-11.43785 -27.3913,-13.00259 -5.25534,-0.75989 -6.30226,-0.98489 -33.19345,-1.03163 z"
     id="path941"
     inkscape:connector-curvature="0"
     style="fill:url(#d);stroke-width:2.00893331" />
  <path
     d="m 249.97007,125.47803 c -22.55814,0 -25.38915,0.0986 -34.24906,0.50196 -8.8426,0.40504 -14.8784,1.80534 -20.15973,3.85994 -5.46301,2.1221 -10.09716,4.96083 -14.71399,9.58066 -4.6203,4.61808 -7.45827,9.2535 -9.58671,14.71627 -2.05922,5.28448 -3.46088,11.32366 -3.85889,20.16522 -0.39627,8.86229 -0.5001,11.69582 -0.5001,34.26009 0,22.56426 0.10045,25.38739 0.50184,34.24971 0.40665,8.84499 1.80659,14.88242 3.85889,20.1652 2.12326,5.46454 4.96121,10.09993 9.57978,14.71801 4.6151,4.62153 9.24923,7.46717 14.70879,9.58928 5.2848,2.05458 11.32235,3.45488 20.16321,3.85993 8.85988,0.40334 11.68918,0.50197 34.24557,0.50197 22.55987,0 25.38223,-0.0986 34.24213,-0.50197 8.84261,-0.40505 14.88535,-1.80535 20.17011,-3.85993 5.46132,-2.12211 10.08851,-4.96775 14.70364,-9.58928 4.62028,-4.61808 7.45824,-9.25347 9.58669,-14.71628 2.04193,-5.28451 3.44358,-11.32366 3.85892,-20.16522 0.39795,-8.86231 0.50183,-11.68716 0.50183,-34.25142 0,-22.56427 -0.10366,-25.39606 -0.50183,-34.25838 -0.41534,-8.84498 -1.81699,-14.88245 -3.85892,-20.16519 -2.12845,-5.46451 -4.96641,-10.09993 -9.58669,-14.71801 -4.6203,-4.62156 -9.2406,-7.46027 -14.70884,-9.58066 -5.29515,-2.0546 -11.33443,-3.4549 -20.177,-3.85994 -8.85991,-0.40332 -11.68054,-0.50196 -34.2456,-0.50196 z m -7.45133,14.97245 c 2.21152,-0.003 4.67916,0 7.45133,0 22.17742,0 24.80598,0.0795 33.56378,0.47772 8.09849,0.37043 12.49386,1.72402 15.42176,2.86123 3.87622,1.50589 6.63974,3.30604 9.54516,6.21398 2.90713,2.90795 4.70683,5.67743 6.21578,9.55468 1.13689,2.92527 2.49182,7.32181 2.86042,15.4225 0.39801,8.75844 0.48453,11.38945 0.48453,33.56253 0,22.17308 -0.0865,24.80409 -0.48453,33.56253 -0.37032,8.10072 -1.72353,12.49725 -2.86042,15.4225 -1.5055,3.87727 -3.30865,6.63808 -6.21578,9.54428 -2.90717,2.90795 -5.66723,4.70812 -9.54516,6.214 -2.92445,1.14239 -7.32327,2.49254 -15.42176,2.86296 -8.75608,0.39811 -11.38636,0.48465 -33.56378,0.48465 -22.17917,0 -24.80774,-0.0862 -33.56379,-0.48465 -8.09849,-0.37387 -12.49386,-1.72745 -15.4235,-2.86469 -3.8762,-1.5059 -6.64491,-3.30604 -9.55208,-6.21398 -2.90714,-2.90797 -4.70683,-5.67052 -6.21577,-9.54951 -1.13689,-2.92524 -2.49186,-7.32178 -2.86043,-15.42247 -0.39801,-8.75847 -0.47761,-11.38945 -0.47761,-33.57637 0,-22.18694 0.0795,-24.80409 0.47761,-33.56254 0.37031,-8.10072 1.72354,-12.49725 2.86043,-15.42596 1.5055,-3.87727 3.30863,-6.64673 6.21577,-9.55468 2.90717,-2.90794 5.67588,-4.70811 9.55208,-6.21746 2.92793,-1.14241 7.32501,-2.49252 15.4235,-2.86468 7.66242,-0.34618 10.63189,-0.45003 26.11246,-0.46736 z m 51.78889,13.79542 c -5.50282,0 -9.9674,4.46058 -9.9674,9.96664 0,5.50432 4.46458,9.9701 9.9674,9.9701 5.50282,0 9.96738,-4.46578 9.96738,-9.9701 0,-5.50431 -4.46456,-9.97009 -9.96738,-9.97009 z m -44.33756,11.64909 c -23.5566,0 -42.65558,19.10416 -42.65558,42.66718 0,23.56301 19.09898,42.65852 42.65558,42.65852 23.55659,0 42.64864,-19.09551 42.64864,-42.65852 0,-23.56302 -19.09377,-42.66718 -42.65039,-42.66718 z m 0,14.97248 c 15.29023,0 27.68717,12.39857 27.68717,27.6947 0,15.2944 -12.39694,27.69469 -27.68717,27.69469 -15.29198,0 -27.68718,-12.40029 -27.68718,-27.69469 0,-15.29613 12.3952,-27.6947 27.68718,-27.6947 z"
     id="path943"
     inkscape:connector-curvature="0"
     style="fill:#ffffff;stroke-width:2.00893331" />
</svg>
