<?xml version="1.0" encoding="UTF-8" standalone="no"?>
<svg
   xmlns:dc="http://purl.org/dc/elements/1.1/"
   xmlns:cc="http://creativecommons.org/ns#"
   xmlns:rdf="http://www.w3.org/1999/02/22-rdf-syntax-ns#"
   xmlns:svg="http://www.w3.org/2000/svg"
   xmlns="http://www.w3.org/2000/svg"
   xmlns:xlink="http://www.w3.org/1999/xlink"
   xmlns:sodipodi="http://sodipodi.sourceforge.net/DTD/sodipodi-0.dtd"
   xmlns:inkscape="http://www.inkscape.org/namespaces/inkscape"
   width="512"
   height="512"
   version="1.1"
   viewBox="0 0 384 384"
   id="svg46"
   sodipodi:docname="org.gnome.Evolution.svg"
   inkscape:version="0.92.4 5da689c313, 2019-01-14">
  <metadata
     id="metadata52">
    <rdf:RDF>
      <cc:Work
         rdf:about="">
        <dc:format>image/svg+xml</dc:format>
        <dc:type
           rdf:resource="http://purl.org/dc/dcmitype/StillImage" />
        <dc:title></dc:title>
      </cc:Work>
    </rdf:RDF>
  </metadata>
  <defs
     id="defs50">
    <linearGradient
       inkscape:collect="always"
       id="linearGradient860">
      <stop
         style="stop-color:#0f6ee3;stop-opacity:1"
         offset="0"
         id="stop856" />
      <stop
         style="stop-color:#00f1ea;stop-opacity:1"
         offset="1"
         id="stop858" />
    </linearGradient>
    <linearGradient
       inkscape:collect="always"
       xlink:href="#linearGradient860"
       id="linearGradient862"
       x1="40.861511"
       y1="335.50354"
       x2="207.64813"
       y2="82.527138"
       gradientUnits="userSpaceOnUse"
       gradientTransform="matrix(1.0538234,0,0,1.0221584,-9.7968665,-0.33277515)" />
    <filter
       inkscape:collect="always"
       style="color-interpolation-filters:sRGB"
       id="filter1087"
       x="-0.06066411"
       width="1.1213282"
       y="-0.089206976"
       height="1.178414">
      <feGaussianBlur
         inkscape:collect="always"
         stdDeviation="8.0021843"
         id="feGaussianBlur1089" />
    </filter>
  </defs>
  <sodipodi:namedview
     pagecolor="#ffffff"
     bordercolor="#666666"
     borderopacity="1"
     objecttolerance="10"
     gridtolerance="10"
     guidetolerance="10"
     inkscape:pageopacity="0"
     inkscape:pageshadow="2"
     inkscape:window-width="1366"
     inkscape:window-height="713"
     id="namedview48"
     showgrid="false"
     inkscape:zoom="0.65186405"
     inkscape:cx="405.64285"
     inkscape:cy="9.3726843"
     inkscape:window-x="0"
     inkscape:window-y="25"
     inkscape:window-maximized="1"
     inkscape:current-layer="g44"
     showguides="false" />
  <g
     transform="translate(9.9848 8.2319)"
     id="g44">
    <path
       style="fill:#3b73b7;fill-opacity:1;stroke:none;stroke-width:0.75px;stroke-linecap:butt;stroke-linejoin:miter;stroke-opacity:1"
       d="M 6.801379,129.6176 182.12195,15.018 357.22875,129.61422 177.96284,247.40065 Z"
       id="path1151"
       inkscape:connector-curvature="0"
       sodipodi:nodetypes="ccccc" />
    <path
       d="m 318.06,62.382776 c 0,-7.958832 -3.8913,-11.936766 -11.678,-11.936766 H 57.642 c -7.7937,0 -11.678,3.970063 -11.678,11.936766 V 289.74147 c 0,21.66567 3.884,32.4985 11.678,32.4985 h 248.74 c 7.7937,0 11.678,-10.83283 11.678,-32.4985 z M 302.325,191.50182 H 62.895 v -9.55207 h 239.43 z m 0,19.39444 H 62.895 v -9.54839 h 239.43 z m 0,38.79602 H 62.895 v -9.54829 h 239.43 z m 0,19.3975 H 62.895 v -9.54829 h 239.43 z m 0,-38.79602 H 62.895 v -9.54829 h 239.43 z m 0,-58.19046 H 62.895 v -9.54839 h 239.43 z M 169.165,152.7058 H 62.895 v -9.54829 h 106.27 z M 62.895,288.48932 v -9.55207 h 239.43 v 9.55207 z"
       id="path6"
       inkscape:connector-curvature="0"
       style="opacity:0.2;fill:#ffffff;stroke:#000000;stroke-width:7.5" />
    <path
       d="m 318.06,62.382776 c 0,-7.958832 -3.8913,-11.936766 -11.678,-11.936766 H 57.642 c -7.7937,0 -11.678,3.970063 -11.678,11.936766 V 289.74147 c 0,21.66567 3.884,32.4985 11.678,32.4985 h 248.74 c 7.7937,0 11.678,-10.83283 11.678,-32.4985 z"
       id="path8"
       inkscape:connector-curvature="0"
       style="fill:#ffffff;stroke-width:0.94335002" />
    <g
       transform="matrix(0.94335,0,0,0.96425315,0.89215,20.080751)"
       id="g30"
       style="fill:#646464;fill-opacity:1;stroke-width:0.98910159">
      <path
         d="m 319.54,177.79 v -9.9062 H 65.73 v 9.9062 z"
         id="path10"
         style="fill:#646464;fill-opacity:1;stroke-width:0.98910159"
         inkscape:connector-curvature="0" />
      <path
         d="m 319.54,197.9 v -9.9024 H 65.73 V 197.9 Z"
         id="path12"
         style="fill:#646464;fill-opacity:1;stroke-width:0.98910159"
         inkscape:connector-curvature="0" />
      <path
         d="m 319.54,238.13 v -9.9023 H 65.73 v 9.9023 z"
         id="path14"
         style="fill:#646464;fill-opacity:1;stroke-width:0.98910159"
         inkscape:connector-curvature="0" />
      <path
         d="m 319.54,258.25 v -9.9023 H 65.73 v 9.9023 z"
         id="path16"
         style="fill:#646464;fill-opacity:1;stroke-width:0.98910159"
         inkscape:connector-curvature="0" />
      <path
         d="m 319.54,218.02 v -9.9023 H 65.73 v 9.9023 z"
         id="path18"
         style="fill:#646464;fill-opacity:1;stroke-width:0.98910159"
         inkscape:connector-curvature="0" />
      <path
         d="m 319.54,157.67 v -9.9024 H 65.73 v 9.9024 z"
         id="path20"
         style="fill:#646464;fill-opacity:1;stroke-width:0.98910159"
         inkscape:connector-curvature="0" />
      <path
         d="M 148.67,61.758 V 51.8557 H 65.729 v 9.9023 z"
         id="path22"
         style="fill:#646464;fill-opacity:1;stroke-width:0.98910159"
         inkscape:connector-curvature="0" />
      <path
         d="m 178.38,137.55 v -9.9023 H 65.73 v 9.9023 z"
         id="path24"
         style="fill:#646464;fill-opacity:1;stroke-width:0.98910159"
         inkscape:connector-curvature="0" />
      <path
         d="M 118.96,81.844 V 71.9417 H 65.73 v 9.9023 z"
         id="path26"
         style="fill:#646464;fill-opacity:1;stroke-width:0.98910159"
         inkscape:connector-curvature="0" />
      <path
         d="m 65.73,278.37 h 253.81 v -9.9062 H 65.73 Z"
         id="path28"
         style="fill:#646464;fill-opacity:1;stroke-width:0.98910159"
         inkscape:connector-curvature="0" />
    </g>
    <path
       inkscape:connector-curvature="0"
       style="fill:#388bf2;fill-opacity:1;stroke-width:0.94335002"
       id="path36"
       d="m 357.22875,129.61422 v -0.53862 l -179.2659,118.32505 174.99791,110.59754 c 2.83089,-1.87954 4.27557,-5.19042 4.27557,-9.93661 z" />
    <path
       sodipodi:nodetypes="cc"
       inkscape:connector-curvature="0"
       id="path836"
       d="m 20.01673,137.22143 314.3997,210.92685"
       style="opacity:1;fill:#ff1d5a;stroke:#000000;stroke-width:7.22633743;stroke-linecap:butt;stroke-linejoin:miter;stroke-miterlimit:4;stroke-dasharray:none;stroke-opacity:0.58823529;filter:url(#filter1087)"
       transform="matrix(1.0538234,0,0,1.0221584,-9.7968665,-0.33277515)" />
    <path
       inkscape:connector-curvature="0"
       id="path38"
       style="fill:url(#linearGradient862);fill-opacity:1;stroke-width:0.93090701;paint-order:markers fill stroke"
       d="m 344.92009,359.98828 c 3.32418,0 5.99973,-0.65539 8.03066,-2.00005 L 6.801379,129.6176 v 218.44547 c 0,3.84945 0.9552909,6.77231 2.7688156,8.62548 2.1552794,2.2373 5.2929334,3.31087 9.5374174,3.31087 z" />
    <path
       style="opacity:0.4;fill:none;stroke:#ffffff;stroke-width:7.5;stroke-linecap:butt;stroke-linejoin:miter;stroke-miterlimit:4;stroke-dasharray:none;stroke-opacity:1"
       d="M 8.9961363,135.47088 342.61899,355.52991"
       id="path836-9"
       inkscape:connector-curvature="0"
       sodipodi:nodetypes="cc" />
    <path
       d="m 6.3920682,340.83303 v 7.23188 c 0,3.84945 0.9561914,6.77139 2.7723052,8.62477 2.1584066,2.2374 5.3015626,3.31077 9.5522056,3.31077 l 326.293861,-0.004 c 3.32752,0 6.00496,-0.65518 8.03872,-1.99873 l 0.006,0.004 c 2.835,-1.87955 4.28178,-5.19052 4.28178,-9.93661 v -7.23044 c -3e-4,4.74547 -1.4471,8.05635 -4.28178,9.93517 l -0.006,-0.004 c -2.03346,1.34342 -4.71088,1.99862 -8.03872,1.99862 l -326.293861,0.004 c -4.250643,0 -7.393799,-1.07347 -9.5522056,-3.31087 -1.816156,-1.85318 -2.7723052,-4.77512 -2.7723052,-8.62477 z"
       id="path42"
       inkscape:connector-curvature="0"
       style="opacity:0.3;stroke-width:0.94331998" />
    <path
       style="opacity:0.38999999;fill:none;stroke:#ffffff;stroke-width:7.5;stroke-linecap:butt;stroke-linejoin:miter;stroke-miterlimit:4;stroke-dasharray:none;stroke-opacity:1"
       d="M 357.22874,132.61422 177.96284,250.40065"
       id="path1149"
       inkscape:connector-curvature="0" />
  </g>
</svg>
