<?xml version="1.0" encoding="UTF-8" standalone="no"?>
<svg
   xmlns:dc="http://purl.org/dc/elements/1.1/"
   xmlns:cc="http://creativecommons.org/ns#"
   xmlns:rdf="http://www.w3.org/1999/02/22-rdf-syntax-ns#"
   xmlns:svg="http://www.w3.org/2000/svg"
   xmlns="http://www.w3.org/2000/svg"
   xmlns:xlink="http://www.w3.org/1999/xlink"
   xmlns:sodipodi="http://sodipodi.sourceforge.net/DTD/sodipodi-0.dtd"
   xmlns:inkscape="http://www.inkscape.org/namespaces/inkscape"
   width="512"
   height="512"
   version="1.1"
   viewBox="0 0 384 384"
   id="svg20"
   sodipodi:docname="gnome-shell-extension-prefs.svg"
   inkscape:version="0.92.4 5da689c313, 2019-01-14">
  <metadata
     id="metadata26">
    <rdf:RDF>
      <cc:Work
         rdf:about="">
        <dc:format>image/svg+xml</dc:format>
        <dc:type
           rdf:resource="http://purl.org/dc/dcmitype/StillImage" />
      </cc:Work>
    </rdf:RDF>
  </metadata>
  <defs
     id="defs24">
    <linearGradient
       inkscape:collect="always"
       id="linearGradient1686">
      <stop
         style="stop-color:#000000;stop-opacity:1;"
         offset="0"
         id="stop1682" />
      <stop
         style="stop-color:#000000;stop-opacity:0;"
         offset="1"
         id="stop1684" />
    </linearGradient>
    <linearGradient
       inkscape:collect="always"
       id="linearGradient1603">
      <stop
         style="stop-color:#ffffff;stop-opacity:1;"
         offset="0"
         id="stop1599" />
      <stop
         style="stop-color:#ffffff;stop-opacity:0;"
         offset="1"
         id="stop1601" />
    </linearGradient>
    <linearGradient
       id="linearGradient1573"
       inkscape:collect="always">
      <stop
         id="stop1569"
         offset="0"
         style="stop-color:#0099ff;stop-opacity:1" />
      <stop
         id="stop1571"
         offset="1"
         style="stop-color:#9999cc;stop-opacity:1" />
    </linearGradient>
    <linearGradient
       id="linearGradient1567"
       inkscape:collect="always">
      <stop
         id="stop1563"
         offset="0"
         style="stop-color:#ff3300;stop-opacity:1" />
      <stop
         id="stop1565"
         offset="1"
         style="stop-color:#66cc33;stop-opacity:1" />
    </linearGradient>
    <linearGradient
       inkscape:collect="always"
       id="linearGradient837">
      <stop
         style="stop-color:#ff3300;stop-opacity:1"
         offset="0"
         id="stop833" />
      <stop
         style="stop-color:#ffcc00;stop-opacity:1"
         offset="1"
         id="stop835" />
    </linearGradient>
    <linearGradient
       inkscape:collect="always"
       xlink:href="#linearGradient1567"
       id="linearGradient1557"
       x1="54.183403"
       y1="543.91058"
       x2="233.12166"
       y2="9.0679522"
       gradientUnits="userSpaceOnUse" />
    <linearGradient
       inkscape:collect="always"
       xlink:href="#linearGradient1573"
       id="linearGradient1559"
       gradientUnits="userSpaceOnUse"
       x1="-19.226368"
       y1="557.89331"
       x2="416.64612"
       y2="113.93905" />
    <linearGradient
       inkscape:collect="always"
       xlink:href="#linearGradient837"
       id="linearGradient1561"
       gradientUnits="userSpaceOnUse"
       x1="0"
       y1="267.75"
       x2="535.5"
       y2="267.75" />
    <linearGradient
       inkscape:collect="always"
       xlink:href="#linearGradient1603"
       id="linearGradient1605"
       x1="159.56833"
       y1="24.964886"
       x2="160.00105"
       y2="112.40643"
       gradientUnits="userSpaceOnUse" />
    <linearGradient
       inkscape:collect="always"
       xlink:href="#linearGradient1686"
       id="linearGradient1688"
       x1="157.34947"
       y1="302.22107"
       x2="156.96864"
       y2="285.38657"
       gradientUnits="userSpaceOnUse"
       gradientTransform="translate(0,-1.5)" />
  </defs>
  <sodipodi:namedview
     pagecolor="#ffffff"
     bordercolor="#666666"
     borderopacity="1"
     objecttolerance="10"
     gridtolerance="10"
     guidetolerance="10"
     inkscape:pageopacity="0"
     inkscape:pageshadow="2"
     inkscape:window-width="1366"
     inkscape:window-height="710"
     id="namedview22"
     showgrid="false"
     inkscape:zoom="1.84375"
     inkscape:cx="360.55082"
     inkscape:cy="344.55045"
     inkscape:window-x="0"
     inkscape:window-y="25"
     inkscape:window-maximized="1"
     inkscape:current-layer="svg20" />
  <path
     inkscape:connector-curvature="0"
     d="m 321.84449,188.95387 h -24.65402 v -65.74404 c 0,-18.07962 -14.7924,-32.872023 -32.87201,-32.872023 H 198.57441 V 65.68379 c 0,-23.010418 -18.07962,-41.090028 -41.09004,-41.090028 -23.0104,0 -41.09002,18.07961 -41.09002,41.090028 V 90.337807 H 50.650303 c -18.07962,0 -32.872018,14.792403 -32.872018,32.872023 v 62.45684 h 24.654008 c 24.65402,0 44.37724,19.72321 44.37724,44.37724 0,24.654 -19.72322,44.37722 -44.37724,44.37722 H 17.778285 v 62.45684 c 0,18.07961 14.792398,32.87203 32.872018,32.87203 h 62.456837 v -24.65402 c 0,-24.65403 19.72323,-44.37723 44.37723,-44.37723 24.65403,0 44.37724,19.7232 44.37724,44.37723 V 369.75 h 62.45685 c 18.07961,0 32.87201,-14.79242 32.87201,-32.87202 v -65.74405 h 24.65402 c 23.01042,0 41.09004,-18.07962 41.09004,-41.09002 0,-23.01042 -18.07962,-41.09004 -41.09004,-41.09004 z"
     id="path945-8-2"
     style="opacity:0.4;fill:none;fill-opacity:1;stroke:url(#linearGradient1688);stroke-width:7.34374952;stroke-miterlimit:4;stroke-dasharray:none;stroke-opacity:1" />
  <g
     id="g948"
     transform="matrix(0.65826331,0,0,0.65826331,15.749999,15.749999)"
     style="fill:url(#linearGradient1557);fill-opacity:1">
    <g
       id="extension"
       style="fill:url(#linearGradient1561);fill-opacity:1">
      <path
         inkscape:connector-curvature="0"
         d="M 471.75,255 H 433.5 V 153 c 0,-28.05 -22.95,-51 -51,-51 h -102 V 63.75 C 280.5,28.05 252.45,0 216.75,0 181.05,0 153,28.05 153,63.75 V 102 H 51 C 22.95,102 0,124.95 0,153 v 96.9 h 38.25 c 38.25,0 68.85,30.6 68.85,68.85 0,38.25 -30.6,68.85 -68.85,68.85 H 0 v 96.9 c 0,28.05 22.95,51 51,51 h 96.9 v -38.25 c 0,-38.25 30.6,-68.85 68.85,-68.85 38.25,0 68.85,30.6 68.85,68.85 v 38.25 h 96.9 c 28.05,0 51,-22.95 51,-51 v -102 h 38.25 c 35.7,0 63.75,-28.05 63.75,-63.75 0,-35.7 -28.05,-63.75 -63.75,-63.75 z"
         id="path945"
         style="fill:url(#linearGradient1559);fill-opacity:1" />
    </g>
  </g>
  <path
     inkscape:connector-curvature="0"
     d="m 323.48809,182.42559 h -24.65402 v -65.74405 c 0,-18.07961 -14.7924,-32.872017 -32.87201,-32.872017 H 200.21801 V 59.155505 c 0,-23.010417 -18.07962,-41.09003 -41.09004,-41.09003 -23.01041,0 -41.09003,18.079613 -41.09003,41.09003 V 83.809523 H 52.293895 c -18.07962,0 -32.87202,14.792407 -32.87202,32.872017 v 62.45685 h 24.65401 c 24.65402,0 44.37724,19.72322 44.37724,44.37724 0,24.65401 -19.72322,44.37723 -44.37724,44.37723 h -24.65401 v 62.45684 c 0,18.07961 14.7924,32.87203 32.87202,32.87203 h 62.456845 v -24.65402 c 0,-24.65403 19.72322,-44.37723 44.37723,-44.37723 24.65402,0 44.37724,19.7232 44.37724,44.37723 v 24.65402 h 62.45685 c 18.07961,0 32.87201,-14.79242 32.87201,-32.87202 v -65.74405 h 24.65402 c 23.01042,0 41.09004,-18.07962 41.09004,-41.09003 0,-23.01042 -18.07962,-41.09004 -41.09004,-41.09004 z"
     id="path945-8"
     style="fill:none;fill-opacity:1;stroke:url(#linearGradient1605);stroke-width:7.34375;stroke-miterlimit:4;stroke-dasharray:none;stroke-opacity:1;opacity:0.4" />
</svg>
