<?xml version="1.0" encoding="UTF-8" standalone="no"?>
<svg
   xmlns:dc="http://purl.org/dc/elements/1.1/"
   xmlns:cc="http://creativecommons.org/ns#"
   xmlns:rdf="http://www.w3.org/1999/02/22-rdf-syntax-ns#"
   xmlns:svg="http://www.w3.org/2000/svg"
   xmlns="http://www.w3.org/2000/svg"
   xmlns:sodipodi="http://sodipodi.sourceforge.net/DTD/sodipodi-0.dtd"
   xmlns:inkscape="http://www.inkscape.org/namespaces/inkscape"
   width="48"
   height="48"
   version="1"
   id="svg14"
   sodipodi:docname="preferences-desktop-locale.svg"
   inkscape:version="0.92.4 5da689c313, 2019-01-14">
  <metadata
     id="metadata20">
    <rdf:RDF>
      <cc:Work
         rdf:about="">
        <dc:format>image/svg+xml</dc:format>
        <dc:type
           rdf:resource="http://purl.org/dc/dcmitype/StillImage" />
        <dc:title></dc:title>
      </cc:Work>
    </rdf:RDF>
  </metadata>
  <defs
     id="defs18" />
  <sodipodi:namedview
     pagecolor="#ffffff"
     bordercolor="#666666"
     borderopacity="1"
     objecttolerance="10"
     gridtolerance="10"
     guidetolerance="10"
     inkscape:pageopacity="0"
     inkscape:pageshadow="2"
     inkscape:window-width="1366"
     inkscape:window-height="693"
     id="namedview16"
     showgrid="false"
     showguides="false"
     inkscape:guide-bbox="true"
     inkscape:zoom="9.8333331"
     inkscape:cx="29.117809"
     inkscape:cy="18.836109"
     inkscape:window-x="0"
     inkscape:window-y="0"
     inkscape:window-maximized="1"
     inkscape:current-layer="svg14">
    <sodipodi:guide
       position="40,28.705882"
       orientation="0,1"
       id="guide827"
       inkscape:locked="false" />
    <sodipodi:guide
       position="24.942769,44"
       orientation="1,0"
       id="guide829"
       inkscape:locked="false" />
  </sodipodi:namedview>
  <path
     inkscape:connector-curvature="0"
     style="fill:#e4e4e4;stroke-width:0.70175439"
     d="m 31.456918,16.63158 0.0097,26.666665 H 6.915088 C 4.810105,43.298245 4.8,41.53544 4.8,41.53544 V 18.736843 c 0,0 0,-2.105263 2.105263,-2.105263 z"
     id="path2" />
  <path
     inkscape:connector-curvature="0"
     style="opacity:0.4;fill:#ffffff;stroke-width:0.70175439"
     d="m 6.895863,16.63158 c -2.095788,0 -2.095788,2.105263 -2.095788,2.105263 l 0.004,0.660352 c 0.002,-0.123525 0.0614,-2.06386 2.09172,-2.06386 H 31.46667 V 16.63158 Z"
     id="path4" />
  <path
     inkscape:connector-curvature="0"
     style="opacity:0.2;stroke-width:0.70175439"
     d="m 15.42674,22.781053 c 0.57965,0.401405 1.113685,0.891227 1.60421,1.470175 l -0.86877,1.06807 c -0.53544,-0.66807 -1.092632,-1.225263 -1.67158,-1.670175 l 0.93544,-0.86807 m 0,4.209825 c 0.534738,0.401402 1.047017,0.847017 1.537542,1.336842 L 16.09481,29.46386 C 15.604285,28.839298 15.069548,28.304562 14.4906,27.859648 l 0.93544,-0.86877 m 0.26737,4.611227 1.069472,0.735438 c -0.534735,1.825965 -1.314385,3.585965 -2.338945,5.278597 l -1.13614,-0.868772 c 1.02456,-1.64842 1.826665,-3.36421 2.405613,-5.145965 m 3.141052,-9.355788 1.269475,0.26737 c -0.08913,0.445615 -0.22245,0.868773 -0.400702,1.269475 h 5.213332 v 1.203508 h -5.74807 l -0.601402,1.002107 c -0.17825,0.35649 -0.46807,0.735438 -0.868773,1.13614 l -0.802105,-0.935442 c 0.846318,-1.02456 1.49263,-2.338948 1.938245,-3.943158 m -0.334037,4.14386 h 6.148772 c 0,1.38105 -0.0225,2.672983 -0.06665,3.875788 h 0.86877 v 1.20281 h -0.93614 c -0.0891,0.93614 -0.1558,1.849122 -0.2,2.740347 h 1.002107 v 1.13614 h -1.136142 c -0.17825,1.5593 -0.802808,2.339653 -1.872281,2.339653 -0.267372,0 -0.646315,-0.04492 -1.136139,-0.13335 l -0.200726,-1.13614 c 0.579648,0.08843 1.025263,0.13335 1.336843,0.13335 0.31228,0 0.51228,-0.400705 0.601402,-1.20281 h -5.21263 c 0.17825,-1.202805 0.334035,-2.495438 0.467368,-3.87649 h -0.935438 v -1.202808 h 1.069475 c 0.08913,-1.24772 0.1558,-2.539647 0.200675,-3.87649 m 1.002105,3.87649 h 3.809828 c 0.0442,-0.93544 0.06665,-1.849122 0.06665,-2.74035 h -3.67579 c -0.04492,0.98035 -0.111575,1.894033 -0.200725,2.74035 m 1.672985,-2.405612 c 0.490525,0.31228 0.93614,0.668067 1.336842,1.069472 l -0.802107,1.002103 c -0.400703,-0.44561 -0.846315,-0.846313 -1.33614,-1.202805 l 0.8007,-0.86877 m 1.87158,6.34877 c 0.08913,-0.93544 0.1558,-1.84842 0.200725,-2.739648 h -3.809825 c -0.08913,0.98035 -0.200725,1.89333 -0.334035,2.739648 h 3.943158 m -2.07158,-2.405615 c 0.534737,0.31158 1.024562,0.668072 1.470177,1.069475 l -0.86875,1.002105 c -0.44561,-0.489825 -0.913683,-0.912983 -1.403505,-1.269473 l 0.802103,-0.802107 m -7.017523,-7.952983 v 10.492633 h -1.203508 v -1.13614 h -1.13614 V 34.94456 H 10.414108 V 23.850525 h 3.542457 m -2.339648,8.220353 h 1.13614 v -7.084213 h -1.13614 v 7.084213"
     id="path6" />
  <path
     inkscape:connector-curvature="0"
     style="opacity:0.2;stroke-width:0.70175439"
     d="m 4.800075,41.53544 v 0.701755 c 0,0 0.01075,1.762805 2.11621,1.762805 H 31.46674 V 43.298245 H 6.916285 c -2.105403,0 -2.11621,-1.762805 -2.11621,-1.762805 z"
     id="path8" />
  <path
     inkscape:connector-curvature="0"
     style="fill:#a3a3a3;stroke-width:0.70175439"
     d="M 31.461125,16.63158 17.42604,4 v 26.666665 l 14.035085,12.63158 z"
     id="path10" />
  <path
     inkscape:connector-curvature="0"
     style="fill:#2095f2;stroke-width:0.70175439"
     d="M 17.431655,4.0007025 V 30.666665 h 24.55228 c 2.10456,0 2.114385,-1.763507 2.114385,-1.763507 L 44.08852,6.105195 c 0,0 0,-2.105195 -2.10456,-2.105195 z"
     id="path12" />
  <path
     inkscape:connector-curvature="0"
     style="opacity:0.2;stroke-width:0.70175439"
     d="m 28.955162,19.438597 c 0.597193,-2.149475 1.138945,-4.383157 1.586665,-6.315792 h 0.09475 c 0.556493,2.301757 1.059651,4.11439 1.610528,6.315792 h -3.291937 m 4.950175,6.315788 h 3.694035 L 32.769197,10.315787 h -4.19158 l -4.830175,15.438598 h 3.55158 l 0.947365,-3.50877 h 4.712283 l 0.94737,3.50877"
     id="path14" />
  <path
     inkscape:connector-curvature="0"
     style="fill:#ffffff;stroke-width:0.70175439"
     d="m 28.955162,18.736843 c 0.597193,-2.149476 1.138945,-4.38316 1.586665,-6.31579 h 0.09475 c 0.556493,2.301752 1.059651,4.114387 1.610528,6.31579 h -3.291937 m 4.950175,6.31579 h 3.694035 L 32.769197,9.614035 h -4.19158 l -4.830175,15.438598 h 3.55158 l 0.947365,-3.508773 h 4.712283 l 0.94737,3.508773"
     id="path16" />
  <path
     inkscape:connector-curvature="0"
     style="opacity:0.4;fill:#ffffff;stroke-width:0.70175439"
     d="m 17.431655,4 v 0.701755 h 24.561403 c 2.105262,0 2.105262,2.1052625 2.105262,2.1052625 v -0.701755 c 0,0 0,-2.1052625 -2.105262,-2.1052625 z"
     id="path18" />
  <path
     inkscape:connector-curvature="0"
     style="opacity:0.2;stroke-width:0.70175439"
     d="m 44.09832,28.909475 c 0,0.01675 -0.02175,1.75719 -2.116492,1.75719 H 17.431655 v 0.701755 h 24.550173 c 2.094737,0 2.116492,-1.740347 2.116492,-1.757192 z"
     id="path20" />
</svg>
