<?xml version="1.0" encoding="UTF-8" standalone="no"?>
<svg
   xmlns:dc="http://purl.org/dc/elements/1.1/"
   xmlns:cc="http://creativecommons.org/ns#"
   xmlns:rdf="http://www.w3.org/1999/02/22-rdf-syntax-ns#"
   xmlns:svg="http://www.w3.org/2000/svg"
   xmlns="http://www.w3.org/2000/svg"
   xmlns:xlink="http://www.w3.org/1999/xlink"
   xmlns:sodipodi="http://sodipodi.sourceforge.net/DTD/sodipodi-0.dtd"
   xmlns:inkscape="http://www.inkscape.org/namespaces/inkscape"
   width="512"
   height="512"
   version="1.1"
   viewBox="0 0 384 384"
   id="svg31"
   sodipodi:docname="update-manager.svg"
   inkscape:version="0.92.4 5da689c313, 2019-01-14">
  <metadata
     id="metadata35">
    <rdf:RDF>
      <cc:Work
         rdf:about="">
        <dc:format>image/svg+xml</dc:format>
        <dc:type
           rdf:resource="http://purl.org/dc/dcmitype/StillImage" />
        <dc:title></dc:title>
      </cc:Work>
    </rdf:RDF>
  </metadata>
  <sodipodi:namedview
     pagecolor="#ffffff"
     bordercolor="#666666"
     borderopacity="1"
     objecttolerance="10"
     gridtolerance="10"
     guidetolerance="10"
     inkscape:pageopacity="0"
     inkscape:pageshadow="2"
     inkscape:window-width="1366"
     inkscape:window-height="716"
     id="namedview33"
     showgrid="false"
     inkscape:zoom="0.65186406"
     inkscape:cx="326.87378"
     inkscape:cy="276.15045"
     inkscape:window-x="0"
     inkscape:window-y="19"
     inkscape:window-maximized="1"
     inkscape:current-layer="svg31" />
  <defs
     id="defs19">
    <linearGradient
       gradientTransform="matrix(1.0491071,0,0,1.0491071,-9.4285714,-9.428571)"
       gradientUnits="userSpaceOnUse"
       y2="13.017"
       y1="248.95"
       x2="312.41"
       x1="79.729"
       id="linearGradient856">
      <stop
         id="stop852"
         offset="0"
         stop-color="#357aef"
         style="stop-color:#dcdcdc;stop-opacity:1" />
      <stop
         id="stop854"
         offset="1"
         stop-color="#49ade5"
         style="stop-color:#f0f0f0;stop-opacity:1" />
    </linearGradient>
    <clipPath
       id="clipPath4">
      <rect
         width="384"
         height="384"
         id="rect2" />
    </clipPath>
    <clipPath
       id="clipPath8">
      <rect
         width="384"
         height="384"
         id="rect6" />
    </clipPath>
    <clipPath
       id="clipPath12">
      <rect
         width="384"
         height="384"
         id="rect10" />
    </clipPath>
    <linearGradient
       id="a"
       x1="79.729"
       x2="312.41"
       y1="248.95"
       y2="13.017"
       gradientUnits="userSpaceOnUse"
       gradientTransform="matrix(1.0491071,0,0,1.0491071,-9.4285714,-9.428571)">
      <stop
         stop-color="#357aef"
         offset="0"
         id="stop14"
         style="stop-color:#0066cc;stop-opacity:1" />
      <stop
         stop-color="#49ade5"
         offset="1"
         id="stop16"
         style="stop-color:#0099ff;stop-opacity:1" />
    </linearGradient>
    <linearGradient
       inkscape:collect="always"
       xlink:href="#a"
       id="linearGradient848"
       x1="119.44475"
       y1="272.52649"
       x2="223.32686"
       y2="153.12556"
       gradientUnits="userSpaceOnUse"
       gradientTransform="matrix(1,0,0,0.98662669,0,1.0512144)" />
    <linearGradient
       inkscape:collect="always"
       xlink:href="#linearGradient856"
       id="linearGradient850"
       gradientUnits="userSpaceOnUse"
       gradientTransform="matrix(1.0491071,0,0,1.0491071,-9.4285714,-9.428571)"
       x1="191.39781"
       y1="345.10925"
       x2="194.53737"
       y2="39.383247" />
  </defs>
  <path
     d="M 368.25,192 C 368.25,94.66279 289.34141,15.75 192,15.75 94.66279,15.75 15.75,94.658594 15.75,192 c 0,97.33721 78.90859,176.25 176.25,176.25 97.33721,0 176.25,-78.90859 176.25,-176.25 z"
     id="path21"
     style="fill:url(#linearGradient850);stroke-width:1.04910719"
     inkscape:connector-curvature="0" />
  <path
     d="m 169.60041,297.89115 c -6.18428,0 -8.84555,-3.65961 -8.92203,-8.19259 V 159.49387 h -46.98636 l 78.30536,-74.520176 78.3106,74.520176 h -46.98112 v 130.20469 c 0,4.54337 -2.77342,8.19605 -8.96283,8.19605 h -44.76331 z"
     id="path23"
     inkscape:connector-curvature="0"
     style="opacity:1;fill:#ffffff;fill-opacity:1;stroke-width:1.04910719" />
  <path
     d="m 169.60041,288.67543 c -6.18428,0 -8.84555,-3.61066 -8.92203,-8.08302 V 152.12899 h -46.98636 l 78.30536,-73.523598 78.3106,73.523598 h -46.98112 v 128.46342 c 0,4.48261 -2.77342,8.08643 -8.96283,8.08643 h -44.76331 z"
     id="path25"
     inkscape:connector-curvature="0"
     style="fill:url(#linearGradient848);fill-opacity:1;stroke-width:1.0420686" />
  <path
     d="m 15.808225,188.07372 c -0.02867,1.3085 -0.05071,2.6188 -0.05071,3.93415 0,97.33878 78.911215,176.24213 176.249995,176.24213 97.33879,0 176.24213,-78.91122 176.24213,-176.24213 0,-1.31535 -0.0205,-2.62565 -0.0492,-3.93415 -2.09297,95.5212 -80.17802,172.30798 -176.19493,172.30798 -96.02477,0 -174.101945,-76.7915 -176.194914,-172.30798 z"
     id="path27"
     inkscape:connector-curvature="0"
     style="opacity:0.3;stroke-width:1.04908097" />
  <path
     d="m 192.00787,15.757868 c -97.33879,0 -176.250002,78.911217 -176.250002,176.250002 0,1.31534 0.02204,2.62565 0.05071,3.93415 C 17.901551,100.42082 95.9866,23.626172 192.0035,23.626172 c 96.02478,0 174.10196,76.793068 176.19493,172.315848 0.0287,-1.3085 0.0492,-2.61881 0.0492,-3.93415 0,-97.338785 -78.91121,-176.250002 -176.24213,-176.250002 z"
     id="path29"
     inkscape:connector-curvature="0"
     style="opacity:0.6;fill:#ffffff;stroke-width:1.04908097" />
</svg>
