<?xml version="1.0" encoding="UTF-8" standalone="no"?>
<svg
   xmlns:dc="http://purl.org/dc/elements/1.1/"
   xmlns:cc="http://creativecommons.org/ns#"
   xmlns:rdf="http://www.w3.org/1999/02/22-rdf-syntax-ns#"
   xmlns:svg="http://www.w3.org/2000/svg"
   xmlns="http://www.w3.org/2000/svg"
   xmlns:sodipodi="http://sodipodi.sourceforge.net/DTD/sodipodi-0.dtd"
   xmlns:inkscape="http://www.inkscape.org/namespaces/inkscape"
   width="512"
   height="512"
   version="1.1"
   viewBox="0 0 384 384"
   id="svg12"
   sodipodi:docname="whatsapp.svg"
   inkscape:version="0.92.4 5da689c313, 2019-01-14">
  <metadata
     id="metadata18">
    <rdf:RDF>
      <cc:Work
         rdf:about="">
        <dc:format>image/svg+xml</dc:format>
        <dc:type
           rdf:resource="http://purl.org/dc/dcmitype/StillImage" />
      </cc:Work>
    </rdf:RDF>
  </metadata>
  <defs
     id="defs16">
    <linearGradient
       id="linearGradient2630"
       x2="1"
       gradientTransform="matrix(0,-354.07434,354.07434,0,191.99996,369.06486)"
       gradientUnits="userSpaceOnUse">
      <stop
         stop-color="#f9f9f9"
         offset="0"
         id="stop963" />
      <stop
         stop-color="#fff"
         offset="1"
         id="stop965" />
    </linearGradient>
    <linearGradient
       id="linearGradient2628"
       x2="1"
       gradientTransform="matrix(0,-341.82127,341.82127,0,191.99898,362.89285)"
       gradientUnits="userSpaceOnUse">
      <stop
         stop-color="#20b038"
         offset="0"
         id="stop958" />
      <stop
         stop-color="#60d66a"
         offset="1"
         id="stop960" />
    </linearGradient>
  </defs>
  <sodipodi:namedview
     pagecolor="#ffffff"
     bordercolor="#666666"
     borderopacity="1"
     objecttolerance="10"
     gridtolerance="10"
     guidetolerance="10"
     inkscape:pageopacity="0"
     inkscape:pageshadow="2"
     inkscape:window-width="1366"
     inkscape:window-height="710"
     id="namedview14"
     showgrid="false"
     inkscape:zoom="0.4609375"
     inkscape:cx="249.49153"
     inkscape:cy="256"
     inkscape:window-x="0"
     inkscape:window-y="25"
     inkscape:window-maximized="1"
     inkscape:current-layer="svg12" />
  <path
     inkscape:connector-curvature="0"
     style="fill:#ffffff;stroke-width:5.05907202"
     d="m 113.10378,312.85867 5.32926,3.15901 c 22.393,13.28921 48.06628,20.31721 74.24696,20.33144 h 0.0547 c 80.40386,0 145.84286,-65.4239 145.87329,-145.8328 0.0109,-38.9696 -15.14534,-75.60784 -42.68701,-103.17479 -27.54407,-27.5618 -64.16469,-42.75114 -103.13473,-42.76734 -80.4646,0 -145.90371,65.41383 -145.93403,145.82272 -0.0106,27.55426 7.69738,54.39009 22.30194,77.60615 l 3.47126,5.51838 -14.74016,53.81341 z m -97.3517,56.16075 24.89871,-90.91659 C 25.29301,251.49421 17.21365,221.3097 17.22624,190.38871 17.25907,93.64914 95.991,14.94512 192.74063,14.94512 c 46.94728,0.0219 91.01279,18.29154 124.14967,51.45579 33.13338,33.163804 51.3749,77.24704 51.35969,124.12942 -0.0438,96.73453 -78.7849,175.45365 -175.50936,175.45365 -0.007,0 0.004,0 0,0 h -0.0766 c -29.37296,-0.01 -58.2349,-7.37812 -83.86921,-21.35937 z"
     id="path976" />
  <path
     inkscape:connector-curvature="0"
     style="fill:url(#linearGradient2628);stroke-width:5.05907202"
     d="m 23.2749,190.47977 c -0.0106,29.84796 7.78844,58.98877 22.61813,84.67869 l -24.03866,87.76984 89.81871,-23.55141 c 24.74701,13.48545 52.60936,20.60451 80.96544,20.6137 h 0.0766 c 93.38037,0 169.38781,-75.98729 169.4283,-169.37784 0.0219,-45.25894 -17.59041,-87.81023 -49.58148,-119.8291 C 280.57613,38.76927 238.03688,21.12884 192.70757,21.10761 99.32216,21.10761 23.31472,97.084726 23.27423,190.4802 m 169.43816,169.5093 h 0.002 -0.002 c -0.002,0 -0.003,0 0,0"
     id="path978" />
  <path
     inkscape:connector-curvature="0"
     style="fill:url(#linearGradient2630);stroke-width:5.05907202"
     d="m 17.22427,190.4292 c -0.0106,30.92056 8.06874,61.10846 23.42652,87.71413 L 15.75,369.05488 108.79141,344.65952 c 25.63585,13.97972 54.49637,21.34723 83.86932,21.35937 h 0.0766 c 96.72445,0 175.46886,-78.71912 175.50936,-175.45364 0.0219,-46.8849 -18.22555,-90.967155 -51.35947,-124.12943 -33.13863,-33.16216 -77.20119,-51.43553 -124.14934,-51.45578 -96.7446,0 -175.4739,78.70402 -175.5144,175.44358 m 55.40698,83.13569 -3.47313,-5.51641 C 54.5528,244.82378 46.8448,217.98849 46.85541,190.43675 46.88825,110.03289 112.32495,44.61403 192.78945,44.61403 c 38.96598,0.0109 75.58759,15.20608 103.13429,42.76734 27.54353,27.56334 42.69948,64.20476 42.68887,103.16976 -0.0328,80.40889 -65.47447,145.83279 -145.87833,145.83279 h -0.0547 c -26.18013,-0.011 -51.85549,-7.04278 -74.24696,-20.3299 l -5.32827,-3.15901 -55.21478,14.47606 z m 120.10742,92.45958 h 0.002 -0.002 c -0.002,0 -0.004,0 0,0"
     id="path980" />
  <path
     inkscape:connector-curvature="0"
     style="fill:#ffffff;fill-rule:evenodd;stroke-width:5.05907202"
     d="m 148.87147,117.0726 c -3.28574,-7.30326 -6.74278,-7.44948 -9.86774,-7.57797 -2.55748,-0.10945 -5.48248,-0.0985 -8.4041,-0.0985 -2.92522,0 -7.67615,1.09765 -11.69356,5.48609 -4.02102,4.38866 -15.35022,14.99704 -15.35022,36.57246 0,21.57751 15.71644,42.42641 17.90606,45.35514 2.19334,2.92336 30.33873,48.61615 74.90967,66.19288 37.0456,14.60806 44.58407,11.70264 52.62447,10.97065 8.0404,-0.73002 25.94646,-10.60487 29.59962,-20.8454 3.65514,-10.2391 3.65514,-19.01609 2.55923,-20.84902 -1.09579,-1.82756 -4.02091,-2.92511 -8.40606,-5.1167 -4.38691,-2.19346 -25.94646,-12.80348 -29.9654,-14.26713 -4.02102,-1.46168 -6.9446,-2.1917 -9.86983,2.19882 -2.92336,4.38504 -11.3222,14.26001 -13.88154,17.18512 -2.55748,2.93059 -5.1167,3.29647 -9.50197,1.10291 -4.3869,-2.20045 -18.51109,-6.82661 -35.2663,-21.76455 -13.03715,-11.62373 -21.83799,-25.97842 -24.39733,-30.36915 -2.55748,-4.38505 -0.27253,-6.7604 1.92574,-8.94696 1.9704,-1.96503 4.3869,-5.12032 6.58036,-7.67966 2.18798,-2.56108 2.918,-4.38865 4.37968,-7.31387 1.46354,-2.92698 0.73221,-5.48807 -0.36446,-7.68174 -1.09755,-2.19345 -9.61985,-23.87986 -13.51938,-32.55155"
     id="path982" />
</svg>
