<?xml version="1.0" encoding="UTF-8" standalone="no"?>
<svg
   xmlns:dc="http://purl.org/dc/elements/1.1/"
   xmlns:cc="http://creativecommons.org/ns#"
   xmlns:rdf="http://www.w3.org/1999/02/22-rdf-syntax-ns#"
   xmlns:svg="http://www.w3.org/2000/svg"
   xmlns="http://www.w3.org/2000/svg"
   xmlns:sodipodi="http://sodipodi.sourceforge.net/DTD/sodipodi-0.dtd"
   xmlns:inkscape="http://www.inkscape.org/namespaces/inkscape"
   width="512"
   height="512"
   version="1.1"
   viewBox="0 0 384 384"
   id="svg36"
   sodipodi:docname="winetricks.svg"
   inkscape:version="0.92.4 5da689c313, 2019-01-14">
  <metadata
     id="metadata42">
    <rdf:RDF>
      <cc:Work
         rdf:about="">
        <dc:format>image/svg+xml</dc:format>
        <dc:type
           rdf:resource="http://purl.org/dc/dcmitype/StillImage" />
      </cc:Work>
    </rdf:RDF>
  </metadata>
  <defs
     id="defs40" />
  <sodipodi:namedview
     pagecolor="#ffffff"
     bordercolor="#666666"
     borderopacity="1"
     objecttolerance="10"
     gridtolerance="10"
     guidetolerance="10"
     inkscape:pageopacity="0"
     inkscape:pageshadow="2"
     inkscape:window-width="1366"
     inkscape:window-height="710"
     id="namedview38"
     showgrid="false"
     inkscape:zoom="0.65186406"
     inkscape:cx="131.43813"
     inkscape:cy="236.30772"
     inkscape:window-x="0"
     inkscape:window-y="25"
     inkscape:window-maximized="1"
     inkscape:current-layer="svg36" />
  <path
     inkscape:connector-curvature="0"
     style="fill:#d41717;fill-opacity:1;stroke-width:4.03664017"
     d="m 15.750004,65.267665 144.055566,-19.61888 0.063,138.953255 -143.986946,0.81993 z M 159.73694,200.61216 159.84879,339.68653 15.861844,319.89041 15.856844,199.67926 Z M 177.19984,43.082285 368.2056,15.205255 V 182.8348 l -191.00576,1.51632 z M 368.25,201.92004 l -0.0447,166.8747 -191.00575,-26.9583 -0.2676,-140.22885 z"
     id="path2-0" />
  <path
     d="m384 294c0 49.706-40.294 90-90 90-49.706 0-90-40.294-90-90s40.294-90 90-90 90 40.294 90 90z"
     fill="#09172d"
     opacity=".3"
     stroke-width=".97425"
     id="path10" />
  <path
     d="m384 286.5c0 49.706-40.294 90-90 90s-90-40.294-90-90 40.294-90 90-90 90 40.294 90 90z"
     fill="#2359b0"
     stroke-width=".97425"
     id="path12" />
  <g
     transform="translate(28.31 -15.268)"
     stroke-width=".69937"
     id="g32">
    <path
       d="m290.5 256.77c3.7181 0 6.7287 3.423 6.7287 7.6469v74.706c0 4.2235-3.0106 7.6469-6.7287 7.6469-3.7154 0-6.7259-3.423-6.7259-7.6469v-74.706c0-4.2235 3.0106-7.6469 6.7259-7.6469z"
       fill="#fff"
       fill-rule="evenodd"
       id="path14" />
    <path
       inkscape:connector-curvature="0"
       style="fill:#d41717;fill-opacity:1;fill-rule:evenodd;stroke-width:0.88490129"
       d="m 290.60385,276.1664 c 3.7181,0 6.7287,2.68039 6.7287,5.98791 v 58.49856 c 0,3.30722 -3.0106,5.98791 -6.7287,5.98791 -3.7154,0 -6.7259,-2.68038 -6.7259,-5.98791 v -58.49856 c 0,-3.30721 3.0106,-5.98791 6.7259,-5.98791 z"
       id="path26-0-2"
       inkscape:transform-center-x="-1.220339"
       inkscape:transform-center-y="0.40677966" />
    <path
       d="m303.02 285.74c0-6.6222-5.3682-11.991-11.991-11.991-6.6224 0-11.991 5.3682-11.991 11.991s5.3682 11.993 11.991 11.993c6.6224 0 11.991-5.3709 11.991-11.993z"
       opacity=".3"
       id="path16" />
    <path
       d="m303.02 282.6c0-6.6222-5.3682-11.991-11.991-11.991-6.6224 0-11.991 5.3682-11.991 11.991 0 6.6224 5.3682 11.993 11.991 11.993 6.6224 0 11.991-5.3709 11.991-11.993z"
       fill="#d41717"
       id="path18" />
    <path
       d="m265.54 256.77c3.7181 0 6.7287 3.423 6.7287 7.6469v74.706c0 4.2235-3.0106 7.6469-6.7287 7.6469-3.7154 0-6.7259-3.423-6.7259-7.6469v-74.706c0-4.2235 3.0106-7.6469 6.7259-7.6469z"
       fill="#fff"
       fill-rule="evenodd"
       id="path20" />
    <path
       inkscape:connector-curvature="0"
       style="fill:#d41717;fill-opacity:1;fill-rule:evenodd;stroke-width:0.65956575"
       d="m 265.7903,307.89521 c 3.7181,0 6.7287,1.48911 6.7287,3.32661 v 32.49913 c 0,1.83734 -3.0106,3.32661 -6.7287,3.32661 -3.7154,0 -6.7259,-1.4891 -6.7259,-3.32661 v -32.49913 c 0,-1.83733 3.0106,-3.32661 6.7259,-3.32661 z"
       id="path26-0-8" />
    <path
       d="m277.34 311.95c0-6.6249-5.3682-11.993-11.993-11.993-6.6222 0-11.991 5.3682-11.991 11.993 0 6.6222 5.3682 11.991 11.991 11.991 6.6248 0 11.993-5.3682 11.993-11.991z"
       opacity=".3"
       id="path22" />
    <path
       d="m277.34 308.8c0-6.6249-5.3682-11.993-11.993-11.993-6.6222 0-11.991 5.3682-11.991 11.993 0 6.6222 5.3682 11.991 11.991 11.991 6.6248 0 11.993-5.3682 11.993-11.991z"
       fill="#d41717"
       id="path24" />
    <path
       d="m240.54 256.77c3.7181 0 6.7287 3.423 6.7287 7.6469v74.706c0 4.2235-3.0106 7.6469-6.7287 7.6469-3.7154 0-6.7259-3.423-6.7259-7.6469v-74.706c0-4.2235 3.0106-7.6469 6.7259-7.6469z"
       fill="#fff"
       fill-rule="evenodd"
       id="path26" />
    <path
       inkscape:connector-curvature="0"
       style="fill:#d41717;fill-opacity:1;fill-rule:evenodd;stroke-width:0.88490129"
       d="m 240.54,276.29542 c 3.7181,0 6.7287,2.68039 6.7287,5.98791 v 58.49856 c 0,3.30722 -3.0106,5.98791 -6.7287,5.98791 -3.7154,0 -6.7259,-2.68038 -6.7259,-5.98791 v -58.49856 c 0,-3.30721 3.0106,-5.98791 6.7259,-5.98791 z"
       id="path26-0" />
    <path
       d="m252.34 278.2c0-6.6222-5.3682-11.991-11.991-11.991-6.6249 0-11.993 5.3682-11.993 11.991 0 6.6249 5.3682 11.993 11.993 11.993 6.6222 0 11.991-5.3682 11.991-11.993z"
       opacity=".3"
       id="path28" />
    <path
       d="m252.34 275.06c0-6.6222-5.3682-11.991-11.991-11.991-6.6249 0-11.993 5.3682-11.993 11.991 0 6.6249 5.3682 11.993 11.993 11.993 6.6222 0 11.991-5.3682 11.991-11.993z"
       fill="#d41717"
       id="path30" />
  </g>
</svg>
