<?xml version="1.0" encoding="UTF-8" standalone="no"?>
<svg
   xmlns:dc="http://purl.org/dc/elements/1.1/"
   xmlns:cc="http://creativecommons.org/ns#"
   xmlns:rdf="http://www.w3.org/1999/02/22-rdf-syntax-ns#"
   xmlns:svg="http://www.w3.org/2000/svg"
   xmlns="http://www.w3.org/2000/svg"
   xmlns:xlink="http://www.w3.org/1999/xlink"
   xmlns:sodipodi="http://sodipodi.sourceforge.net/DTD/sodipodi-0.dtd"
   xmlns:inkscape="http://www.inkscape.org/namespaces/inkscape"
   width="512"
   height="512"
   version="1.1"
   viewBox="0 0 384 384"
   id="svg66"
   sodipodi:docname="winemine.svg"
   inkscape:version="0.92.4 5da689c313, 2019-01-14">
  <metadata
     id="metadata70">
    <rdf:RDF>
      <cc:Work
         rdf:about="">
        <dc:format>image/svg+xml</dc:format>
        <dc:type
           rdf:resource="http://purl.org/dc/dcmitype/StillImage" />
      </cc:Work>
    </rdf:RDF>
  </metadata>
  <sodipodi:namedview
     pagecolor="#ffffff"
     bordercolor="#666666"
     borderopacity="1"
     objecttolerance="10"
     gridtolerance="10"
     guidetolerance="10"
     inkscape:pageopacity="0"
     inkscape:pageshadow="2"
     inkscape:window-width="1366"
     inkscape:window-height="710"
     id="namedview68"
     showgrid="false"
     inkscape:zoom="0.4609375"
     inkscape:cx="27.118644"
     inkscape:cy="256"
     inkscape:window-x="0"
     inkscape:window-y="25"
     inkscape:window-maximized="1"
     inkscape:current-layer="svg66" />
  <defs
     id="defs18">
    <filter
       id="alpha"
       x="0%"
       y="0%"
       width="100%"
       height="100%">
      <feColorMatrix
         in="SourceGraphic"
         values="0 0 0 0 1 0 0 0 0 1 0 0 0 0 1 0 0 0 1 0"
         id="feColorMatrix2" />
    </filter>
    <mask
       id="b">
      <g
         filter="url(#alpha)"
         id="g7">
        <rect
           width="384"
           height="384"
           fill-opacity=".031372"
           id="rect5" />
      </g>
    </mask>
    <linearGradient
       id="a"
       x1="69.594"
       x2="502.74"
       y1="415.77"
       y2="77.069"
       gradientTransform="matrix(.65668 0 0 .65668 33.41 -318.26)"
       gradientUnits="userSpaceOnUse">
      <stop
         stop-color="#fc4848"
         stop-opacity=".99608"
         offset="0"
         id="stop10" />
      <stop
         stop-color="#b7164b"
         stop-opacity=".99608"
         offset="1"
         id="stop12" />
    </linearGradient>
    <clipPath
       id="i">
      <rect
         width="384"
         height="384"
         id="rect15" />
    </clipPath>
  </defs>
  <path
     d="m63.995 23.25h256.01c22.504 0 40.746 22.324 40.746 49.867v237.77c0 27.543-18.242 49.867-40.746 49.867h-256.01c-22.504 0-40.746-22.324-40.746-49.867v-237.77c0-27.543 18.242-49.867 40.746-49.867z"
     fill="#f0f0f0"
     id="path20" />
  <g
     transform="translate(375.05 -286.77)"
     opacity=".3"
     id="g24">
    <path
       d="m-311.06 317.52c-22.504 0-40.746 22.323-40.746 49.866v110.75h160.62v-160.62z"
       id="path22" />
  </g>
  <path
     d="m63.995 23.25c-22.504 0-40.746 22.323-40.746 49.866v110.75h160.62v-160.62z"
     fill="#fff"
     id="path26" />
  <path
     d="m23.249 200.14v95.744c0 0.0466 0.0029 0.0926 0.0029 0.13916v-0.13476c0 2.5821 0.15962 5.1189 0.46875 7.5952 0.10293 0.82391 0.22198 1.6406 0.35743 2.4507 0 1e-3 0.0015 5e-3 0.0015 6e-3 0.77919 4.6605 2.0977 9.0782 3.8584 13.166 0.07839 0.18192 0.14978 0.36874 0.22998 0.54931 0.12837 0.28932 0.26847 0.56965 0.40137 0.85547 0.19168 0.41218 0.37767 0.82868 0.57861 1.2334 9.97e-4 3e-3 0.0022 2e-3 0.0029 4e-3 0.33957 0.68382 0.69235 1.3568 1.0576 2.0186 0.27215 0.4931 0.55775 0.97426 0.84375 1.4546 0.0986 0.16561 0.19126 0.33693 0.29151 0.50097 9.97e-4 1e-3 0.0036 2e-3 0.0044 4e-3 0.39058 0.63903 0.79388 1.2661 1.2085 1.8809 6.15e-4 1e-3 -2.25e-4 2e-3 0 3e-3 0.41426 0.61419 0.83995 1.2157 1.2773 1.8047 9.98e-4 9.9e-4 0.0022 4e-3 0.0029 6e-3 0.87596 1.1792 1.7976 2.3075 2.7612 3.3794 0.0023 1e-3 0.0022 5e-3 0.0029 6e-3 7.2355 8.0464 16.847 12.949 27.394 12.949h119.87v-145.62zm8.0977 133.09c0.39058 0.63902 0.79388 1.2661 1.2085 1.8809 6.08e-4 7.5e-4 7.13e-4 2e-3 0.0015 3e-3 -2.48e-4 -1e-3 6.15e-4 -2e-3 0-3e-3 -0.41462-0.61479-0.81791-1.2418-1.2085-1.8809-1.65e-4 -5e-4 -0.0012 4.1e-4 -0.0015 0z"
     fill="#fff"
     id="path28" />
  <path
     d="m63.995 23.25c-22.504 0-40.746 22.324-40.746 49.868v7.5c0-27.543 18.242-49.868 40.746-49.868h256.01c22.504 0 40.746 22.324 40.746 49.868v-7.5c0-27.543-18.242-49.868-40.746-49.868z"
     opacity=".1"
     stroke-width=".99997"
     id="path30" />
  <path
     d="m73.052 58.559v90h11.378v-34.121l49.631-24.34z"
     opacity=".3"
     stroke-width="2.7732"
     id="path32" />
  <path
     d="m77.231 325.44h57.19v-19.193h-17.378v-70.807h-13.357l-30.994 17.896 8.4294 16.081 13.487-7.0029v43.833h-17.378z"
     opacity=".3"
     id="path34" />
  <g
     transform="matrix(.81402 0 0 .81402 307.68 -64.535)"
     aria-label="1"
     id="g38">
    <path
       d="m-283.1 469.87h70.257v-23.578h-21.348v-86.984h-16.409l-38.076 21.985 10.355 19.755 16.568-8.6029v53.848h-21.348z"
       fill="#265ab1"
       stroke-width="3.9828"
       id="path36" />
  </g>
  <path
     d="m273.81 52.582c-4.7585 0-4.7655 1e-3 -5.0069 0.96145-0.13365 0.53031-0.79328 4.5484-1.4673 8.9317l-1.2273 7.9689-3.4003 0.90252c-3.7755 1.0031-8.9133 3.1172-11.118 4.5771-0.79189 0.52313-1.6312 0.95281-1.8654 0.95281s-2.8269-1.4759-5.76-3.2781c-2.9318-1.8022-5.5646-3.3658-5.849-3.475-0.58925-0.22563-9.0064 8.0208-8.7191 8.5425 0.10204 0.18108 1.6843 2.7895 3.5196 5.7931 1.8352 3.0051 3.3356 5.6551 3.3356 5.8895 0 0.23425-0.42828 1.0736-0.95138 1.864-1.4602 2.206-3.5742 7.3438-4.576 11.119l-0.90395 3.4003-7.9689 1.2259c-4.3833 0.67544-8.403 1.3351-8.9317 1.4688-0.96002 0.24143-0.96145 0.24862-0.96145 5.0068 0 3.3457 0.14371 4.8832 0.48144 5.1592 0.26588 0.21701 4.2828 0.97584 8.9291 1.6872l8.4461 1.2906 0.87378 3.2781c0.98014 3.6748 3.0568 8.7393 4.5643 11.128 0.54899 0.86947 0.99879 1.7749 0.99879 2.0077 0 0.23425-1.4745 2.8254-3.2767 5.7585s-3.3658 5.5661-3.475 5.8505c-0.22563 0.58781 8.0208 9.0064 8.5425 8.7191 0.18108-0.10061 2.7766-1.6829 5.7673-3.5181 2.9907-1.8367 5.6408-3.3385 5.8895-3.3385 0.24871 0 1.1627 0.44985 2.0335 1.0003 2.3885 1.5061 7.4516 3.5842 11.128 4.5643l3.2767 0.87378 1.292 8.4461c0.71139 4.6448 1.4688 8.6631 1.6858 8.9291 0.27593 0.33485 1.7691 0.48145 4.9281 0.48145s4.6522-0.14659 4.9281-0.48145c0.21701-0.26587 0.97437-4.2843 1.6858-8.9291l1.292-8.4461 3.2767-0.87378c3.6762-0.98014 8.7393-3.0582 11.128-4.5643 0.87091-0.55043 1.8036-0.99449 2.0724-0.9902 0.26875 6e-3 2.9907 1.5593 6.0462 3.452 4.0658 2.5179 5.7213 3.3514 6.1698 3.1071 1.0333-0.56047 8.2132-8.0524 8.0336-8.3813-0.092-0.16959-1.6685-2.755-3.5037-5.7442-1.8367-2.9907-3.337-5.6408-3.337-5.8895 0-0.24719 0.44984-1.1641 0.99879-2.0336 1.5076-2.3885 3.5842-7.4531 4.5643-11.128l0.87378-3.2781 8.4461-1.2906c4.6463-0.71138 8.6631-1.4702 8.9291-1.6872 0.33485-0.27449 0.48144-1.7677 0.48144-4.9267s-0.14658-4.6533-0.48144-4.9281c-0.26587-0.21701-4.2828-0.97436-8.9291-1.6858l-8.4461-1.292-0.87378-3.2781c-0.98015-3.6748-3.0568-8.7393-4.5643-11.126-0.54899-0.87091-0.99879-1.7864-0.99879-2.0335 0-0.24863 1.5004-2.8987 3.337-5.8895 1.8352-2.9893 3.419-5.5863 3.5181-5.7673 0.28743-0.5217-8.13-8.768-8.719-8.5425-0.28455 0.10922-2.9174 1.6728-5.849 3.475-2.9332 1.8022-5.526 3.2781-5.76 3.2781-0.23282 0-1.1368-0.45128-2.0077-1.0003-2.3885-1.5076-7.4516-3.5842-11.128-4.5643l-3.2767-0.87378-1.292-8.4461c-0.71139-4.6463-1.4688-8.6631-1.6858-8.9291-0.27738-0.33773-1.8151-0.48145-5.1606-0.48145zm0.60645 54.62c0.92121 0.0244 1.8295 0.20551 2.6616 0.55473 3.958 1.6527 5.7456 6.3118 3.9307 10.244-0.84935 1.8395-2.0522 2.9964-3.9307 3.7825-2.7866 1.1641-6.5793 0.38947-8.5395-1.7433-2.7219-2.9605-2.5696-8.2062 0.31617-10.859 1.4529-1.3351 3.5354-2.035 5.5617-1.9789z"
     fill="#811035"
     stroke-width=".36791"
     id="path40" />
  <g
     transform="matrix(.42019 0 0 .42019 189.37 170.25)"
     id="g44">
    <path
       d="m200.97-297.91c-11.325 0-11.341 3e-3 -11.916 2.2881-0.31808 1.262-1.8879 10.825-3.492 21.256l-2.9208 18.965-8.0922 2.1479c-8.9851 2.3873-21.213 7.4185-26.459 10.893-1.8846 1.245-3.8819 2.2676-4.4394 2.2676-0.55749 0-6.7276-3.5125-13.708-7.8015-6.9773-4.2889-13.243-8.0101-13.92-8.2701-1.4023-0.53697-21.434 19.088-20.75 20.33 0.24283 0.43095 4.0085 6.6386 8.3761 13.787 4.3676 7.1517 7.9383 13.458 7.9383 14.016 0 0.55749-1.0193 2.5549-2.2642 4.436-3.475 5.25-8.506 17.477-10.89 26.462l-2.1513 8.0922-18.965 2.9174c-10.432 1.6075-19.998 3.1774-21.256 3.4955-2.2847 0.57459-2.2881 0.59169-2.2881 11.916 0 7.9623 0.34202 11.621 1.1458 12.278 0.63274 0.51646 10.193 2.3224 21.25 4.0153l20.101 3.0713 2.0795 7.8015c2.3326 8.7455 7.2748 20.798 10.862 26.483 1.3065 2.0692 2.377 4.2239 2.377 4.778 0 0.55748-3.5091 6.7241-7.798 13.704-4.2889 6.9803-8.0101 13.247-8.27 13.923-0.53697 1.3989 19.088 21.434 20.33 20.75 0.43095-0.23942 6.6079-4.005 13.725-8.3727 7.1174-4.371 13.424-7.9451 14.016-7.9451 0.59189 0 2.767 1.0706 4.8396 2.3805 5.6844 3.5844 17.734 8.53 26.483 10.862l7.798 2.0795 3.0748 20.101c1.693 11.054 3.4955 20.617 4.0119 21.25 0.65668 0.79691 4.2103 1.1458 11.728 1.1458 7.518 0 11.072-0.34886 11.728-1.1458 0.51645-0.63274 2.3189-10.196 4.0119-21.25l3.0748-20.101 7.798-2.0795c8.7489-2.3326 20.798-7.2782 26.483-10.862 2.0727-1.3099 4.2924-2.3668 4.9319-2.3565 0.63958 0.0137 7.1174 3.711 14.389 8.2153 9.676 5.9922 13.616 7.976 14.683 7.3945 2.4591-1.3338 19.546-19.164 19.119-19.946-0.21889-0.40359-3.9709-6.5566-8.3384-13.67-4.371-7.1174-7.9417-13.424-7.9417-14.016 0-0.58828 1.0706-2.7704 2.377-4.8396 3.5878-5.6844 8.53-17.737 10.862-26.483l2.0795-7.8015 20.101-3.0713c11.058-1.693 20.617-3.4989 21.25-4.0153 0.7969-0.65325 1.1458-4.2069 1.1458-11.725s-0.34887-11.074-1.1458-11.728c-0.63274-0.51646-10.193-2.3189-21.25-4.0119l-20.101-3.0748-2.0795-7.8015c-2.3326-8.7455-7.2748-20.798-10.862-26.479-1.3065-2.0726-2.377-4.2513-2.377-4.8396 0-0.5917 3.5707-6.8986 7.9417-14.016 4.3676-7.114 8.1367-13.295 8.3727-13.725 0.68404-1.2416-19.348-20.867-20.75-20.33-0.67719 0.25993-6.943 3.9812-13.92 8.2701-6.9807 4.2889-13.151 7.8015-13.708 7.8015-0.55408 0-2.7054-1.074-4.778-2.3805-5.6844-3.5878-17.734-8.53-26.483-10.862l-7.798-2.0795-3.0748-20.101c-1.693-11.058-3.4955-20.617-4.0119-21.25-0.66011-0.80375-4.3197-1.1458-12.282-1.1458z"
       fill="url(#a)"
       stroke-width=".87557"
       id="path42" />
  </g>
  <path
     d="m73.052 51.059v90h11.378v-34.121l49.631-24.34z"
     fill="#23bac2"
     stroke-width="2.7732"
     id="path46" />
  <path
     d="m23.25 295.91-0.01025 1e-3c0 0.0466 0.0029 0.0925 0.0029 0.13917v-0.13477c0 0.16138 0.0061 0.32091 0.0073 0.48193zm0 0.48779v7.5117c-0.0013-0.16714-0.01025-0.33199-0.01025-0.49951v7.5c0 26.686 17.124 48.474 38.659 49.803 0.69115 0.0427 1.3876 0.0644 2.0874 0.0644h0.01025 255.99c0.70325 0 1.4032-0.0214 2.0977-0.0644 21.534-1.3293 38.659-23.117 38.659-49.803v-7.5c0 0.16752-9e-3 0.33237-0.0103 0.49951v-7.5117c-0.0187 2.4154-0.17161 4.7918-0.46142 7.1133-0.10294 0.8239-0.22199 1.6406-0.35743 2.4507-1e-3 0-1e-3 3e-3 -1e-3 4e-3 -0.77919 4.6605-2.0976 9.0782-3.8584 13.166-0.0784 0.18192-0.14979 0.36874-0.22998 0.54931-0.12839 0.28932-0.26847 0.56965-0.40137 0.85547-0.1917 0.41217-0.37776 0.8286-0.57861 1.2334-1e-3 2e-3 -2e-3 2e-3 -3e-3 4e-3 -0.33956 0.68381-0.69235 1.3568-1.0576 2.0186-0.27215 0.49311-0.55775 0.97426-0.84375 1.4546-0.0986 0.16561-0.19126 0.33693-0.29151 0.50097 0 0-3e-3 2e-3 -4e-3 4e-3 -0.3906 0.6391-0.79388 1.2661-1.2085 1.8809-6.2e-4 1e-3 2.2e-4 2e-3 0 3e-3 -0.41421 0.6142-0.83994 1.2157-1.2773 1.8047-1e-3 9.9e-4 -2e-3 4e-3 -3e-3 6e-3 -0.8759 1.1792-1.7976 2.3075-2.7612 3.3794-2e-3 0-2e-3 2e-3 -3e-3 3e-3 -7.235 8.0462-16.847 12.949-27.394 12.949h-119.87v7.4985h-16.27v-7.4985h-119.87c-10.547 0-20.159-4.903-27.394-12.949-9.97e-4 -1e-3 -9.52e-4 -3e-3 -0.0029-3e-3 -0.96362-1.0719-1.8853-2.2002-2.7612-3.3794-9.98e-4 -2e-3 -0.0022-5e-3 -0.0029-6e-3 -0.4374-0.58899-0.86313-1.1905-1.2773-1.8047-2.25e-4 -1e-3 6.15e-4 -2e-3 0-3e-3 -0.41462-0.61479-0.8179-1.2418-1.2085-1.8809-9.9e-4 -2e-3 -0.0036-4e-3 -0.0044-4e-3 -0.10024-0.16404-0.1929-0.33536-0.2915-0.50097-0.286-0.48033-0.5716-0.96148-0.84375-1.4546-0.36526-0.66171-0.71806-1.3348-1.0576-2.0186-1e-3 -2e-3 -0.0022-2e-3 -0.0029-4e-3 -0.20093-0.40473-0.38692-0.82123-0.57861-1.2334-0.1329-0.28582-0.27299-0.56615-0.40137-0.85547-0.08015-0.18057-0.15158-0.36739-0.22998-0.54931-1.7607-4.0879-3.0792-8.5055-3.8584-13.166 0-1e-3 -0.0012-4e-3 -0.0015-4e-3 -0.13544-0.8101-0.25449-1.6268-0.35742-2.4507-0.28982-2.3215-0.44276-4.6979-0.46142-7.1133zm337.48 0c1e-3 -0.16102 7e-3 -0.32055 7e-3 -0.48193v0.13477c0-0.0467 3e-3 -0.0926 3e-3 -0.13917l-0.0103-1e-3zm-337.48 7.0166c0 0.16039 0.0061 0.31895 0.0073 0.479-9e-4 -0.11519-0.0071-0.22887-0.0073-0.34424zm337.48 0v0.13476c0 0.11537-6e-3 0.22905-7e-3 0.34424 1e-3 -0.16005 7e-3 -0.31861 7e-3 -0.479zm-329.38 29.833c7.5e-4 1e-3 0.0034 2e-3 0.0044 4e-3 0.39059 0.63901 0.79388 1.2661 1.2085 1.8808 6.15e-4 7.5e-4 -2.48e-4 2e-3 0 3e-3 -0.41623-0.61712-0.82087-1.2467-1.2129-1.8882zm321.29 0c-0.39202 0.6415-0.79666 1.2711-1.2129 1.8882 2.5e-4 -1e-3 -6.1e-4 -2e-3 0-3e-3 0.41462-0.61479 0.8179-1.2418 1.2085-1.8808 1e-3 -2e-3 4e-3 -3e-3 4e-3 -4e-3z"
     opacity=".3"
     stroke-width=".99997"
     id="path50" />
  <use
     transform="translate(-.11385 .98348)"
     width="100%"
     height="100%"
     mask="url(#b)"
     xlink:href="#surface5"
     id="use52" />
  <path
     inkscape:connector-curvature="0"
     style="fill:#d41717;fill-opacity:1;stroke-width:2.14714909"
     d="m 200.06823,217.839 76.62531,-10.43557 0.0335,73.91131 -76.58881,0.43613 z m 76.5888,71.99176 0.0595,73.97573 -76.5888,-10.52985 -0.003,-63.9421 z m 9.28878,-83.79249 101.5988,-14.82821 v 89.16466 l -101.5988,0.80655 z m 101.62242,84.48817 -0.0238,88.76314 -101.5988,-14.33952 -0.14234,-74.58982 z"
     id="path2-0" />
</svg>
