<?xml version="1.0" encoding="UTF-8" standalone="no"?>
<svg
   xmlns:dc="http://purl.org/dc/elements/1.1/"
   xmlns:cc="http://creativecommons.org/ns#"
   xmlns:rdf="http://www.w3.org/1999/02/22-rdf-syntax-ns#"
   xmlns:svg="http://www.w3.org/2000/svg"
   xmlns="http://www.w3.org/2000/svg"
   xmlns:sodipodi="http://sodipodi.sourceforge.net/DTD/sodipodi-0.dtd"
   xmlns:inkscape="http://www.inkscape.org/namespaces/inkscape"
   width="512"
   height="512"
   version="1.1"
   viewBox="0 0 384 384"
   id="svg29"
   sodipodi:docname="wine-uninstaller.svg"
   inkscape:version="0.92.4 5da689c313, 2019-01-14">
  <metadata
     id="metadata33">
    <rdf:RDF>
      <cc:Work
         rdf:about="">
        <dc:format>image/svg+xml</dc:format>
        <dc:type
           rdf:resource="http://purl.org/dc/dcmitype/StillImage" />
      </cc:Work>
    </rdf:RDF>
  </metadata>
  <sodipodi:namedview
     pagecolor="#ffffff"
     bordercolor="#666666"
     borderopacity="1"
     objecttolerance="10"
     gridtolerance="10"
     guidetolerance="10"
     inkscape:pageopacity="0"
     inkscape:pageshadow="2"
     inkscape:window-width="1366"
     inkscape:window-height="710"
     id="namedview31"
     showgrid="false"
     inkscape:zoom="0.23046875"
     inkscape:cx="43.849259"
     inkscape:cy="-43.264951"
     inkscape:window-x="0"
     inkscape:window-y="25"
     inkscape:window-maximized="1"
     inkscape:current-layer="svg29" />
  <defs
     id="defs5">
    <clipPath
       id="g">
      <rect
         width="384"
         height="384"
         id="rect2" />
    </clipPath>
  </defs>
  <path
     inkscape:connector-curvature="0"
     style="fill:#d41717;fill-opacity:1;stroke-width:4.03664017"
     d="m 15.750005,65.267666 144.055565,-19.618879 0.063,138.953263 -143.986945,0.81993 z M 159.73695,200.61217 159.84879,339.68654 15.861845,319.89042 15.856845,199.67927 Z M 177.19984,43.082291 368.2056,15.205255 V 182.83481 l -191.00576,1.51632 z M 368.25,201.92005 368.2053,368.79475 177.19956,341.83645 176.93197,201.6076 Z"
     id="path2-0" />
  <path
     d="m384 294c0 49.706-40.294 90-90 90-49.706 0-90-40.294-90-90s40.294-90 90-90 90 40.294 90 90z"
     fill="#0d0101"
     opacity=".3"
     stroke-width=".97425"
     id="path15" />
  <path
     d="m384 286.5c0 49.706-40.294 90-90 90s-90-40.294-90-90 40.294-90 90-90 90 40.294 90 90z"
     fill="#d41717"
     stroke-width=".97425"
     id="path17"
     style="fill:#ff2424;fill-opacity:1" />
  <path
     d="m328.74 249c-2.0333-0.0421-3.9824 0.81435-5.3277 2.3402l-29.417 32.392-29.417-32.392c-1.2342-1.4011-2.9843-2.2424-4.8487-2.3334-2.8072-0.13319-5.4156 1.4483-6.5954 3.9975-1.1802 2.551-0.698 5.5624 1.2207 7.616l30.314 33.383-30.314 33.376c-1.6978 1.8209-2.2862 4.4141-1.5376 6.7879 0.74859 2.3739 2.7162 4.1627 5.1525 4.6805 2.4346 0.5176 4.96-0.31697 6.6089-2.1817l29.417-32.392 29.417 32.392c1.6489 1.8647 4.1746 2.6993 6.6089 2.1817 2.4363-0.5176 4.4038-2.3065 5.1525-4.6805 0.74859-2.3739 0.16017-4.9672-1.5376-6.7879l-30.314-33.376 30.314-33.383c1.8597-1.9895 2.3756-4.8875 1.3185-7.3966-1.0588-2.5104-3.4917-4.1644-6.2143-4.2235z"
     opacity=".3"
     stroke-width=".43162"
     id="path21" />
  <g
     transform="matrix(.55979 0 0 .55979 172.79 164.18)"
     id="g27">
    <g
       transform="matrix(1.1102,0,0,1.1102,-21.157,-21.158)"
       id="g25">
      <path
         d="m270 143.47c-3.2717-0.0678-6.4079 1.3103-8.5726 3.7655l-47.335 52.12-47.335-52.12c-1.9859-2.2544-4.8019-3.6082-7.8018-3.7546-4.517-0.21431-8.714 2.3304-10.612 6.4322-1.899 4.1047-1.1231 8.9503 1.9642 12.255l48.777 53.715-48.777 53.704c-2.7319 2.93-3.6787 7.1026-2.4742 10.922 1.2045 3.8197 4.3705 6.6981 8.2907 7.5312 3.9174 0.83286 7.981-0.51003 10.634-3.5105l47.335-52.12 47.335 52.12c2.6532 3.0005 6.7172 4.3433 10.634 3.5105 3.9201-0.83285 7.086-3.7113 8.2907-7.5312 1.2045-3.8197 0.25772-7.9926-2.4742-10.922l-48.777-53.704 48.777-53.715c2.9924-3.2012 3.8225-7.8644 2.1215-11.902-1.7036-4.0395-5.6184-6.7009-9.9992-6.7959z"
         fill="#fff"
         stroke-width=".6945"
         id="path23" />
    </g>
  </g>
</svg>
