<?xml version="1.0" encoding="UTF-8" standalone="no"?>
<svg
   xmlns:dc="http://purl.org/dc/elements/1.1/"
   xmlns:cc="http://creativecommons.org/ns#"
   xmlns:rdf="http://www.w3.org/1999/02/22-rdf-syntax-ns#"
   xmlns:svg="http://www.w3.org/2000/svg"
   xmlns="http://www.w3.org/2000/svg"
   xmlns:sodipodi="http://sodipodi.sourceforge.net/DTD/sodipodi-0.dtd"
   xmlns:inkscape="http://www.inkscape.org/namespaces/inkscape"
   width="512"
   height="512"
   version="1.1"
   viewBox="0 0 384 384"
   id="svg20"
   sodipodi:docname="wine-help.svg"
   inkscape:version="0.92.4 5da689c313, 2019-01-14">
  <metadata
     id="metadata26">
    <rdf:RDF>
      <cc:Work
         rdf:about="">
        <dc:format>image/svg+xml</dc:format>
        <dc:type
           rdf:resource="http://purl.org/dc/dcmitype/StillImage" />
      </cc:Work>
    </rdf:RDF>
  </metadata>
  <defs
     id="defs24" />
  <sodipodi:namedview
     pagecolor="#ffffff"
     bordercolor="#666666"
     borderopacity="1"
     objecttolerance="10"
     gridtolerance="10"
     guidetolerance="10"
     inkscape:pageopacity="0"
     inkscape:pageshadow="2"
     inkscape:window-width="1366"
     inkscape:window-height="710"
     id="namedview22"
     showgrid="false"
     inkscape:zoom="0.4609375"
     inkscape:cx="240.81356"
     inkscape:cy="256"
     inkscape:window-x="0"
     inkscape:window-y="25"
     inkscape:window-maximized="1"
     inkscape:current-layer="svg20" />
  <path
     inkscape:connector-curvature="0"
     style="fill:#d41717;fill-opacity:1;stroke-width:4.03664017"
     d="m 15.750005,65.267664 144.055575,-19.61888 0.063,138.953256 -143.986955,0.81993 z M 159.73695,200.61216 159.8488,339.68653 15.861845,319.89041 15.856845,199.67926 Z M 177.19985,43.082294 368.2056,15.205255 V 182.8348 l -191.00576,1.51632 z M 368.25,201.92004 l -0.0447,166.8747 -191.00574,-26.9583 -0.2676,-140.22885 z"
     id="path2-0" />
  <path
     d="m384 294c0 49.706-40.294 90-90 90s-90-40.294-90-90 40.294-90 90-90 90 40.294 90 90z"
     fill="#3c0707"
     opacity=".3"
     stroke-width=".97425"
     id="path10" />
  <path
     d="m384 286.5c0 49.706-40.294 90-90 90s-90-40.294-90-90 40.294-90 90-90 90 40.294 90 90z"
     fill="#d41717"
     stroke-width=".97425"
     id="path12"
     style="fill:#f0f0f0;fill-opacity:1" />
  <path
     d="m280.65 328.86c0-1.8662 0.2666-3.4454 0.80272-4.7373 0.53907-1.2891 1.2803-2.332 2.2383-3.1289 0.9492-0.79395 2.0742-1.3711 3.3662-1.7285 1.2891-0.35449 2.669-0.53613 4.1396-0.53613 1.3916 0 2.7158 0.18164 3.9639 0.53613 1.251 0.35742 2.3525 0.93458 3.3106 1.7285 0.9492 0.79688 1.7021 1.8398 2.2588 3.1289 0.55957 1.292 0.83498 2.8711 0.83498 4.7373 0 1.79-0.27539 3.3223-0.83498 4.5938-0.55664 1.2656-1.3096 2.3262-2.2588 3.1611-0.95798 0.82914-2.0596 1.4356-3.3106 1.8164-1.2481 0.375-2.5723 0.56543-3.9639 0.56543-1.4707 0-2.8506-0.19043-4.1396-0.56544-1.292-0.38085-2.417-0.9873-3.3662-1.8164-0.95798-0.83497-1.7021-1.8956-2.2383-3.1611-0.53027-1.2686-0.7998-2.8008-0.7998-4.5908m1.9688-20.385v-4.4062c0-2.0273 0.208-3.8672 0.62402-5.5137 0.41602-1.6523 1.0517-3.2168 1.9072-4.708 0.85253-1.4883 1.957-2.9414 3.3046-4.3506 1.3535-1.4121 2.9854-2.8711 4.8896-4.3828 1.67-1.3096 3.0791-2.4815 4.2305-3.5186 1.1543-1.0283 2.083-2.0537 2.8008-3.0704 0.71484-1.0108 1.2334-2.0713 1.5498-3.1816 0.31934-1.1162 0.48047-2.4111 0.48047-3.876 0-2.2646-0.77048-4.1396-2.2969-5.6044-1.5293-1.4707-3.8642-2.206-7.0049-2.206-2.7363 0-5.6894 0.57714-8.8508 1.7256-3.1523 1.1543-6.4277 2.5635-9.8025 4.2334l-6.0762-13.172c1.7021-0.99315 3.5625-1.9365 5.5694-2.8271 2.0098-0.89648 4.0957-1.6904 6.2578-2.3877 2.165-0.69141 4.3623-1.2422 6.5859-1.6377 2.2266-0.39843 4.4092-0.59765 6.5596-0.59765 4.0517 0 7.7048 0.48926 10.96 1.4619 3.2607 0.97268 6.0264 2.3906 8.2853 4.2598 2.2706 1.8662 4.0048 4.1367 5.2178 6.7969 1.2129 2.6631 1.8194 5.7012 1.8194 9.117 0 2.5019-0.28125 4.7373-0.83497 6.7061-0.55373 1.9688-1.3829 3.7969-2.4698 5.4844-1.0986 1.6904-2.4668 3.3194-4.1162 4.8867-1.6465 1.5674-3.5684 3.2285-5.751 4.9746-1.67 1.3125-3.0322 2.458-4.0869 3.4306-1.0488 0.97267-1.875 1.8984-2.4698 2.7686-0.59472 0.876-1.0019 1.7812-1.2217 2.7158-0.2168 0.92872-0.32813 2.0302-0.32813 3.3017v3.5771z"
     opacity=".3"
     stroke-width=".75"
     id="path14" />
  <path
     d="m280.65 321.36c0-1.8662 0.2666-3.4454 0.80272-4.7373 0.53907-1.2891 1.2803-2.332 2.2383-3.1289 0.9492-0.79395 2.0742-1.3711 3.3662-1.7285 1.2891-0.35449 2.669-0.53613 4.1396-0.53613 1.3916 0 2.7158 0.18164 3.9639 0.53613 1.251 0.35742 2.3525 0.93458 3.3106 1.7285 0.9492 0.79688 1.7021 1.8398 2.2588 3.1289 0.55957 1.292 0.83498 2.8711 0.83498 4.7373 0 1.79-0.27539 3.3223-0.83498 4.5938-0.55664 1.2656-1.3096 2.3262-2.2588 3.1611-0.95798 0.82913-2.0596 1.4356-3.3106 1.8164-1.2481 0.375-2.5723 0.56543-3.9639 0.56543-1.4707 0-2.8506-0.19043-4.1396-0.56544-1.292-0.38085-2.417-0.9873-3.3662-1.8164-0.95798-0.83497-1.7021-1.8956-2.2383-3.1611-0.53027-1.2686-0.7998-2.8008-0.7998-4.5908m1.9688-20.385v-4.4062c0-2.0273 0.208-3.8672 0.62402-5.5137 0.41602-1.6523 1.0517-3.2168 1.9072-4.708 0.85253-1.4883 1.957-2.9414 3.3046-4.3506 1.3535-1.4121 2.9854-2.8711 4.8896-4.3828 1.67-1.3096 3.0791-2.4815 4.2305-3.5186 1.1543-1.0283 2.083-2.0537 2.8008-3.0704 0.71484-1.0108 1.2334-2.0713 1.5498-3.1816 0.31934-1.1162 0.48047-2.4111 0.48047-3.876 0-2.2646-0.77048-4.1396-2.2969-5.6044-1.5293-1.4707-3.8642-2.206-7.0049-2.206-2.7363 0-5.6894 0.57714-8.8508 1.7256-3.1523 1.1543-6.4277 2.5635-9.8025 4.2334l-6.0762-13.172c1.7021-0.99315 3.5625-1.9365 5.5694-2.8271 2.0098-0.89648 4.0957-1.6904 6.2578-2.3877 2.165-0.69141 4.3623-1.2422 6.5859-1.6377 2.2266-0.39843 4.4092-0.59765 6.5596-0.59765 4.0517 0 7.7048 0.48926 10.96 1.4619 3.2607 0.97268 6.0264 2.3906 8.2853 4.2598 2.2706 1.8662 4.0048 4.1367 5.2178 6.7969 1.2129 2.6631 1.8194 5.7012 1.8194 9.117 0 2.5019-0.28125 4.7373-0.83497 6.7061-0.55373 1.9688-1.3829 3.7969-2.4698 5.4844-1.0986 1.6904-2.4668 3.3194-4.1162 4.8867-1.6465 1.5674-3.5684 3.2285-5.751 4.9746-1.67 1.3125-3.0322 2.458-4.0869 3.4306-1.0488 0.97267-1.875 1.8984-2.4698 2.7686-0.59472 0.876-1.0019 1.7812-1.2217 2.7158-0.2168 0.92872-0.32813 2.0302-0.32813 3.3017v3.5771z"
     fill="#fff"
     stroke-width=".75"
     id="path16"
     style="fill:#ff1010;fill-opacity:1" />
</svg>
